GeezHandwritingOutArrows.ufo
<glyph name="comma" format="2">
  <advance width="307"/>
  <unicode hex="002C"/>
  <outline>
    <contour>
      <point x="166" y="109" type="curve"/>
      <point x="156" y="117"/>
      <point x="141" y="121"/>
      <point x="119" y="121" type="curve" smooth="yes"/>
      <point x="80" y="121"/>
      <point x="61" y="98"/>
      <point x="61" y="55" type="curve" smooth="yes"/>
      <point x="61" y="31"/>
      <point x="74" y="12"/>
      <point x="96" y="0" type="curve"/>
      <point x="55" y="-55" type="line"/>
      <point x="55" y="-72"/>
      <point x="66" y="-84"/>
      <point x="86" y="-94" type="curve"/>
      <point x="135" y="-78"/>
      <point x="186" y="-2"/>
      <point x="186" y="55" type="curve" smooth="yes"/>
      <point x="186" y="78"/>
      <point x="180" y="94"/>
    </contour>
  </outline>
</glyph>
<glyph name="period" format="2">
  <advance width="307"/>
  <unicode hex="002E"/>
  <outline>
    <contour>
      <point x="180" y="59" type="curve" smooth="yes"/>
      <point x="180" y="98"/>
      <point x="160" y="119"/>
      <point x="121" y="119" type="curve" smooth="yes"/>
      <point x="82" y="119"/>
      <point x="61" y="98"/>
      <point x="61" y="59" type="curve" smooth="yes"/>
      <point x="61" y="20"/>
      <point x="82" y="0"/>
      <point x="121" y="0" type="curve" smooth="yes"/>
      <point x="160" y="0"/>
      <point x="180" y="20"/>
    </contour>
  </outline>
</glyph>
<glyph name="one" format="2">
  <advance width="1024"/>
  <unicode hex="0031"/>
  <outline>
    <contour>
      <point x="563" y="1284" type="line" smooth="yes"/>
      <point x="563" y="1315"/>
      <point x="547" y="1333"/>
      <point x="512" y="1335" type="curve"/>
      <point x="477" y="1333"/>
      <point x="461" y="1315"/>
      <point x="461" y="1284" type="curve" smooth="yes"/>
      <point x="461" y="51" type="line" smooth="yes"/>
      <point x="461" y="20"/>
      <point x="477" y="2"/>
      <point x="512" y="0" type="curve"/>
      <point x="547" y="2"/>
      <point x="563" y="20"/>
      <point x="563" y="51" type="curve" smooth="yes"/>
    </contour>
  </outline>
</glyph>
<glyph name="five" format="2">
  <advance width="1024"/>
  <unicode hex="0035"/>
  <outline>
    <contour>
      <point x="922" y="424" type="curve" smooth="yes"/>
      <point x="922" y="545"/>
      <point x="880" y="644"/>
      <point x="799" y="725" type="curve" smooth="yes"/>
      <point x="718" y="806"/>
      <point x="618.004" y="848"/>
      <point x="498" y="848" type="curve" smooth="yes"/>
      <point x="398.996" y="848"/>
      <point x="311" y="817"/>
      <point x="233" y="756" type="curve"/>
      <point x="233" y="1225" type="line"/>
      <point x="805" y="1225" type="line" smooth="yes"/>
      <point x="840" y="1225"/>
      <point x="856" y="1241"/>
      <point x="856" y="1276" type="curve" smooth="yes"/>
      <point x="856" y="1311"/>
      <point x="840.001" y="1327"/>
      <point x="805" y="1327" type="curve" smooth="yes"/>
      <point x="182" y="1327" type="line" smooth="yes"/>
      <point x="146.999" y="1327"/>
      <point x="131" y="1311"/>
      <point x="131" y="1276" type="curve" smooth="yes"/>
      <point x="131" y="616" type="line" smooth="yes"/>
      <point x="131" y="586"/>
      <point x="147" y="567"/>
      <point x="182" y="565" type="curve"/>
      <point x="213" y="567"/>
      <point x="229" y="580"/>
      <point x="233" y="606" type="curve"/>
      <point x="297" y="698"/>
      <point x="384.996" y="745"/>
      <point x="498" y="745" type="curve" smooth="yes"/>
      <point x="588.004" y="745"/>
      <point x="662.75" y="713.753"/>
      <point x="725" y="651" type="curve" smooth="yes"/>
      <point x="786.752" y="588.75"/>
      <point x="819" y="514"/>
      <point x="819" y="424" type="curve" smooth="yes"/>
      <point x="819" y="334"/>
      <point x="787.746" y="258.253"/>
      <point x="725" y="195" type="curve" smooth="yes"/>
      <point x="663.744" y="133.25"/>
      <point x="588.003" y="102"/>
      <point x="498" y="102" type="curve" smooth="yes"/>
      <point x="366.995" y="102"/>
      <point x="250" y="182"/>
      <point x="201" y="303" type="curve"/>
      <point x="186" y="322"/>
      <point x="164.052" y="325.898"/>
      <point x="135" y="311" type="curve" smooth="yes"/>
      <point x="125.052" y="305.898"/>
      <point x="117.299" y="294.966"/>
      <point x="115" y="276" type="curve" smooth="yes"/>
      <point x="113.298" y="261.96"/>
      <point x="113.975" y="247.987"/>
      <point x="119" y="238" type="curve" smooth="yes"/>
      <point x="191.976" y="92.9837"/>
      <point x="336" y="0"/>
      <point x="498" y="0" type="curve" smooth="yes"/>
      <point x="618" y="0"/>
      <point x="718.998" y="40.9985"/>
      <point x="799" y="121" type="curve" smooth="yes"/>
      <point x="881.001" y="203.001"/>
      <point x="922" y="303"/>
    </contour>
  </outline>
</glyph>
<glyph name="eight" format="2">
  <advance width="1024"/>
  <unicode hex="0038"/>
  <outline>
    <contour>
      <point x="725" y="336" type="curve" smooth="yes"/>
      <point x="725" y="268"/>
      <point x="698.789" y="212.246"/>
      <point x="647" y="168" type="curve" smooth="yes"/>
      <point x="595.789" y="124.247"/>
      <point x="535" y="102"/>
      <point x="467" y="102" type="curve" smooth="yes"/>
      <point x="311" y="102"/>
      <point x="205" y="213"/>
      <point x="205" y="369" type="curve" smooth="yes"/>
      <point x="205" y="463"/>
      <point x="260" y="561"/>
      <point x="373" y="664" type="curve"/>
      <point x="502" y="596"/>
      <point x="578.108" y="555.153"/>
      <point x="598" y="541" type="curve" smooth="yes"/>
      <point x="682.106" y="481.155"/>
      <point x="725" y="412"/>
    </contour>
    <contour>
      <point x="354" y="793" type="line"/>
      <point x="283" y="848"/>
      <point x="248" y="920"/>
      <point x="248" y="1004" type="curve" smooth="yes"/>
      <point x="248" y="1065"/>
      <point x="271.011" y="1117.99"/>
      <point x="315" y="1161" type="curve" smooth="yes"/>
      <point x="361.011" y="1205.99"/>
      <point x="414" y="1229"/>
      <point x="475" y="1229" type="curve" smooth="yes"/>
      <point x="535" y="1229"/>
      <point x="625" y="1182"/>
      <point x="659" y="1133" type="curve"/>
    </contour>
    <contour>
      <point x="922" y="1292" type="curve" smooth="yes"/>
      <point x="922" y="1327"/>
      <point x="903" y="1346"/>
      <point x="866" y="1346" type="curve" smooth="yes"/>
      <point x="852" y="1346"/>
      <point x="840.69" y="1340.27"/>
      <point x="831" y="1329" type="curve" smooth="yes"/>
      <point x="727" y="1208" type="line"/>
      <point x="643" y="1290"/>
      <point x="559" y="1331"/>
      <point x="475" y="1331" type="curve" smooth="yes"/>
      <point x="281" y="1331"/>
      <point x="161.521" y="1200.04"/>
      <point x="147" y="1004" type="curve" smooth="yes"/>
      <point x="139.521" y="903.03"/>
      <point x="184" y="807"/>
      <point x="283" y="719" type="curve"/>
      <point x="162" y="598"/>
      <point x="102" y="481.004"/>
      <point x="102" y="369" type="curve" smooth="yes" name=".hr01"/>
      <point x="102" y="261.996"/>
      <point x="137.007" y="174.008"/>
      <point x="205" y="104" type="curve" smooth="yes"/>
      <point x="272.009" y="35.0052"/>
      <point x="359.996" y="0"/>
      <point x="467" y="0" type="curve" smooth="yes"/>
      <point x="567.004" y="0"/>
      <point x="654.027" y="29.9735"/>
      <point x="723" y="92" type="curve" smooth="yes"/>
      <point x="793.023" y="154.971"/>
      <point x="827" y="236"/>
      <point x="827" y="336" type="curve" smooth="yes"/>
      <point x="827" y="432"/>
      <point x="784.814" y="518.782"/>
      <point x="700" y="590" type="curve" smooth="yes"/>
      <point x="653.816" y="628.78"/>
      <point x="569" y="680"/>
      <point x="446" y="741" type="curve"/>
      <point x="907" y="1260" type="line" smooth="yes"/>
      <point x="916.439" y="1270.63"/>
      <point x="922" y="1282"/>
    </contour>
  </outline>
</glyph>
<glyph name="semicolon" format="2">
  <advance width="307"/>
  <unicode hex="003B"/>
  <outline>
    <contour>
      <point x="156" y="113" type="curve"/>
      <point x="145" y="121"/>
      <point x="131" y="125"/>
      <point x="109" y="125" type="curve" smooth="yes"/>
      <point x="70" y="125"/>
      <point x="51" y="102"/>
      <point x="51" y="59" type="curve" smooth="yes"/>
      <point x="51" y="37"/>
      <point x="63" y="18"/>
      <point x="86" y="4" type="curve"/>
      <point x="45" y="-51" type="line"/>
      <point x="45" y="-68"/>
      <point x="55" y="-80"/>
      <point x="76" y="-90" type="curve"/>
      <point x="125" y="-74"/>
      <point x="176" y="2" name=".hr01"/>
      <point x="176" y="61" type="curve" smooth="yes"/>
      <point x="176" y="82"/>
      <point x="170" y="98" name=".hr02"/>
    </contour>
    <contour>
      <point x="170" y="618" type="curve" smooth="yes"/>
      <point x="170" y="657"/>
      <point x="150" y="678"/>
      <point x="111" y="678" type="curve" smooth="yes"/>
      <point x="72" y="678"/>
      <point x="51" y="657"/>
      <point x="51" y="618" type="curve" smooth="yes"/>
      <point x="51" y="580"/>
      <point x="72" y="559"/>
      <point x="111" y="559" type="curve" smooth="yes"/>
      <point x="150" y="559"/>
      <point x="170" y="580"/>
    </contour>
  </outline>
</glyph>
<glyph name="question" format="2">
  <advance width="1024"/>
  <unicode hex="003F"/>
  <outline>
    <contour>
      <point x="475" y="59" type="curve" smooth="yes"/>
      <point x="475" y="98"/>
      <point x="455" y="119"/>
      <point x="416" y="119" type="curve" smooth="yes"/>
      <point x="377" y="119"/>
      <point x="356" y="98"/>
      <point x="356" y="59" type="curve" smooth="yes"/>
      <point x="356" y="20"/>
      <point x="377" y="0"/>
      <point x="416" y="0" type="curve" smooth="yes"/>
      <point x="455" y="0"/>
      <point x="475" y="20"/>
    </contour>
    <contour>
      <point x="602" y="1104" type="curve" smooth="yes"/>
      <point x="602" y="1235"/>
      <point x="506" y="1331"/>
      <point x="375" y="1331" type="curve" smooth="yes"/>
      <point x="250" y="1331"/>
      <point x="152.067" y="1228.99"/>
      <point x="147" y="1104" type="curve" smooth="yes"/>
      <point x="146.067" y="1081"/>
      <point x="174" y="1057"/>
      <point x="197" y="1057" type="curve" smooth="yes"/>
      <point x="231" y="1057"/>
      <point x="247" y="1073"/>
      <point x="248" y="1108" type="curve" smooth="yes"/>
      <point x="249" y="1143"/>
      <point x="262.011" y="1171.99"/>
      <point x="285" y="1194" type="curve" smooth="yes"/>
      <point x="309.01" y="1216.99"/>
      <point x="340" y="1229"/>
      <point x="375" y="1229" type="curve" smooth="yes"/>
      <point x="442" y="1229"/>
      <point x="502" y="1171"/>
      <point x="502" y="1104" type="curve" smooth="yes"/>
      <point x="502" y="1040"/>
      <point x="487.038" y="982.974"/>
      <point x="457" y="936" type="curve" smooth="yes"/>
      <point x="393.041" y="835.978"/>
      <point x="362" y="741.002"/>
      <point x="362" y="655" type="curve" smooth="yes" name=".hr01"/>
      <point x="362" y="348" type="line" smooth="yes"/>
      <point x="362" y="317"/>
      <point x="379" y="299"/>
      <point x="414" y="297" type="curve"/>
      <point x="449" y="299"/>
      <point x="465" y="317"/>
      <point x="465" y="348" type="curve" smooth="yes"/>
      <point x="465" y="643" type="line" smooth="yes"/>
      <point x="465" y="698.001"/>
      <point x="486.565" y="777.202"/>
      <point x="532" y="874" type="curve" smooth="yes"/>
      <point x="578.564" y="973.202"/>
      <point x="602" y="1049"/>
    </contour>
  </outline>
</glyph>
<glyph name="at" format="2">
  <advance width="1434"/>
  <unicode hex="0040"/>
  <outline>
    <contour>
      <point x="840" y="678" type="curve" smooth="yes"/>
      <point x="840" y="610"/>
      <point x="822.61" y="543.211"/>
      <point x="788" y="479" type="curve" smooth="yes"/>
      <point x="746.611" y="402.212"/>
      <point x="696" y="362"/>
      <point x="635" y="362" type="curve" smooth="yes"/>
      <point x="563" y="362"/>
      <point x="526" y="410"/>
      <point x="526" y="506" type="curve" smooth="yes"/>
      <point x="526" y="567"/>
      <point x="544.312" y="628.82"/>
      <point x="580" y="690" type="curve" smooth="yes"/>
      <point x="621.309" y="760.816"/>
      <point x="672" y="795"/>
      <point x="727" y="795" type="curve" smooth="yes"/>
      <point x="793" y="795"/>
      <point x="840" y="743"/>
    </contour>
    <contour>
      <point x="1300" y="666" type="curve" smooth="yes"/>
      <point x="1300" y="811"/>
      <point x="1244.97" y="923.945"/>
      <point x="1137" y="1004" type="curve" smooth="yes"/>
      <point x="1039.96" y="1075.95"/>
      <point x="915.003" y="1110"/>
      <point x="764" y="1110" type="curve" smooth="yes"/>
      <point x="585.996" y="1110"/>
      <point x="438.575" y="1058.49"/>
      <point x="322" y="956" type="curve" smooth="yes"/>
      <point x="198.569" y="847.484"/>
      <point x="137" y="707"/>
      <point x="137" y="532" type="curve" smooth="yes"/>
      <point x="137" y="371"/>
      <point x="196.812" y="239.785"/>
      <point x="313" y="141" type="curve" smooth="yes"/>
      <point x="423.818" y="46.7805"/>
      <point x="563" y="0"/>
      <point x="729" y="0" type="curve" smooth="yes"/>
      <point x="887" y="0"/>
      <point x="1026" y="39"/>
      <point x="1151" y="119" type="curve" smooth="yes"/>
      <point x="1176" y="134.999"/>
      <point x="1188" y="150"/>
      <point x="1188" y="164" type="curve" smooth="yes"/>
      <point x="1188" y="190"/>
      <point x="1176" y="205"/>
      <point x="1151" y="205" type="curve" smooth="yes"/>
      <point x="1139" y="205"/>
      <point x="1124.22" y="199.661"/>
      <point x="1106" y="188" type="curve" smooth="yes"/>
      <point x="999.22" y="119.661"/>
      <point x="881.004" y="84"/>
      <point x="748" y="84" type="curve" smooth="yes"/>
      <point x="601.996" y="84"/>
      <point x="483.143" y="120.169"/>
      <point x="389" y="195" type="curve" smooth="yes"/>
      <point x="288.131" y="275.178"/>
      <point x="238" y="386.996"/>
      <point x="238" y="528" type="curve" smooth="yes"/>
      <point x="238" y="684.004"/>
      <point x="289.103" y="806.88"/>
      <point x="391" y="897" type="curve" smooth="yes"/>
      <point x="488.109" y="982.885"/>
      <point x="615.995" y="1026"/>
      <point x="776" y="1026" type="curve" smooth="yes"/>
      <point x="899.003" y="1026"/>
      <point x="999.728" y="997.636"/>
      <point x="1075" y="942" type="curve" smooth="yes"/>
      <point x="1160.73" y="878.634"/>
      <point x="1204" y="788"/>
      <point x="1204" y="670" type="curve" smooth="yes"/>
      <point x="1204" y="598"/>
      <point x="1187.79" y="531.118"/>
      <point x="1155" y="471" type="curve" smooth="yes"/>
      <point x="1115.79" y="399.111"/>
      <point x="1061" y="362"/>
      <point x="993" y="362" type="curve" smooth="yes"/>
      <point x="950" y="362"/>
      <point x="930" y="383"/>
      <point x="930" y="424" type="curve" smooth="yes" name=".hr01"/>
      <point x="930" y="444"/>
      <point x="936.293" y="476.911"/>
      <point x="950" y="522" type="curve" smooth="yes"/>
      <point x="1026" y="772" type="line" smooth="yes"/>
      <point x="1039.07" y="814.98"/>
      <point x="1026" y="836"/>
      <point x="989" y="836" type="curve" smooth="yes"/>
      <point x="956" y="836"/>
      <point x="936.236" y="820.931"/>
      <point x="928" y="793" type="curve" smooth="yes"/>
      <point x="905" y="715" type="line"/>
      <point x="899" y="803"/>
      <point x="823" y="860"/>
      <point x="733" y="860" type="curve" smooth="yes"/>
      <point x="651" y="860"/>
      <point x="579.95" y="819.037"/>
      <point x="520" y="737" type="curve" smooth="yes"/>
      <point x="465.951" y="663.037"/>
      <point x="438" y="584.003"/>
      <point x="438" y="500" type="curve" smooth="yes"/>
      <point x="438" y="370.995"/>
      <point x="511.995" y="272"/>
      <point x="637" y="272" type="curve" smooth="yes"/>
      <point x="733.003" y="272"/>
      <point x="805" y="322"/>
      <point x="852" y="422" type="curve"/>
      <point x="850" y="408"/>
      <point x="848" y="397"/>
      <point x="848" y="387" type="curve" smooth="yes"/>
      <point x="848" y="311"/>
      <point x="893" y="272"/>
      <point x="985" y="272" type="curve" smooth="yes"/>
      <point x="1077" y="272"/>
      <point x="1155.48" y="314.664"/>
      <point x="1217" y="403" type="curve" smooth="yes"/>
      <point x="1272.48" y="482.667"/>
      <point x="1300" y="569"/>
    </contour>
  </outline>
</glyph>
<glyph name="F" format="2">
  <advance width="1126"/>
  <unicode hex="0046"/>
  <outline>
    <contour>
      <point x="981" y="1280" type="curve"/>
      <point x="979" y="1315"/>
      <point x="961" y="1331"/>
      <point x="930" y="1331" type="curve" smooth="yes"/>
      <point x="154" y="1331" type="line" smooth="yes"/>
      <point x="119" y="1331"/>
      <point x="102" y="1315"/>
      <point x="102" y="1280" type="curve" smooth="yes"/>
      <point x="102" y="51" type="line" smooth="yes"/>
      <point x="102" y="20"/>
      <point x="119" y="2"/>
      <point x="154" y="0" type="curve"/>
      <point x="188" y="2"/>
      <point x="205" y="20"/>
      <point x="205" y="51" type="curve" smooth="yes"/>
      <point x="205" y="633" type="line"/>
      <point x="639" y="633" type="line" smooth="yes"/>
      <point x="670" y="633"/>
      <point x="688" y="649"/>
      <point x="690" y="684" type="curve"/>
      <point x="688" y="719"/>
      <point x="670" y="735"/>
      <point x="639" y="735" type="curve" smooth="yes"/>
      <point x="205" y="735" type="line"/>
      <point x="205" y="1229" type="line"/>
      <point x="930" y="1229" type="line" smooth="yes"/>
      <point x="961" y="1229"/>
      <point x="979" y="1245"/>
    </contour>
  </outline>
</glyph>
<glyph name="N" format="2">
  <advance width="1229"/>
  <unicode hex="004E"/>
  <outline>
    <contour>
      <point x="1157" y="1280" type="line" smooth="yes"/>
      <point x="1157" y="1311"/>
      <point x="1141" y="1329"/>
      <point x="1106" y="1331" type="curve"/>
      <point x="1071" y="1329"/>
      <point x="1055" y="1311"/>
      <point x="1055" y="1280" type="curve" smooth="yes"/>
      <point x="1055" y="199" type="line"/>
      <point x="197" y="1311" type="line"/>
      <point x="178" y="1325"/>
      <point x="164" y="1333"/>
      <point x="154" y="1331" type="curve"/>
      <point x="119" y="1329"/>
      <point x="102" y="1311"/>
      <point x="102" y="1280" type="curve" smooth="yes"/>
      <point x="102" y="51" type="line" smooth="yes"/>
      <point x="102" y="20"/>
      <point x="119" y="2"/>
      <point x="154" y="0" type="curve"/>
      <point x="188" y="2"/>
      <point x="205" y="20"/>
      <point x="205" y="51" type="curve" smooth="yes"/>
      <point x="205" y="1133" type="line"/>
      <point x="1061" y="27" type="line"/>
      <point x="1071" y="8"/>
      <point x="1085" y="0"/>
      <point x="1106" y="0" type="curve" smooth="yes"/>
      <point x="1141" y="0"/>
      <point x="1157" y="16"/>
      <point x="1157" y="51" type="curve" smooth="yes"/>
    </contour>
  </outline>
</glyph>
<glyph name="U" format="2">
  <advance width="1229"/>
  <unicode hex="0055"/>
  <outline>
    <contour>
      <point x="1065" y="1282" type="line" smooth="yes"/>
      <point x="1065" y="1313"/>
      <point x="1049" y="1331"/>
      <point x="1014" y="1333" type="curve"/>
      <point x="979" y="1331"/>
      <point x="963" y="1313"/>
      <point x="963" y="1282" type="curve" smooth="yes"/>
      <point x="963" y="479" type="line" smooth="yes"/>
      <point x="963" y="374.993"/>
      <point x="925.998" y="284.998"/>
      <point x="852" y="211" type="curve" smooth="yes"/>
      <point x="780.002" y="139.002"/>
      <point x="690.004" y="102"/>
      <point x="584" y="102" type="curve" smooth="yes"/>
      <point x="476.996" y="102"/>
      <point x="385.748" y="137.75"/>
      <point x="313" y="211" type="curve" smooth="yes"/>
      <point x="240.748" y="283.75"/>
      <point x="205" y="374.997"/>
      <point x="205" y="481" type="curve" smooth="yes"/>
      <point x="205" y="1280" type="line" smooth="yes"/>
      <point x="205" y="1311"/>
      <point x="188" y="1329"/>
      <point x="154" y="1331" type="curve"/>
      <point x="119" y="1329"/>
      <point x="102" y="1311"/>
      <point x="102" y="1280" type="curve" smooth="yes"/>
      <point x="102" y="481" type="line" smooth="yes"/>
      <point x="102" y="345.996"/>
      <point x="150" y="231"/>
      <point x="242" y="139" type="curve" smooth="yes"/>
      <point x="334" y="47"/>
      <point x="449" y="0"/>
      <point x="584" y="0" type="curve" smooth="yes"/>
      <point x="717" y="0"/>
      <point x="831.506" y="47.501"/>
      <point x="924" y="139" type="curve" smooth="yes"/>
      <point x="1017.51" y="231.501"/>
      <point x="1065" y="345.991"/>
      <point x="1065" y="479" type="curve" smooth="yes"/>
    </contour>
  </outline>
</glyph>
<glyph name="W" format="2">
  <advance width="2048"/>
  <unicode hex="0057"/>
  <outline>
    <contour>
      <point x="1972" y="1282" type="curve" smooth="yes"/>
      <point x="1972" y="1303"/>
      <point x="1960" y="1317"/>
      <point x="1937" y="1327" type="curve"/>
      <point x="1905" y="1337"/>
      <point x="1882.47" y="1326.84"/>
      <point x="1872" y="1298" type="curve" smooth="yes"/>
      <point x="1473" y="199" type="line"/>
      <point x="1073" y="1298" type="line" smooth="yes"/>
      <point x="1064.67" y="1320.88"/>
      <point x="1049" y="1333"/>
      <point x="1024" y="1331" type="curve"/>
      <point x="999" y="1333"/>
      <point x="983.329" y="1320.88"/>
      <point x="975" y="1298" type="curve" smooth="yes"/>
      <point x="575" y="199" type="line"/>
      <point x="176" y="1298" type="line" smooth="yes"/>
      <point x="165.531" y="1326.83"/>
      <point x="143" y="1337"/>
      <point x="111" y="1327" type="curve"/>
      <point x="88" y="1317"/>
      <point x="76" y="1303"/>
      <point x="76" y="1282" type="curve" smooth="yes"/>
      <point x="76" y="1276"/>
      <point x="78" y="1270"/>
      <point x="80" y="1262" type="curve"/>
      <point x="526" y="33" type="line" smooth="yes"/>
      <point x="534.307" y="10.1092"/>
      <point x="551" y="-2"/>
      <point x="575" y="0" type="curve"/>
      <point x="600" y="-2"/>
      <point x="616.696" y="10.107"/>
      <point x="625" y="33" type="curve" smooth="yes"/>
      <point x="1024" y="1133" type="line"/>
      <point x="1423" y="33" type="line" smooth="yes"/>
      <point x="1431.3" y="10.107"/>
      <point x="1448" y="-2"/>
      <point x="1473" y="0" type="curve"/>
      <point x="1497" y="-2"/>
      <point x="1513.69" y="10.1093"/>
      <point x="1522" y="33" type="curve" smooth="yes"/>
      <point x="1968" y="1262" type="line"/>
      <point x="1970" y="1270"/>
      <point x="1972" y="1276"/>
    </contour>
  </outline>
</glyph>
<glyph name="underscore" format="2">
  <advance width="1024"/>
  <unicode hex="005F"/>
  <outline>
    <contour>
      <point x="1032" y="-143" type="line"/>
      <point x="-4" y="-143" type="line"/>
      <point x="-4" y="-246" type="line"/>
      <point x="1032" y="-246" type="line"/>
    </contour>
  </outline>
</glyph>
<glyph name="i" format="2">
  <advance width="307"/>
  <unicode hex="0069"/>
  <outline>
    <contour>
      <point x="205" y="633" type="line" smooth="yes"/>
      <point x="205" y="664"/>
      <point x="188" y="682"/>
      <point x="154" y="684" type="curve"/>
      <point x="119" y="682"/>
      <point x="102" y="664"/>
      <point x="102" y="633" type="curve" smooth="yes"/>
      <point x="102" y="51" type="line" smooth="yes"/>
      <point x="102" y="20"/>
      <point x="119" y="2"/>
      <point x="154" y="0" type="curve"/>
      <point x="188" y="2"/>
      <point x="205" y="20"/>
      <point x="205" y="51" type="curve" smooth="yes"/>
    </contour>
    <contour>
      <point x="213" y="1004" type="curve" smooth="yes" name=".hr01"/>
      <point x="213" y="1042"/>
      <point x="193" y="1063"/>
      <point x="154" y="1063" type="curve" smooth="yes"/>
      <point x="115" y="1063"/>
      <point x="94" y="1042"/>
      <point x="94" y="1004" type="curve" smooth="yes"/>
      <point x="94" y="965"/>
      <point x="115" y="944"/>
      <point x="154" y="944" type="curve" smooth="yes"/>
      <point x="193" y="944"/>
      <point x="213" y="965"/>
    </contour>
  </outline>
</glyph>
<glyph name="k" format="2">
  <advance width="819"/>
  <unicode hex="006B"/>
  <outline>
    <contour>
      <point x="670" y="20" type="curve" smooth="yes"/>
      <point x="689.351" y="48.766"/>
      <point x="684.005" y="73.0075"/>
      <point x="657" y="92" type="curve" smooth="yes"/>
      <point x="293" y="348" type="line"/>
      <point x="633" y="586" type="line" smooth="yes"/>
      <point x="658.906" y="604.135"/>
      <point x="663.887" y="628.924"/>
      <point x="645" y="657" type="curve" smooth="yes"/>
      <point x="626.888" y="683.924"/>
      <point x="601.102" y="689.854"/>
      <point x="573" y="670" type="curve" smooth="yes"/>
      <point x="205" y="410" type="line"/>
      <point x="205" y="1280" type="line" smooth="yes"/>
      <point x="205" y="1311"/>
      <point x="188" y="1329"/>
      <point x="154" y="1331" type="curve"/>
      <point x="119" y="1329"/>
      <point x="102" y="1311"/>
      <point x="102" y="1280" type="curve" smooth="yes"/>
      <point x="102" y="51" type="line" smooth="yes"/>
      <point x="102" y="20"/>
      <point x="119" y="2"/>
      <point x="154" y="0" type="curve"/>
      <point x="188" y="2"/>
      <point x="205" y="20"/>
      <point x="205" y="51" type="curve" smooth="yes"/>
      <point x="205" y="285" type="line"/>
      <point x="598" y="8" type="line" smooth="yes"/>
      <point x="625.659" y="-11.4947"/>
      <point x="652.349" y="-6.23875"/>
    </contour>
  </outline>
</glyph>
<glyph name="o" format="2">
  <advance width="819"/>
  <unicode hex="006F"/>
  <outline>
    <contour>
      <point x="614" y="342" type="curve" smooth="yes"/>
      <point x="614" y="283"/>
      <point x="594" y="229"/>
      <point x="555" y="178" type="curve" smooth="yes"/>
      <point x="516" y="127"/>
      <point x="467" y="102"/>
      <point x="410" y="102" type="curve" smooth="yes"/>
      <point x="352" y="102"/>
      <point x="303" y="127"/>
      <point x="264" y="178" type="curve" smooth="yes"/>
      <point x="225" y="229"/>
      <point x="205" y="283"/>
      <point x="205" y="342" type="curve" smooth="yes"/>
      <point x="205" y="401"/>
      <point x="225" y="455"/>
      <point x="264" y="506" type="curve" smooth="yes"/>
      <point x="303" y="557"/>
      <point x="352" y="582"/>
      <point x="410" y="582" type="curve" smooth="yes"/>
      <point x="469" y="582"/>
      <point x="518.249" y="555.2"/>
      <point x="559" y="504" type="curve" smooth="yes"/>
      <point x="596.251" y="457.197"/>
      <point x="614" y="401"/>
    </contour>
    <contour>
      <point x="717" y="342" type="curve" smooth="yes"/>
      <point x="717" y="434"/>
      <point x="688.236" y="512.196"/>
      <point x="633" y="578" type="curve" smooth="yes"/>
      <point x="573.235" y="649.199"/>
      <point x="500" y="684"/>
      <point x="410" y="684" type="curve" smooth="yes"/>
      <point x="322" y="684"/>
      <point x="247.451" y="649.613"/>
      <point x="188" y="580" type="curve" smooth="yes"/>
      <point x="130.451" y="512.614"/>
      <point x="102" y="432"/>
      <point x="102" y="342" type="curve" smooth="yes"/>
      <point x="102" y="252"/>
      <point x="130.86" y="173.884"/>
      <point x="188" y="106" type="curve" smooth="yes"/>
      <point x="247.862" y="34.8812"/>
      <point x="322" y="0"/>
      <point x="410" y="0" type="curve" smooth="yes"/>
      <point x="498" y="0"/>
      <point x="571.137" y="34.8812"/>
      <point x="631" y="106" type="curve" smooth="yes"/>
      <point x="688.14" y="173.884"/>
      <point x="717" y="252"/>
    </contour>
  </outline>
</glyph>
<glyph name="p" format="2">
  <advance width="819"/>
  <unicode hex="0070"/>
  <outline>
    <contour>
      <point x="614" y="342" type="curve" smooth="yes"/>
      <point x="614" y="283"/>
      <point x="594" y="229"/>
      <point x="555" y="178" type="curve" smooth="yes"/>
      <point x="516" y="127"/>
      <point x="467" y="102"/>
      <point x="410" y="102" type="curve" smooth="yes"/>
      <point x="352" y="102"/>
      <point x="303" y="127"/>
      <point x="264" y="178" type="curve" smooth="yes"/>
      <point x="225" y="229"/>
      <point x="205" y="283"/>
      <point x="205" y="342" type="curve" smooth="yes"/>
      <point x="205" y="401"/>
      <point x="225" y="455"/>
      <point x="264" y="506" type="curve" smooth="yes"/>
      <point x="303" y="557"/>
      <point x="352" y="582"/>
      <point x="410" y="582" type="curve" smooth="yes"/>
      <point x="469" y="582"/>
      <point x="518.249" y="555.2"/>
      <point x="559" y="504" type="curve" smooth="yes"/>
      <point x="596.251" y="457.197"/>
      <point x="614" y="401"/>
    </contour>
    <contour>
      <point x="717" y="342" type="curve" smooth="yes"/>
      <point x="717" y="434"/>
      <point x="688.236" y="512.196"/>
      <point x="633" y="578" type="curve" smooth="yes"/>
      <point x="573.235" y="649.199"/>
      <point x="500" y="684"/>
      <point x="410" y="684" type="curve" smooth="yes"/>
      <point x="330" y="684"/>
      <point x="262" y="653"/>
      <point x="205" y="594" type="curve"/>
      <point x="205" y="633" type="line" smooth="yes"/>
      <point x="205" y="664"/>
      <point x="188" y="682"/>
      <point x="154" y="684" type="curve"/>
      <point x="119" y="682"/>
      <point x="102" y="664"/>
      <point x="102" y="633" type="curve" smooth="yes"/>
      <point x="102" y="-596" type="line" smooth="yes"/>
      <point x="102" y="-627"/>
      <point x="119" y="-645"/>
      <point x="154" y="-647" type="curve"/>
      <point x="188" y="-645"/>
      <point x="205" y="-627"/>
      <point x="205" y="-596" type="curve" smooth="yes"/>
      <point x="205" y="90" type="line"/>
      <point x="262" y="31"/>
      <point x="330" y="0"/>
      <point x="410" y="0" type="curve" smooth="yes"/>
      <point x="498" y="0"/>
      <point x="571.137" y="34.8812"/>
      <point x="631" y="106" type="curve" smooth="yes"/>
      <point x="688.14" y="173.884"/>
      <point x="717" y="252"/>
    </contour>
  </outline>
</glyph>
<glyph name="s" format="2">
  <advance width="819"/>
  <unicode hex="0073"/>
  <outline>
    <contour>
      <point x="651" y="229" type="curve" smooth="yes"/>
      <point x="651" y="289.002"/>
      <point x="616" y="332"/>
      <point x="549" y="358" type="curve"/>
      <point x="358" y="408" type="line" smooth="yes"/>
      <point x="290.885" y="425.569"/>
      <point x="256" y="453"/>
      <point x="256" y="489" type="curve" smooth="yes"/>
      <point x="256" y="537"/>
      <point x="322" y="582"/>
      <point x="371" y="582" type="curve" smooth="yes"/>
      <point x="444" y="582"/>
      <point x="497.417" y="562.353"/>
      <point x="528" y="526" type="curve" smooth="yes"/>
      <point x="550.421" y="499.349"/>
      <point x="573.244" y="497.704"/>
      <point x="600" y="520" type="curve" smooth="yes"/>
      <point x="627.247" y="542.706"/>
      <point x="629.8" y="565.819"/>
      <point x="606" y="592" type="curve" smooth="yes"/>
      <point x="549.802" y="653.818"/>
      <point x="471" y="684"/>
      <point x="375" y="684" type="curve" smooth="yes"/>
      <point x="319" y="684"/>
      <point x="267.584" y="664.495"/>
      <point x="221" y="625" type="curve" smooth="yes"/>
      <point x="175.578" y="586.491"/>
      <point x="154" y="543"/>
      <point x="154" y="496" type="curve" smooth="yes"/>
      <point x="154" y="424"/>
      <point x="188.969" y="372.942"/>
      <point x="256" y="338" type="curve" smooth="yes"/>
      <point x="282.969" y="323.942"/>
      <point x="346.011" y="305.021"/>
      <point x="446" y="283" type="curve" smooth="yes"/>
      <point x="514.003" y="268.023"/>
      <point x="549" y="246"/>
      <point x="549" y="219" type="curve" smooth="yes"/>
      <point x="549" y="152"/>
      <point x="479" y="102"/>
      <point x="408" y="102" type="curve" smooth="yes"/>
      <point x="362" y="102"/>
      <point x="320.142" y="115.255"/>
      <point x="281" y="137" type="curve" smooth="yes"/>
      <point x="266.139" y="145.256"/>
      <point x="231.212" y="170.276"/>
      <point x="176" y="213" type="curve" smooth="yes"/>
      <point x="147.212" y="235.276"/>
      <point x="123" y="236"/>
      <point x="104" y="213" type="curve"/>
      <point x="94" y="203"/>
      <point x="90" y="190"/>
      <point x="90" y="176" type="curve" smooth="yes"/>
      <point x="90" y="158"/>
      <point x="98.2935" y="143.358"/>
      <point x="113" y="131" type="curve" smooth="yes"/>
      <point x="217.3" y="43.3528"/>
      <point x="315" y="0"/>
      <point x="410" y="0" type="curve" smooth="yes"/>
      <point x="543" y="0"/>
      <point x="651" y="97.9948"/>
    </contour>
  </outline>
</glyph>
<glyph name="u" format="2">
  <advance width="819"/>
  <unicode hex="0075"/>
  <outline>
    <contour>
      <point x="645" y="633" type="line" smooth="yes"/>
      <point x="645" y="664"/>
      <point x="629" y="682"/>
      <point x="594" y="684" type="curve"/>
      <point x="559" y="682"/>
      <point x="543" y="664"/>
      <point x="543" y="633" type="curve" smooth="yes"/>
      <point x="543" y="223" type="line"/>
      <point x="520" y="143"/>
      <point x="465.004" y="102"/>
      <point x="373" y="102" type="curve" smooth="yes"/>
      <point x="275.996" y="102"/>
      <point x="219" y="143"/>
      <point x="205" y="223" type="curve"/>
      <point x="205" y="631" type="line" smooth="yes"/>
      <point x="205" y="662"/>
      <point x="188" y="680"/>
      <point x="154" y="682" type="curve"/>
      <point x="119" y="680"/>
      <point x="102" y="662.002"/>
      <point x="102" y="631" type="curve" smooth="yes"/>
      <point x="102" y="252" type="line" smooth="yes"/>
      <point x="102" y="89.9897"/>
      <point x="209" y="0"/>
      <point x="373" y="0" type="curve" smooth="yes"/>
      <point x="449" y="0"/>
      <point x="506" y="18"/>
      <point x="543" y="53" type="curve"/>
      <point x="543" y="51" type="line" smooth="yes"/>
      <point x="543" y="16"/>
      <point x="559" y="0"/>
      <point x="594" y="0" type="curve" smooth="yes"/>
      <point x="629" y="0"/>
      <point x="645" y="16"/>
      <point x="645" y="51" type="curve" smooth="yes"/>
    </contour>
  </outline>
</glyph>
<glyph name="Agrave" format="2">
  <advance width="1331"/>
  <unicode hex="00C0"/>
  <outline>
    <contour>
      <point x="481" y="567" type="line"/>
      <point x="645" y="881" type="line"/>
      <point x="811" y="567" type="line"/>
    </contour>
    <contour>
      <point x="1192" y="51" type="curve" smooth="yes"/>
      <point x="1192" y="59"/>
      <point x="1190" y="68"/>
      <point x="1184" y="76" type="curve"/>
      <point x="698" y="1001" type="line" smooth="yes"/>
      <point x="681.774" y="1031.88"/>
      <point x="664" y="1049"/>
      <point x="645" y="1049" type="curve" smooth="yes"/>
      <point x="627" y="1049"/>
      <point x="609.156" y="1031.92"/>
      <point x="592" y="999" type="curve" smooth="yes"/>
      <point x="111" y="76" type="line"/>
      <point x="104" y="68"/>
      <point x="102" y="59"/>
      <point x="102" y="51" type="curve" smooth="yes"/>
      <point x="102" y="33"/>
      <point x="113" y="18"/>
      <point x="131" y="6" type="curve"/>
      <point x="141" y="2"/>
      <point x="150" y="0"/>
      <point x="158" y="0" type="curve" smooth="yes"/>
      <point x="176" y="0"/>
      <point x="191.085" y="9.95525"/>
      <point x="201" y="29" type="curve" smooth="yes"/>
      <point x="428" y="465" type="line"/>
      <point x="864" y="465" type="line"/>
      <point x="1094" y="29" type="line" smooth="yes"/>
      <point x="1104.02" y="10.0098"/>
      <point x="1118" y="0"/>
      <point x="1137" y="0" type="curve" smooth="yes"/>
      <point x="1145" y="0"/>
      <point x="1153" y="2"/>
      <point x="1163" y="6" type="curve"/>
      <point x="1182" y="18"/>
      <point x="1192" y="33"/>
    </contour>
    <contour>
      <point x="743" y="1161" type="curve" smooth="yes"/>
      <point x="743" y="1174"/>
      <point x="737.069" y="1186.07"/>
      <point x="727" y="1196" type="curve" smooth="yes"/>
      <point x="582" y="1339" type="line" smooth="yes"/>
      <point x="570.924" y="1349.92"/>
      <point x="559" y="1356"/>
      <point x="547" y="1356" type="curve" smooth="yes"/>
      <point x="520" y="1356"/>
      <point x="494" y="1329"/>
      <point x="494" y="1303" type="curve" smooth="yes"/>
      <point x="494" y="1290"/>
      <point x="499.965" y="1277.97"/>
      <point x="510" y="1268" type="curve" smooth="yes"/>
      <point x="655" y="1124" type="line" smooth="yes"/>
      <point x="665.548" y="1113.52"/>
      <point x="678" y="1108"/>
      <point x="690" y="1108" type="curve" smooth="yes"/>
      <point x="715" y="1108"/>
      <point x="743" y="1137"/>
    </contour>
  </outline>
</glyph>
<glyph name="Acircumflex" format="2">
  <advance width="1331"/>
  <unicode hex="00C2"/>
  <outline>
    <contour>
      <point x="481" y="567" type="line"/>
      <point x="645" y="881" type="line"/>
      <point x="811" y="567" type="line"/>
    </contour>
    <contour>
      <point x="1192" y="51" type="curve" smooth="yes"/>
      <point x="1192" y="59"/>
      <point x="1190" y="68"/>
      <point x="1184" y="76" type="curve"/>
      <point x="698" y="1001" type="line" smooth="yes"/>
      <point x="681.774" y="1031.88"/>
      <point x="664" y="1049"/>
      <point x="645" y="1049" type="curve" smooth="yes"/>
      <point x="627" y="1049"/>
      <point x="609.156" y="1031.92"/>
      <point x="592" y="999" type="curve" smooth="yes"/>
      <point x="111" y="76" type="line"/>
      <point x="104" y="68"/>
      <point x="102" y="59"/>
      <point x="102" y="51" type="curve" smooth="yes"/>
      <point x="102" y="33"/>
      <point x="113" y="18"/>
      <point x="131" y="6" type="curve"/>
      <point x="141" y="2"/>
      <point x="150" y="0"/>
      <point x="158" y="0" type="curve" smooth="yes"/>
      <point x="176" y="0"/>
      <point x="191.085" y="9.95525"/>
      <point x="201" y="29" type="curve" smooth="yes"/>
      <point x="428" y="465" type="line"/>
      <point x="864" y="465" type="line"/>
      <point x="1094" y="29" type="line" smooth="yes"/>
      <point x="1104.02" y="10.0098"/>
      <point x="1118" y="0"/>
      <point x="1137" y="0" type="curve" smooth="yes"/>
      <point x="1145" y="0"/>
      <point x="1153" y="2"/>
      <point x="1163" y="6" type="curve"/>
      <point x="1182" y="18"/>
      <point x="1192" y="33"/>
    </contour>
    <contour>
      <point x="932" y="1069" type="curve" smooth="yes"/>
      <point x="932" y="1081"/>
      <point x="926" y="1093"/>
      <point x="915" y="1104" type="curve" smooth="yes"/>
      <point x="682" y="1337" type="line"/>
      <point x="668" y="1348"/>
      <point x="655" y="1354"/>
      <point x="647" y="1354" type="curve" smooth="yes"/>
      <point x="645" y="1354" type="line" smooth="yes"/>
      <point x="633" y="1354"/>
      <point x="621" y="1348"/>
      <point x="610" y="1337" type="curve" smooth="yes"/>
      <point x="377" y="1104" type="line" smooth="yes"/>
      <point x="367" y="1094"/>
      <point x="360" y="1081"/>
      <point x="360" y="1069" type="curve" smooth="yes"/>
      <point x="360" y="1044"/>
      <point x="389" y="1016"/>
      <point x="414" y="1016" type="curve" smooth="yes"/>
      <point x="426" y="1016"/>
      <point x="438.461" y="1021.51"/>
      <point x="449" y="1032" type="curve" smooth="yes"/>
      <point x="647" y="1229" type="line"/>
      <point x="844" y="1032" type="line" smooth="yes"/>
      <point x="854" y="1022"/>
      <point x="866" y="1016"/>
      <point x="879" y="1016" type="curve" smooth="yes"/>
      <point x="903" y="1016"/>
      <point x="932" y="1044"/>
    </contour>
  </outline>
</glyph>
<glyph name="Aring" format="2">
  <advance width="1331"/>
  <unicode hex="00C5"/>
  <outline>
    <contour>
      <point x="481" y="567" type="line"/>
      <point x="645" y="881" type="line"/>
      <point x="811" y="567" type="line"/>
    </contour>
    <contour>
      <point x="709" y="1243" type="curve" smooth="yes"/>
      <point x="709" y="1200"/>
      <point x="688" y="1180"/>
      <point x="647" y="1180" type="curve" smooth="yes"/>
      <point x="604" y="1180"/>
      <point x="584" y="1200"/>
      <point x="584" y="1243" type="curve" smooth="yes"/>
      <point x="584" y="1284"/>
      <point x="604" y="1305"/>
      <point x="647" y="1305" type="curve" smooth="yes"/>
      <point x="688" y="1305"/>
      <point x="709" y="1284"/>
    </contour>
    <contour>
      <point x="1192" y="51" type="curve" smooth="yes"/>
      <point x="1192" y="59"/>
      <point x="1190" y="68"/>
      <point x="1184" y="76" type="curve"/>
      <point x="698" y="1001" type="line" smooth="yes"/>
      <point x="681.774" y="1031.88"/>
      <point x="664" y="1049"/>
      <point x="645" y="1049" type="curve" smooth="yes"/>
      <point x="627" y="1049"/>
      <point x="609.156" y="1031.92"/>
      <point x="592" y="999" type="curve" smooth="yes"/>
      <point x="111" y="76" type="line"/>
      <point x="104" y="68"/>
      <point x="102" y="59"/>
      <point x="102" y="51" type="curve" smooth="yes"/>
      <point x="102" y="33"/>
      <point x="113" y="18"/>
      <point x="131" y="6" type="curve"/>
      <point x="141" y="2"/>
      <point x="150" y="0"/>
      <point x="158" y="0" type="curve" smooth="yes"/>
      <point x="176" y="0"/>
      <point x="191.085" y="9.95525"/>
      <point x="201" y="29" type="curve" smooth="yes"/>
      <point x="428" y="465" type="line"/>
      <point x="864" y="465" type="line"/>
      <point x="1094" y="29" type="line" smooth="yes"/>
      <point x="1104.02" y="10.0098"/>
      <point x="1118" y="0"/>
      <point x="1137" y="0" type="curve" smooth="yes"/>
      <point x="1145" y="0"/>
      <point x="1153" y="2"/>
      <point x="1163" y="6" type="curve"/>
      <point x="1182" y="18"/>
      <point x="1192" y="33"/>
    </contour>
    <contour>
      <point x="772" y="1243" type="curve" smooth="yes"/>
      <point x="772" y="1311"/>
      <point x="715" y="1368"/>
      <point x="647" y="1368" type="curve" smooth="yes"/>
      <point x="580" y="1368"/>
      <point x="522" y="1311"/>
      <point x="522" y="1243" type="curve" smooth="yes"/>
      <point x="522" y="1176"/>
      <point x="580" y="1118"/>
      <point x="647" y="1118" type="curve" smooth="yes"/>
      <point x="715" y="1118"/>
      <point x="772" y="1176"/>
    </contour>
  </outline>
</glyph>
<glyph name="AE" format="2">
  <advance width="1843"/>
  <unicode hex="00C6"/>
  <outline>
    <contour>
      <point x="528" y="735" type="line"/>
      <point x="676" y="1049" type="line"/>
      <point x="676" y="735" type="line"/>
    </contour>
    <contour>
      <point x="1554" y="51" type="curve"/>
      <point x="1552" y="86"/>
      <point x="1534" y="102"/>
      <point x="1503" y="102" type="curve" smooth="yes"/>
      <point x="778" y="102" type="line"/>
      <point x="778" y="633" type="line"/>
      <point x="1212" y="633" type="line" smooth="yes"/>
      <point x="1243" y="633"/>
      <point x="1262" y="649"/>
      <point x="1264" y="684" type="curve"/>
      <point x="1262" y="719"/>
      <point x="1243" y="735"/>
      <point x="1212" y="735" type="curve" smooth="yes"/>
      <point x="778" y="735" type="line"/>
      <point x="778" y="1229" type="line"/>
      <point x="1503" y="1229" type="line" smooth="yes"/>
      <point x="1534" y="1229"/>
      <point x="1552" y="1245"/>
      <point x="1554" y="1280" type="curve"/>
      <point x="1552" y="1315"/>
      <point x="1534" y="1331"/>
      <point x="1503" y="1331" type="curve" smooth="yes"/>
      <point x="727" y="1331" type="line" smooth="yes"/>
      <point x="696" y="1331"/>
      <point x="678" y="1317"/>
      <point x="676" y="1290" type="curve"/>
      <point x="672" y="1282" type="line"/>
      <point x="109" y="76" type="line" smooth="yes"/>
      <point x="104.834" y="67.0752"/>
      <point x="102" y="59"/>
      <point x="102" y="53" type="curve" smooth="yes"/>
      <point x="102" y="35"/>
      <point x="112.021" y="17.0497"/>
      <point x="133" y="8" type="curve" smooth="yes"/>
      <point x="163.021" y="-4.95025"/>
      <point x="187.382" y="3.819"/>
      <point x="201" y="33" type="curve" smooth="yes"/>
      <point x="481" y="633" type="line"/>
      <point x="676" y="633" type="line"/>
      <point x="676" y="51" type="line" smooth="yes"/>
      <point x="676" y="16"/>
      <point x="692" y="0"/>
      <point x="727" y="0" type="curve" smooth="yes"/>
      <point x="1503" y="0" type="line" smooth="yes"/>
      <point x="1534" y="0"/>
      <point x="1552" y="16"/>
    </contour>
  </outline>
</glyph>
<glyph name="Edieresis" format="2">
  <advance width="1024"/>
  <unicode hex="00CB"/>
  <outline>
    <contour>
      <point x="825" y="51" type="curve"/>
      <point x="823" y="86"/>
      <point x="805" y="102"/>
      <point x="774" y="102" type="curve" smooth="yes"/>
      <point x="205" y="102" type="line"/>
      <point x="205" y="506" type="line"/>
      <point x="543" y="506" type="line" smooth="yes"/>
      <point x="573" y="506"/>
      <point x="592" y="522"/>
      <point x="594" y="557" type="curve"/>
      <point x="592" y="592"/>
      <point x="573" y="608"/>
      <point x="543" y="608" type="curve" smooth="yes"/>
      <point x="205" y="608" type="line"/>
      <point x="205" y="983" type="line"/>
      <point x="774" y="983" type="line" smooth="yes"/>
      <point x="805" y="983"/>
      <point x="823" y="999"/>
      <point x="825" y="1034" type="curve"/>
      <point x="823" y="1069"/>
      <point x="805" y="1085"/>
      <point x="774" y="1085" type="curve" smooth="yes"/>
      <point x="154" y="1085" type="line" smooth="yes"/>
      <point x="119" y="1085"/>
      <point x="102" y="1069"/>
      <point x="102" y="1034" type="curve" smooth="yes"/>
      <point x="102" y="51" type="line" smooth="yes"/>
      <point x="102" y="16"/>
      <point x="119" y="0"/>
      <point x="154" y="0" type="curve" smooth="yes"/>
      <point x="774" y="0" type="line" smooth="yes"/>
      <point x="805" y="0"/>
      <point x="823" y="16"/>
    </contour>
    <contour>
      <point x="377" y="1229" type="curve" smooth="yes"/>
      <point x="377" y="1270"/>
      <point x="356" y="1290"/>
      <point x="315" y="1290" type="curve" smooth="yes"/>
      <point x="272" y="1290"/>
      <point x="252" y="1270"/>
      <point x="252" y="1229" type="curve" smooth="yes"/>
      <point x="252" y="1186"/>
      <point x="272" y="1165"/>
      <point x="315" y="1165" type="curve" smooth="yes"/>
      <point x="356" y="1165"/>
      <point x="377" y="1186"/>
    </contour>
    <contour>
      <point x="694" y="1229" type="curve" smooth="yes"/>
      <point x="694" y="1270"/>
      <point x="674" y="1290"/>
      <point x="633" y="1290" type="curve" smooth="yes"/>
      <point x="590" y="1290"/>
      <point x="569" y="1270"/>
      <point x="569" y="1229" type="curve" smooth="yes"/>
      <point x="569" y="1186"/>
      <point x="590" y="1165"/>
      <point x="633" y="1165" type="curve" smooth="yes"/>
      <point x="674" y="1165"/>
      <point x="694" y="1186"/>
    </contour>
  </outline>
</glyph>
<glyph name="Iacute" format="2">
  <advance width="717"/>
  <unicode hex="00CD"/>
  <outline>
    <contour>
      <point x="489" y="51" type="curve"/>
      <point x="487" y="86"/>
      <point x="469" y="102"/>
      <point x="438" y="102" type="curve" smooth="yes"/>
      <point x="352" y="102" type="line"/>
      <point x="352" y="1006" type="line"/>
      <point x="428" y="1006" type="line" smooth="yes"/>
      <point x="459" y="1006"/>
      <point x="477" y="1022"/>
      <point x="479" y="1057" type="curve"/>
      <point x="477" y="1092"/>
      <point x="459" y="1108"/>
      <point x="428" y="1108" type="curve" smooth="yes"/>
      <point x="154" y="1108" type="line" smooth="yes"/>
      <point x="123" y="1108"/>
      <point x="104" y="1092"/>
      <point x="102" y="1057" type="curve"/>
      <point x="104" y="1022"/>
      <point x="123" y="1006"/>
      <point x="154" y="1006" type="curve" smooth="yes"/>
      <point x="250" y="1006" type="line"/>
      <point x="250" y="102" type="line"/>
      <point x="164" y="102" type="line" smooth="yes"/>
      <point x="133" y="102"/>
      <point x="115" y="86"/>
      <point x="113" y="51" type="curve"/>
      <point x="115" y="16"/>
      <point x="133" y="0"/>
      <point x="164" y="0" type="curve" smooth="yes"/>
      <point x="438" y="0" type="line" smooth="yes"/>
      <point x="469" y="0"/>
      <point x="487" y="16"/>
    </contour>
    <contour>
      <point x="426" y="1313" type="curve" smooth="yes"/>
      <point x="426" y="1339"/>
      <point x="399" y="1366"/>
      <point x="373" y="1366" type="curve" smooth="yes"/>
      <point x="360" y="1366"/>
      <point x="348.035" y="1359.97"/>
      <point x="338" y="1350" type="curve" smooth="yes"/>
      <point x="193" y="1206" type="line" smooth="yes"/>
      <point x="182.452" y="1195.52"/>
      <point x="176" y="1184"/>
      <point x="176" y="1171" type="curve" smooth="yes"/>
      <point x="176" y="1147"/>
      <point x="205" y="1118"/>
      <point x="229" y="1118" type="curve" smooth="yes"/>
      <point x="242" y="1118"/>
      <point x="253.38" y="1124.6"/>
      <point x="264" y="1135" type="curve" smooth="yes"/>
      <point x="410" y="1278" type="line" smooth="yes"/>
      <point x="420.103" y="1287.9"/>
      <point x="426" y="1300"/>
    </contour>
  </outline>
</glyph>
<glyph name="Oslash" format="2">
  <advance width="1536"/>
  <unicode hex="00D8"/>
  <outline>
    <contour>
      <point x="369" y="258" type="line"/>
      <point x="248" y="371"/>
      <point x="188" y="512"/>
      <point x="188" y="682" type="curve" smooth="yes"/>
      <point x="188" y="844"/>
      <point x="243" y="981"/>
      <point x="356" y="1094" type="curve" smooth="yes"/>
      <point x="469" y="1207"/>
      <point x="606" y="1262"/>
      <point x="768" y="1262" type="curve" smooth="yes"/>
      <point x="866" y="1262"/>
      <point x="958" y="1239"/>
      <point x="1042" y="1194" type="curve"/>
    </contour>
    <contour>
      <point x="1348" y="682" type="curve" smooth="yes"/>
      <point x="1348" y="520"/>
      <point x="1293" y="383"/>
      <point x="1180" y="270" type="curve" smooth="yes"/>
      <point x="1067" y="157"/>
      <point x="930.005" y="102"/>
      <point x="768" y="102" type="curve" smooth="yes"/>
      <point x="650.997" y="102"/>
      <point x="543" y="133"/>
      <point x="446" y="197" type="curve"/>
      <point x="1126" y="1141" type="line"/>
      <point x="1274" y="1026"/>
      <point x="1348" y="872"/>
    </contour>
    <contour>
      <point x="1450" y="684" type="curve" smooth="yes"/>
      <point x="1450" y="910.996"/>
      <point x="1362" y="1092"/>
      <point x="1188" y="1225" type="curve"/>
      <point x="1237" y="1294" type="line" smooth="yes"/>
      <point x="1241.18" y="1299.88"/>
      <point x="1243" y="1309"/>
      <point x="1243" y="1319" type="curve" smooth="yes"/>
      <point x="1243" y="1337"/>
      <point x="1233.02" y="1353.05"/>
      <point x="1212" y="1362" type="curve" smooth="yes"/>
      <point x="1186.02" y="1373.05"/>
      <point x="1164.28" y="1363.8"/>
      <point x="1145" y="1337" type="curve" smooth="yes"/>
      <point x="1104" y="1280" type="line"/>
      <point x="999" y="1337"/>
      <point x="889.003" y="1366"/>
      <point x="768" y="1366" type="curve" smooth="yes"/>
      <point x="577.995" y="1366"/>
      <point x="416.001" y="1300"/>
      <point x="283" y="1167" type="curve" smooth="yes"/>
      <point x="152.001" y="1036"/>
      <point x="86" y="874.011"/>
      <point x="86" y="684" type="curve" smooth="yes"/>
      <point x="86" y="478.996"/>
      <point x="160" y="309"/>
      <point x="309" y="176" type="curve"/>
      <point x="233" y="70" type="line" smooth="yes"/>
      <point x="228.798" y="64.1395"/>
      <point x="227" y="57"/>
      <point x="227" y="47" type="curve" smooth="yes"/>
      <point x="227" y="29"/>
      <point x="238" y="12"/>
      <point x="258" y="2" type="curve"/>
      <point x="285" y="-8"/>
      <point x="307.192" y="-0.13325"/>
      <point x="326" y="27" type="curve" smooth="yes"/>
      <point x="387" y="115" type="line"/>
      <point x="500" y="39"/>
      <point x="626.997" y="0"/>
      <point x="768" y="0" type="curve" smooth="yes"/>
      <point x="958.005" y="0"/>
      <point x="1119" y="66"/>
      <point x="1251" y="199" type="curve" smooth="yes"/>
      <point x="1383" y="332"/>
      <point x="1450" y="493.997"/>
    </contour>
  </outline>
</glyph>
<glyph name="acircumflex" format="2">
  <advance width="819"/>
  <unicode hex="00E2"/>
  <outline>
    <contour>
      <point x="614" y="342" type="curve" smooth="yes"/>
      <point x="614" y="283"/>
      <point x="594" y="229"/>
      <point x="555" y="178" type="curve" smooth="yes"/>
      <point x="516" y="127"/>
      <point x="467" y="102"/>
      <point x="410" y="102" type="curve" smooth="yes"/>
      <point x="352" y="102"/>
      <point x="303" y="127"/>
      <point x="264" y="178" type="curve" smooth="yes"/>
      <point x="225" y="229"/>
      <point x="205" y="283"/>
      <point x="205" y="342" type="curve" smooth="yes"/>
      <point x="205" y="401"/>
      <point x="225" y="455"/>
      <point x="264" y="506" type="curve" smooth="yes"/>
      <point x="303" y="557"/>
      <point x="352" y="582"/>
      <point x="410" y="582" type="curve" smooth="yes"/>
      <point x="469" y="582"/>
      <point x="518.249" y="555.2"/>
      <point x="559" y="504" type="curve" smooth="yes"/>
      <point x="596.251" y="457.197"/>
      <point x="614" y="401"/>
    </contour>
    <contour>
      <point x="719" y="633" type="line" smooth="yes"/>
      <point x="719" y="664"/>
      <point x="702" y="682"/>
      <point x="668" y="684" type="curve"/>
      <point x="633" y="682"/>
      <point x="616" y="664"/>
      <point x="616" y="633" type="curve" smooth="yes"/>
      <point x="616" y="592" type="line"/>
      <point x="557" y="653"/>
      <point x="489" y="684"/>
      <point x="410" y="684" type="curve" smooth="yes"/>
      <point x="322" y="684"/>
      <point x="247.451" y="649.613"/>
      <point x="188" y="580" type="curve" smooth="yes"/>
      <point x="130.451" y="512.614"/>
      <point x="102" y="432"/>
      <point x="102" y="342" type="curve" smooth="yes"/>
      <point x="102" y="252"/>
      <point x="130.86" y="173.884"/>
      <point x="188" y="106" type="curve" smooth="yes"/>
      <point x="247.862" y="34.8812"/>
      <point x="322" y="0"/>
      <point x="410" y="0" type="curve" smooth="yes"/>
      <point x="489" y="0"/>
      <point x="557" y="31"/>
      <point x="616" y="92" type="curve"/>
      <point x="616" y="51" type="line" smooth="yes"/>
      <point x="616" y="20"/>
      <point x="633" y="2"/>
      <point x="668" y="0" type="curve"/>
      <point x="702" y="2"/>
      <point x="719" y="20"/>
      <point x="719" y="51" type="curve" smooth="yes"/>
    </contour>
    <contour>
      <point x="713" y="825" type="curve" smooth="yes"/>
      <point x="713" y="838"/>
      <point x="706.489" y="849.465"/>
      <point x="696" y="860" type="curve" smooth="yes"/>
      <point x="463" y="1094" type="line" smooth="yes"/>
      <point x="453.021" y="1104.02"/>
      <point x="440" y="1110"/>
      <point x="428" y="1110" type="curve" smooth="yes"/>
      <point x="426" y="1110" type="line" smooth="yes"/>
      <point x="414" y="1110"/>
      <point x="400.979" y="1104.02"/>
      <point x="391" y="1094" type="curve" smooth="yes"/>
      <point x="158" y="860" type="line" smooth="yes"/>
      <point x="147.511" y="849.465"/>
      <point x="141" y="838"/>
      <point x="141" y="825" type="curve" smooth="yes"/>
      <point x="141" y="801"/>
      <point x="170" y="772"/>
      <point x="195" y="772" type="curve" smooth="yes"/>
      <point x="207" y="772"/>
      <point x="219.05" y="777.949"/>
      <point x="229" y="788" type="curve" smooth="yes"/>
      <point x="426" y="987" type="line"/>
      <point x="625" y="788" type="line" smooth="yes"/>
      <point x="635" y="778"/>
      <point x="647" y="772"/>
      <point x="659" y="772" type="curve" smooth="yes"/>
      <point x="684" y="772"/>
      <point x="713" y="801"/>
    </contour>
  </outline>
</glyph>
<glyph name="eacute" format="2">
  <advance width="819"/>
  <unicode hex="00E9"/>
  <outline>
    <contour>
      <point x="227" y="444" type="line"/>
      <point x="266" y="537"/>
      <point x="328" y="582"/>
      <point x="410" y="582" type="curve" smooth="yes"/>
      <point x="492" y="582"/>
      <point x="553" y="537"/>
      <point x="592" y="444" type="curve"/>
    </contour>
    <contour>
      <point x="717" y="342" type="line"/>
      <point x="717" y="434"/>
      <point x="688.236" y="512.196"/>
      <point x="633" y="578" type="curve" smooth="yes"/>
      <point x="573.235" y="649.199"/>
      <point x="500" y="684"/>
      <point x="410" y="684" type="curve" smooth="yes"/>
      <point x="322" y="684"/>
      <point x="247.451" y="649.613"/>
      <point x="188" y="580" type="curve" smooth="yes"/>
      <point x="130.451" y="512.614"/>
      <point x="102" y="432"/>
      <point x="102" y="342" type="curve" smooth="yes"/>
      <point x="102" y="252"/>
      <point x="130.86" y="173.884"/>
      <point x="188" y="106" type="curve" smooth="yes"/>
      <point x="247.862" y="34.8812"/>
      <point x="322" y="0"/>
      <point x="410" y="0" type="curve" smooth="yes"/>
      <point x="510" y="0"/>
      <point x="594" y="47"/>
      <point x="662" y="143" type="curve"/>
      <point x="676" y="174"/>
      <point x="668" y="197"/>
      <point x="637" y="211" type="curve" smooth="yes"/>
      <point x="606" y="225"/>
      <point x="584" y="217"/>
      <point x="569" y="186" type="curve"/>
      <point x="530" y="131"/>
      <point x="477" y="102"/>
      <point x="410" y="102" type="curve" smooth="yes"/>
      <point x="352" y="102"/>
      <point x="303" y="127"/>
      <point x="264" y="178" type="curve" smooth="yes"/>
      <point x="225" y="229"/>
      <point x="205" y="283"/>
      <point x="205" y="342" type="curve"/>
    </contour>
    <contour>
      <point x="578" y="1008" type="curve" smooth="yes"/>
      <point x="578" y="1034"/>
      <point x="549" y="1061"/>
      <point x="522" y="1061" type="curve" smooth="yes"/>
      <point x="510" y="1061"/>
      <point x="497.953" y="1055.05"/>
      <point x="487" y="1044" type="curve" smooth="yes"/>
      <point x="256" y="811" type="line" smooth="yes"/>
      <point x="246.043" y="800.957"/>
      <point x="240" y="788"/>
      <point x="240" y="776" type="curve" smooth="yes"/>
      <point x="240" y="750"/>
      <point x="266" y="723"/>
      <point x="293" y="723" type="curve" smooth="yes"/>
      <point x="305" y="723"/>
      <point x="317.511" y="728.465"/>
      <point x="328" y="739" type="curve" smooth="yes"/>
      <point x="561" y="973" type="line" smooth="yes"/>
      <point x="570.979" y="983.021"/>
      <point x="578" y="995"/>
    </contour>
  </outline>
</glyph>
<glyph name="igrave" format="2">
  <advance width="614"/>
  <unicode hex="00EC"/>
  <outline>
    <contour>
      <point x="324" y="633" type="line" smooth="yes"/>
      <point x="324" y="664"/>
      <point x="307" y="682"/>
      <point x="272" y="684" type="curve"/>
      <point x="238" y="682"/>
      <point x="221" y="664"/>
      <point x="221" y="633" type="curve" smooth="yes"/>
      <point x="221" y="51" type="line" smooth="yes"/>
      <point x="221" y="20"/>
      <point x="238" y="2"/>
      <point x="272" y="0" type="curve"/>
      <point x="307" y="2"/>
      <point x="324" y="20"/>
      <point x="324" y="51" type="curve" smooth="yes"/>
    </contour>
    <contour>
      <point x="440" y="772" type="curve" smooth="yes"/>
      <point x="440" y="784"/>
      <point x="434.022" y="797.021"/>
      <point x="424" y="807" type="curve" smooth="yes"/>
      <point x="190" y="1040" type="line" smooth="yes"/>
      <point x="179.465" y="1050.49"/>
      <point x="168" y="1057"/>
      <point x="156" y="1057" type="curve" smooth="yes"/>
      <point x="129" y="1057"/>
      <point x="102" y="1030"/>
      <point x="102" y="1004" type="curve" smooth="yes"/>
      <point x="102" y="991"/>
      <point x="109.022" y="979.021"/>
      <point x="119" y="969" type="curve" smooth="yes"/>
      <point x="352" y="735" type="line" smooth="yes"/>
      <point x="361.979" y="724.979"/>
      <point x="375" y="719"/>
      <point x="387" y="719" type="curve" smooth="yes"/>
      <point x="412" y="719"/>
      <point x="440" y="748"/>
    </contour>
  </outline>
</glyph>
<glyph name="icircumflex" format="2">
  <advance width="614"/>
  <unicode hex="00EE"/>
  <outline>
    <contour>
      <point x="438" y="633" type="line" smooth="yes"/>
      <point x="438" y="664"/>
      <point x="422" y="682"/>
      <point x="387" y="684" type="curve"/>
      <point x="352" y="682"/>
      <point x="336" y="664"/>
      <point x="336" y="633" type="curve" smooth="yes"/>
      <point x="336" y="51" type="line" smooth="yes"/>
      <point x="336" y="20"/>
      <point x="352" y="2"/>
      <point x="387" y="0" type="curve"/>
      <point x="422" y="2"/>
      <point x="438" y="20"/>
      <point x="438" y="51" type="curve" smooth="yes"/>
    </contour>
    <contour>
      <point x="674" y="825" type="curve" smooth="yes"/>
      <point x="674" y="838"/>
      <point x="667.489" y="849.465"/>
      <point x="657" y="860" type="curve" smooth="yes"/>
      <point x="424" y="1094" type="line" smooth="yes"/>
      <point x="414.021" y="1104.02"/>
      <point x="401" y="1110"/>
      <point x="389" y="1110" type="curve" smooth="yes"/>
      <point x="387" y="1110" type="line" smooth="yes"/>
      <point x="375" y="1110"/>
      <point x="361.979" y="1104.02"/>
      <point x="352" y="1094" type="curve" smooth="yes"/>
      <point x="119" y="860" type="line" smooth="yes"/>
      <point x="109.021" y="849.979"/>
      <point x="102" y="838"/>
      <point x="102" y="825" type="curve" smooth="yes"/>
      <point x="102" y="801"/>
      <point x="131" y="772"/>
      <point x="156" y="772" type="curve" smooth="yes"/>
      <point x="168" y="772"/>
      <point x="180" y="778"/>
      <point x="190" y="788" type="curve" smooth="yes"/>
      <point x="389" y="987" type="line"/>
      <point x="586" y="788" type="line" smooth="yes"/>
      <point x="595.95" y="777.949"/>
      <point x="608" y="772"/>
      <point x="621" y="772" type="curve" smooth="yes"/>
      <point x="645" y="772"/>
      <point x="674" y="801"/>
    </contour>
  </outline>
</glyph>
<glyph name="idieresis" format="2">
  <advance width="614"/>
  <unicode hex="00EF"/>
  <outline>
    <contour>
      <point x="375" y="633" type="line" smooth="yes"/>
      <point x="375" y="664"/>
      <point x="358" y="682"/>
      <point x="324" y="684" type="curve"/>
      <point x="289" y="682"/>
      <point x="272" y="664"/>
      <point x="272" y="633" type="curve" smooth="yes"/>
      <point x="272" y="51" type="line" smooth="yes"/>
      <point x="272" y="20"/>
      <point x="289" y="2"/>
      <point x="324" y="0" type="curve"/>
      <point x="358" y="2"/>
      <point x="375" y="20"/>
      <point x="375" y="51" type="curve" smooth="yes"/>
    </contour>
    <contour>
      <point x="227" y="856" type="curve" smooth="yes"/>
      <point x="227" y="897"/>
      <point x="207" y="918"/>
      <point x="164" y="918" type="curve" smooth="yes"/>
      <point x="123" y="918"/>
      <point x="102" y="897"/>
      <point x="102" y="856" type="curve" smooth="yes"/>
      <point x="102" y="813"/>
      <point x="123" y="793"/>
      <point x="164" y="793" type="curve" smooth="yes"/>
      <point x="207" y="793"/>
      <point x="227" y="813"/>
    </contour>
    <contour>
      <point x="545" y="856" type="curve" smooth="yes"/>
      <point x="545" y="897"/>
      <point x="524" y="918"/>
      <point x="481" y="918" type="curve" smooth="yes"/>
      <point x="440" y="918"/>
      <point x="420" y="897"/>
      <point x="420" y="856" type="curve" smooth="yes"/>
      <point x="420" y="813"/>
      <point x="440" y="793"/>
      <point x="481" y="793" type="curve" smooth="yes"/>
      <point x="524" y="793"/>
      <point x="545" y="813"/>
    </contour>
  </outline>
</glyph>
<glyph name="ograve" format="2">
  <advance width="819"/>
  <unicode hex="00F2"/>
  <outline>
    <contour>
      <point x="614" y="342" type="curve" smooth="yes"/>
      <point x="614" y="283"/>
      <point x="594" y="229"/>
      <point x="555" y="178" type="curve" smooth="yes"/>
      <point x="516" y="127"/>
      <point x="467" y="102"/>
      <point x="410" y="102" type="curve" smooth="yes"/>
      <point x="352" y="102"/>
      <point x="303" y="127"/>
      <point x="264" y="178" type="curve" smooth="yes"/>
      <point x="225" y="229"/>
      <point x="205" y="283"/>
      <point x="205" y="342" type="curve" smooth="yes"/>
      <point x="205" y="401"/>
      <point x="225" y="455"/>
      <point x="264" y="506" type="curve" smooth="yes"/>
      <point x="303" y="557"/>
      <point x="352" y="582"/>
      <point x="410" y="582" type="curve" smooth="yes"/>
      <point x="469" y="582"/>
      <point x="518.249" y="555.2"/>
      <point x="559" y="504" type="curve" smooth="yes"/>
      <point x="596.251" y="457.197"/>
      <point x="614" y="401"/>
    </contour>
    <contour>
      <point x="717" y="342" type="curve" smooth="yes"/>
      <point x="717" y="434"/>
      <point x="688.236" y="512.196"/>
      <point x="633" y="578" type="curve" smooth="yes"/>
      <point x="573.235" y="649.199"/>
      <point x="500" y="684"/>
      <point x="410" y="684" type="curve" smooth="yes"/>
      <point x="322" y="684"/>
      <point x="247.451" y="649.613"/>
      <point x="188" y="580" type="curve" smooth="yes"/>
      <point x="130.451" y="512.614"/>
      <point x="102" y="432"/>
      <point x="102" y="342" type="curve" smooth="yes"/>
      <point x="102" y="252"/>
      <point x="130.86" y="173.884"/>
      <point x="188" y="106" type="curve" smooth="yes"/>
      <point x="247.862" y="34.8812"/>
      <point x="322" y="0"/>
      <point x="410" y="0" type="curve" smooth="yes"/>
      <point x="498" y="0"/>
      <point x="571.137" y="34.8812"/>
      <point x="631" y="106" type="curve" smooth="yes"/>
      <point x="688.14" y="173.884"/>
      <point x="717" y="252"/>
    </contour>
    <contour>
      <point x="629" y="772" type="curve" smooth="yes"/>
      <point x="629" y="784"/>
      <point x="623" y="796"/>
      <point x="612" y="807" type="curve" smooth="yes"/>
      <point x="379" y="1040" type="line" smooth="yes"/>
      <point x="368" y="1051"/>
      <point x="356" y="1057"/>
      <point x="344" y="1057" type="curve" smooth="yes"/>
      <point x="317" y="1057"/>
      <point x="291" y="1030"/>
      <point x="291" y="1004" type="curve" smooth="yes"/>
      <point x="291" y="991"/>
      <point x="297" y="979"/>
      <point x="307" y="969" type="curve" smooth="yes"/>
      <point x="541" y="735" type="line" smooth="yes"/>
      <point x="551" y="725"/>
      <point x="563" y="719"/>
      <point x="575" y="719" type="curve" smooth="yes"/>
      <point x="600" y="719"/>
      <point x="629" y="748"/>
    </contour>
  </outline>
</glyph>
<glyph name="divide" format="2">
  <advance width="1024"/>
  <unicode hex="00F7"/>
  <outline>
    <contour>
      <point x="594" y="389" type="curve" smooth="yes"/>
      <point x="594" y="436"/>
      <point x="559" y="471"/>
      <point x="512" y="471" type="curve" smooth="yes"/>
      <point x="465" y="471"/>
      <point x="428" y="436"/>
      <point x="428" y="389" type="curve" smooth="yes"/>
      <point x="428" y="342"/>
      <point x="465" y="305"/>
      <point x="512" y="305" type="curve" smooth="yes"/>
      <point x="559" y="305"/>
      <point x="594" y="342"/>
    </contour>
    <contour>
      <point x="885" y="688" type="curve"/>
      <point x="883" y="723"/>
      <point x="864" y="739"/>
      <point x="834" y="739" type="curve" smooth="yes"/>
      <point x="190" y="739" type="line" smooth="yes"/>
      <point x="160" y="739"/>
      <point x="141" y="723"/>
      <point x="139" y="688" type="curve"/>
      <point x="141" y="653"/>
      <point x="160" y="637"/>
      <point x="190" y="637" type="curve" smooth="yes"/>
      <point x="834" y="637" type="line" smooth="yes"/>
      <point x="864" y="637"/>
      <point x="883" y="653"/>
    </contour>
    <contour>
      <point x="594" y="989" type="curve" smooth="yes"/>
      <point x="594" y="1036"/>
      <point x="559" y="1071"/>
      <point x="512" y="1071" type="curve" smooth="yes"/>
      <point x="465" y="1071"/>
      <point x="428" y="1036"/>
      <point x="428" y="989" type="curve" smooth="yes"/>
      <point x="428" y="942"/>
      <point x="465" y="905"/>
      <point x="512" y="905" type="curve" smooth="yes"/>
      <point x="559" y="905"/>
      <point x="594" y="942"/>
    </contour>
  </outline>
</glyph>
<glyph name="oslash" format="2">
  <advance width="922"/>
  <unicode hex="00F8"/>
  <outline>
    <contour>
      <point x="272" y="168" type="line"/>
      <point x="227" y="219"/>
      <point x="205" y="276"/>
      <point x="205" y="342" type="curve" smooth="yes"/>
      <point x="205" y="401"/>
      <point x="225" y="455"/>
      <point x="264" y="506" type="curve" smooth="yes"/>
      <point x="303" y="557"/>
      <point x="352" y="582"/>
      <point x="410" y="582" type="curve" smooth="yes"/>
      <point x="428" y="582"/>
      <point x="444" y="580"/>
      <point x="463" y="573" type="curve"/>
    </contour>
    <contour>
      <point x="614" y="342" type="curve" smooth="yes"/>
      <point x="614" y="283"/>
      <point x="594" y="229"/>
      <point x="555" y="178" type="curve" smooth="yes"/>
      <point x="516" y="127"/>
      <point x="467" y="102"/>
      <point x="410" y="102" type="curve" smooth="yes"/>
      <point x="391" y="102"/>
      <point x="375" y="104"/>
      <point x="358" y="111" type="curve"/>
      <point x="549" y="516" type="line"/>
      <point x="592" y="467"/>
      <point x="614" y="410"/>
    </contour>
    <contour>
      <point x="717" y="342" type="curve" smooth="yes"/>
      <point x="717" y="457.004"/>
      <point x="676" y="549"/>
      <point x="594" y="616" type="curve"/>
      <point x="639" y="711" type="line" smooth="yes"/>
      <point x="643.786" y="721.104"/>
      <point x="645" y="729"/>
      <point x="645" y="735" type="curve" smooth="yes"/>
      <point x="645" y="754"/>
      <point x="634.828" y="768.607"/>
      <point x="614" y="778" type="curve" smooth="yes"/>
      <point x="583.822" y="791.61"/>
      <point x="560.858" y="783.068"/>
      <point x="547" y="754" type="curve" smooth="yes"/>
      <point x="506" y="668" type="line"/>
      <point x="475" y="678"/>
      <point x="444" y="684"/>
      <point x="410" y="684" type="curve" smooth="yes"/>
      <point x="322" y="684"/>
      <point x="247.451" y="649.613"/>
      <point x="188" y="580" type="curve" smooth="yes"/>
      <point x="130.451" y="512.614"/>
      <point x="102" y="432.004"/>
      <point x="102" y="342" type="curve" smooth="yes"/>
      <point x="102" y="228.996"/>
      <point x="143" y="137"/>
      <point x="225" y="68" type="curve"/>
      <point x="176" y="-37" type="line" smooth="yes"/>
      <point x="172.218" y="-45.1053"/>
      <point x="170" y="-53"/>
      <point x="170" y="-59" type="curve" smooth="yes"/>
      <point x="170" y="-78"/>
      <point x="180.172" y="-94.6073"/>
      <point x="201" y="-104" type="curve" smooth="yes"/>
      <point x="231.178" y="-117.61"/>
      <point x="254.511" y="-108.778"/>
      <point x="268" y="-80" type="curve" smooth="yes"/>
      <point x="313" y="16" type="line"/>
      <point x="344" y="6"/>
      <point x="377" y="0"/>
      <point x="410" y="0" type="curve" smooth="yes"/>
      <point x="498" y="0"/>
      <point x="571.137" y="34.8812"/>
      <point x="631" y="106" type="curve" smooth="yes"/>
      <point x="688.14" y="173.884"/>
      <point x="717" y="251.997"/>
    </contour>
  </outline>
</glyph>
<glyph name="tilde" format="2">
  <advance width="711"/>
  <unicode hex="02DC"/>
  <outline>
    <contour>
      <point x="691" y="1423" type="line"/>
      <point x="629" y="1423" type="line"/>
      <point x="624" y="1374"/>
      <point x="575" y="1325" name=".hr01"/>
      <point x="520" y="1325" type="curve" smooth="yes"/>
      <point x="387" y="1325"/>
      <point x="346" y="1423" name=".hr02"/>
      <point x="238" y="1423" type="curve" smooth="yes"/>
      <point x="104" y="1423"/>
      <point x="32" y="1319"/>
      <point x="0" y="1198" type="curve" name=".hr03"/>
      <point x="82" y="1198" type="line"/>
      <point x="87" y="1247"/>
      <point x="132.998" y="1296" name=".hr04"/>
      <point x="188" y="1296" type="curve" smooth="yes"/>
      <point x="322.005" y="1296"/>
      <point x="364" y="1198" name=".hr05"/>
      <point x="473" y="1198" type="curve" smooth="yes"/>
      <point x="606" y="1198"/>
      <point x="679" y="1303"/>
      <point x="711" y="1423" type="curve" name=".hr06"/>
    </contour>
  </outline>
</glyph>
<glyph name="uni1202" format="2">
  <advance width="900"/>
  <unicode hex="1202"/>
  <outline>
    <contour>
      <point x="894" y="1381" type="curve" smooth="yes"/>
      <point x="894" y="1352"/>
      <point x="867" y="1332"/>
      <point x="827" y="1306" type="curve"/>
      <point x="891" y="1306" type="line"/>
      <point x="891" y="1286" type="line"/>
      <point x="806" y="1286" type="line"/>
      <point x="806" y="1304" type="line"/>
      <point x="857" y="1345"/>
      <point x="872" y="1364"/>
      <point x="872" y="1381" type="curve" smooth="yes"/>
      <point x="872" y="1389"/>
      <point x="868" y="1401"/>
      <point x="853" y="1401" type="curve" smooth="yes"/>
      <point x="837" y="1401"/>
      <point x="831" y="1388"/>
      <point x="830" y="1377" type="curve"/>
      <point x="808" y="1377" type="line"/>
      <point x="810" y="1403"/>
      <point x="825" y="1416"/>
      <point x="853" y="1416" type="curve" smooth="yes"/>
      <point x="879" y="1416"/>
      <point x="894" y="1402"/>
    </contour>
    <contour>
      <point x="283" y="1289" type="line"/>
      <point x="262" y="1289" type="line"/>
      <point x="262" y="1390" type="line"/>
      <point x="255" y="1384"/>
      <point x="241" y="1377"/>
      <point x="233" y="1375" type="curve"/>
      <point x="233" y="1394" type="line"/>
      <point x="242" y="1398"/>
      <point x="258" y="1411"/>
      <point x="262" y="1415" type="curve"/>
      <point x="283" y="1415" type="line"/>
    </contour>
    <contour>
      <point x="582" y="1370" type="line"/>
      <point x="566" y="1374" type="line"/>
      <point x="553" y="1319"/>
      <point x="507" y="1130"/>
      <point x="484" y="1040" type="curve"/>
      <point x="484" y="1039" type="line"/>
      <point x="443" y="934"/>
      <point x="392" y="898"/>
      <point x="280" y="898" type="curve" smooth="yes"/>
      <point x="215" y="898"/>
      <point x="178.589" y="954.988"/>
      <point x="180" y="1074" type="curve" smooth="yes"/>
      <point x="183" y="1327" type="line"/>
      <point x="213" y="1327" type="line"/>
      <point x="210" y="1074" type="line" smooth="yes"/>
      <point x="208.601" y="955.988"/>
      <point x="244" y="928"/>
      <point x="280" y="928" type="curve" smooth="yes"/>
      <point x="377" y="928"/>
      <point x="419" y="955"/>
      <point x="455" y="1048" type="curve"/>
      <point x="478" y="1138"/>
      <point x="524" y="1328"/>
      <point x="537" y="1382" type="curve"/>
      <point x="518" y="1387" type="line"/>
      <point x="565" y="1433" type="line"/>
    </contour>
    <contour>
      <point x="785" y="1339" type="line"/>
      <point x="501" y="194" type="line"/>
      <point x="519" y="189" type="line"/>
      <point x="471" y="144" type="line"/>
      <point x="456" y="208" type="line"/>
      <point x="473" y="203" type="line"/>
      <point x="756" y="1346" type="line"/>
    </contour>
    <contour>
      <point x="840" y="35" type="curve" smooth="yes"/>
      <point x="840" y="-6"/>
      <point x="807" y="-41.0967"/>
      <point x="765" y="-41" type="curve" smooth="yes"/>
      <point x="332" y="-40" type="line" smooth="yes"/>
      <point x="293" y="-39.91"/>
      <point x="256" y="-9"/>
      <point x="256" y="37" type="curve" smooth="yes"/>
      <point x="256" y="40" type="line"/>
      <point x="434" y="757" type="line"/>
      <point x="388" y="738"/>
      <point x="337.001" y="728"/>
      <point x="280" y="728" type="curve" smooth="yes"/>
      <point x="67.0018" y="728"/>
      <point x="7.87951" y="903.982"/>
      <point x="10" y="1080" type="curve"/>
      <point x="10" y="1080"/>
      <point x="12.193" y="1262"/>
      <point x="13" y="1329" type="curve" smooth="yes"/>
      <point x="14.1925" y="1428.01"/>
      <point x="164.186" y="1427"/>
      <point x="163" y="1327" type="curve" smooth="yes"/>
      <point x="160" y="1074" type="line" smooth="yes"/>
      <point x="158.589" y="954.988"/>
      <point x="195" y="878"/>
      <point x="280" y="878" type="curve" smooth="yes"/>
      <point x="399" y="878"/>
      <point x="459" y="918"/>
      <point x="503" y="1033" type="curve"/>
      <point x="528" y="1135"/>
      <point x="583" y="1371"/>
      <point x="583" y="1371" type="curve"/>
      <point x="595.29" y="1422.93"/>
      <point x="634.95" y="1447.79"/>
      <point x="679" y="1438" type="curve" smooth="yes"/>
      <point x="706.953" y="1431.79"/>
      <point x="745.358" y="1400.92"/>
      <point x="736" y="1363" type="curve" smooth="yes"/>
      <point x="427" y="111" type="line"/>
      <point x="765" y="110" type="line" smooth="yes"/>
      <point x="806" y="109.879"/>
      <point x="840" y="76"/>
    </contour>
    <contour>
      <point x="738" y="-88" type="line"/>
      <point x="681" y="-121" type="line"/>
      <point x="681" y="-103" type="line"/>
      <point x="378" y="-103" type="line"/>
      <point x="378" y="-73" type="line"/>
      <point x="681" y="-73" type="line"/>
      <point x="681" y="-55" type="line"/>
    </contour>
    <contour>
      <point x="340" y="-163" type="curve" smooth="yes"/>
      <point x="340" y="-182"/>
      <point x="326" y="-201"/>
      <point x="294" y="-201" type="curve" smooth="yes"/>
      <point x="261" y="-201"/>
      <point x="253" y="-181"/>
      <point x="253" y="-165" type="curve"/>
      <point x="275" y="-165" type="line"/>
      <point x="275" y="-177"/>
      <point x="283" y="-185"/>
      <point x="295" y="-185" type="curve" smooth="yes"/>
      <point x="307" y="-185"/>
      <point x="318" y="-177"/>
      <point x="318" y="-163" type="curve" smooth="yes"/>
      <point x="318" y="-158"/>
      <point x="314" y="-141"/>
      <point x="296" y="-141" type="curve" smooth="yes"/>
      <point x="285" y="-141" type="line"/>
      <point x="285" y="-127" type="line"/>
      <point x="313" y="-127"/>
      <point x="315" y="-115"/>
      <point x="315" y="-105" type="curve" smooth="yes"/>
      <point x="315" y="-96"/>
      <point x="311" y="-86"/>
      <point x="298" y="-86" type="curve" smooth="yes"/>
      <point x="284" y="-86"/>
      <point x="278" y="-92"/>
      <point x="277" y="-104" type="curve"/>
      <point x="255" y="-104" type="line"/>
      <point x="256" y="-82"/>
      <point x="274" y="-71"/>
      <point x="297" y="-71" type="curve" smooth="yes"/>
      <point x="319" y="-71"/>
      <point x="337" y="-83"/>
      <point x="337" y="-105" type="curve" smooth="yes"/>
      <point x="337" y="-124"/>
      <point x="325" y="-129"/>
      <point x="314" y="-133" type="curve"/>
      <point x="325" y="-136"/>
      <point x="340" y="-145"/>
    </contour>
    <contour>
      <point x="800" y="35" type="curve" smooth="yes"/>
      <point x="800" y="54"/>
      <point x="784" y="69.9513"/>
      <point x="765" y="70" type="curve" smooth="yes"/>
      <point x="376" y="71" type="line"/>
      <point x="697" y="1373" type="line" smooth="yes"/>
      <point x="702.168" y="1393.96"/>
      <point x="640.471" y="1418.88"/>
      <point x="629" y="1373" type="curve" smooth="yes"/>
      <point x="541" y="1021" type="line"/>
      <point x="492" y="891"/>
      <point x="419.008" y="838"/>
      <point x="280" y="838" type="curve" smooth="yes"/>
      <point x="155.993" y="838"/>
      <point x="118.039" y="955.997"/>
      <point x="120" y="1075" type="curve" smooth="yes"/>
      <point x="121.038" y="1137.99"/>
      <point x="127" y="1319"/>
      <point x="127" y="1319" type="curve"/>
      <point x="127.774" y="1345.99"/>
      <point x="110" y="1363"/>
      <point x="89" y="1363" type="curve" smooth="yes"/>
      <point x="70" y="1363"/>
      <point x="51.0963" y="1349.02"/>
      <point x="51" y="1325" type="curve"/>
      <point x="51" y="1325"/>
      <point x="50.84" y="1139"/>
      <point x="50" y="1076" type="curve" smooth="yes"/>
      <point x="47.84" y="913.995"/>
      <point x="112" y="768"/>
      <point x="280" y="768" type="curve" smooth="yes"/>
      <point x="370" y="768"/>
      <point x="420" y="792"/>
      <point x="495" y="834" type="curve"/>
      <point x="296" y="35" type="line"/>
      <point x="297" y="14"/>
      <point x="314" y="0.0415001"/>
      <point x="332" y="0" type="curve" smooth="yes"/>
      <point x="765" y="-1" type="line" smooth="yes"/>
      <point x="784" y="-1.0437"/>
      <point x="800" y="15"/>
    </contour>
    <contour>
      <point x="112" y="1323" type="curve" smooth="yes"/>
      <point x="112" y="1309"/>
      <point x="101" y="1298"/>
      <point x="87" y="1298" type="curve" smooth="yes"/>
      <point x="73" y="1298"/>
      <point x="62" y="1309"/>
      <point x="62" y="1323" type="curve" smooth="yes"/>
      <point x="62" y="1337"/>
      <point x="73" y="1348"/>
      <point x="87" y="1348" type="curve" smooth="yes"/>
      <point x="101" y="1348"/>
      <point x="112" y="1337"/>
    </contour>
  </outline>
</glyph>
<glyph name="uni1203" format="2">
  <advance width="799"/>
  <unicode hex="1203"/>
  <outline>
    <contour>
      <point x="894" y="1381" type="curve" smooth="yes"/>
      <point x="894" y="1352"/>
      <point x="867" y="1332"/>
      <point x="827" y="1306" type="curve"/>
      <point x="891" y="1306" type="line"/>
      <point x="891" y="1286" type="line"/>
      <point x="806" y="1286" type="line"/>
      <point x="806" y="1304" type="line"/>
      <point x="857" y="1345"/>
      <point x="872" y="1364"/>
      <point x="872" y="1381" type="curve" smooth="yes"/>
      <point x="872" y="1389"/>
      <point x="868" y="1401"/>
      <point x="853" y="1401" type="curve" smooth="yes"/>
      <point x="837" y="1401"/>
      <point x="831" y="1388"/>
      <point x="830" y="1377" type="curve"/>
      <point x="808" y="1377" type="line"/>
      <point x="810" y="1403"/>
      <point x="825" y="1416"/>
      <point x="853" y="1416" type="curve" smooth="yes"/>
      <point x="879" y="1416"/>
      <point x="894" y="1402"/>
    </contour>
    <contour>
      <point x="283" y="1289" type="line"/>
      <point x="262" y="1289" type="line"/>
      <point x="262" y="1390" type="line"/>
      <point x="255" y="1384"/>
      <point x="241" y="1377"/>
      <point x="233" y="1375" type="curve"/>
      <point x="233" y="1394" type="line"/>
      <point x="242" y="1398"/>
      <point x="258" y="1411"/>
      <point x="262" y="1415" type="curve"/>
      <point x="283" y="1415" type="line"/>
    </contour>
    <contour>
      <point x="582" y="1370" type="line"/>
      <point x="566" y="1374" type="line"/>
      <point x="553" y="1319"/>
      <point x="507" y="1130"/>
      <point x="484" y="1040" type="curve"/>
      <point x="484" y="1039" type="line"/>
      <point x="443" y="934"/>
      <point x="392" y="898"/>
      <point x="280" y="898" type="curve" smooth="yes"/>
      <point x="215" y="898"/>
      <point x="178.589" y="954.988"/>
      <point x="180" y="1074" type="curve" smooth="yes"/>
      <point x="183" y="1327" type="line"/>
      <point x="213" y="1327" type="line"/>
      <point x="210" y="1074" type="line" smooth="yes"/>
      <point x="208.601" y="955.988"/>
      <point x="244" y="928"/>
      <point x="280" y="928" type="curve" smooth="yes"/>
      <point x="377" y="928"/>
      <point x="419" y="955"/>
      <point x="455" y="1048" type="curve"/>
      <point x="478" y="1138"/>
      <point x="524" y="1328"/>
      <point x="537" y="1382" type="curve"/>
      <point x="518" y="1387" type="line"/>
      <point x="565" y="1433" type="line"/>
    </contour>
    <contour>
      <point x="785" y="1339" type="line"/>
      <point x="473" y="67" type="line"/>
      <point x="491" y="62" type="line"/>
      <point x="443" y="17" type="line"/>
      <point x="428" y="81" type="line"/>
      <point x="445" y="76" type="line"/>
      <point x="756" y="1346" type="line"/>
    </contour>
    <contour>
      <point x="737" y="1351" type="curve" smooth="yes"/>
      <point x="404" y="13" type="line" smooth="yes"/>
      <point x="392.05" y="-35.0135"/>
      <point x="347.947" y="-51.2985"/>
      <point x="315" y="-45" type="curve" smooth="yes"/>
      <point x="279.939" y="-38.2975"/>
      <point x="244.597" y="-4.89375"/>
      <point x="257" y="45" type="curve" smooth="yes"/>
      <point x="434" y="757" type="line"/>
      <point x="388" y="738"/>
      <point x="337.001" y="728"/>
      <point x="280" y="728" type="curve" smooth="yes"/>
      <point x="67.0018" y="728"/>
      <point x="7.87951" y="903.982"/>
      <point x="10" y="1080" type="curve"/>
      <point x="10" y="1080"/>
      <point x="12.193" y="1262"/>
      <point x="13" y="1329" type="curve" smooth="yes"/>
      <point x="14.1925" y="1428.01"/>
      <point x="164.186" y="1427"/>
      <point x="163" y="1327" type="curve" smooth="yes"/>
      <point x="160" y="1074" type="line" smooth="yes"/>
      <point x="158.589" y="954.988"/>
      <point x="195" y="878"/>
      <point x="280" y="878" type="curve" smooth="yes"/>
      <point x="399" y="878"/>
      <point x="459" y="918"/>
      <point x="503" y="1033" type="curve"/>
      <point x="529" y="1135"/>
      <point x="587" y="1379"/>
      <point x="587" y="1379" type="curve"/>
      <point x="598.387" y="1425.9"/>
      <point x="638.016" y="1448.09"/>
      <point x="679" y="1440" type="curve" smooth="yes"/>
      <point x="714.017" y="1433.09"/>
      <point x="749.184" y="1399.96"/>
    </contour>
    <contour>
      <point x="698" y="1360" type="line" smooth="yes"/>
      <point x="709.423" y="1405.9"/>
      <point x="640.235" y="1417.94"/>
      <point x="629" y="1373" type="curve" smooth="yes"/>
      <point x="541" y="1021" type="line"/>
      <point x="492" y="891"/>
      <point x="419.008" y="838"/>
      <point x="280" y="838" type="curve" smooth="yes"/>
      <point x="155.993" y="838"/>
      <point x="118.039" y="955.997"/>
      <point x="120" y="1075" type="curve" smooth="yes"/>
      <point x="121.038" y="1137.99"/>
      <point x="127" y="1319"/>
      <point x="127" y="1319" type="curve"/>
      <point x="127.774" y="1345.99"/>
      <point x="110" y="1363"/>
      <point x="89" y="1363" type="curve" smooth="yes"/>
      <point x="70" y="1363"/>
      <point x="51.0963" y="1349.02"/>
      <point x="51" y="1325" type="curve"/>
      <point x="51" y="1325"/>
      <point x="50.84" y="1139"/>
      <point x="50" y="1076" type="curve" smooth="yes"/>
      <point x="47.84" y="913.995"/>
      <point x="112" y="768"/>
      <point x="280" y="768" type="curve" smooth="yes"/>
      <point x="370" y="768"/>
      <point x="420" y="792"/>
      <point x="495" y="834" type="curve"/>
      <point x="296" y="35" type="line" smooth="yes"/>
      <point x="290.489" y="12.8717"/>
      <point x="304.105" y="-1.42125"/>
      <point x="322" y="-5" type="curve" smooth="yes"/>
      <point x="339.126" y="-8.425"/>
      <point x="359.493" y="-0.129"/>
      <point x="365" y="22" type="curve" smooth="yes"/>
    </contour>
    <contour>
      <point x="112" y="1323" type="curve" smooth="yes"/>
      <point x="112" y="1309"/>
      <point x="101" y="1298"/>
      <point x="87" y="1298" type="curve" smooth="yes"/>
      <point x="73" y="1298"/>
      <point x="62" y="1309"/>
      <point x="62" y="1323" type="curve" smooth="yes"/>
      <point x="62" y="1337"/>
      <point x="73" y="1348"/>
      <point x="87" y="1348" type="curve" smooth="yes"/>
      <point x="101" y="1348"/>
      <point x="112" y="1337"/>
    </contour>
  </outline>
</glyph>
<glyph name="uni1204" format="2">
  <advance width="799"/>
  <unicode hex="1204"/>
  <outline>
    <contour>
      <point x="894" y="1381" type="curve" smooth="yes"/>
      <point x="894" y="1352"/>
      <point x="867" y="1332"/>
      <point x="827" y="1306" type="curve"/>
      <point x="891" y="1306" type="line"/>
      <point x="891" y="1286" type="line"/>
      <point x="806" y="1286" type="line"/>
      <point x="806" y="1304" type="line"/>
      <point x="857" y="1345"/>
      <point x="872" y="1364" name=".hr01"/>
      <point x="872" y="1381" type="curve" smooth="yes"/>
      <point x="872" y="1389"/>
      <point x="868" y="1401"/>
      <point x="853" y="1401" type="curve" smooth="yes"/>
      <point x="837" y="1401"/>
      <point x="831" y="1388"/>
      <point x="830" y="1377" type="curve"/>
      <point x="808" y="1377" type="line"/>
      <point x="810" y="1403"/>
      <point x="825" y="1416"/>
      <point x="853" y="1416" type="curve" smooth="yes"/>
      <point x="879" y="1416"/>
      <point x="894" y="1402"/>
    </contour>
    <contour>
      <point x="283" y="1289" type="line"/>
      <point x="262" y="1289" type="line"/>
      <point x="262" y="1390" type="line"/>
      <point x="255" y="1384"/>
      <point x="241" y="1377"/>
      <point x="233" y="1375" type="curve"/>
      <point x="233" y="1394" type="line"/>
      <point x="242" y="1398"/>
      <point x="258" y="1411"/>
      <point x="262" y="1415" type="curve"/>
      <point x="283" y="1415" type="line"/>
    </contour>
    <contour>
      <point x="582" y="1370" type="line"/>
      <point x="566" y="1374" type="line"/>
      <point x="553" y="1319"/>
      <point x="507" y="1130"/>
      <point x="484" y="1040" type="curve"/>
      <point x="484" y="1039" type="line"/>
      <point x="443" y="934"/>
      <point x="392" y="898"/>
      <point x="280" y="898" type="curve" smooth="yes"/>
      <point x="215" y="898"/>
      <point x="178.589" y="954.988"/>
      <point x="180" y="1074" type="curve" smooth="yes"/>
      <point x="183" y="1327" type="line"/>
      <point x="213" y="1327" type="line"/>
      <point x="210" y="1074" type="line" smooth="yes"/>
      <point x="208.601" y="955.988"/>
      <point x="244" y="928"/>
      <point x="280" y="928" type="curve" smooth="yes"/>
      <point x="377" y="928"/>
      <point x="419" y="955"/>
      <point x="455" y="1048" type="curve"/>
      <point x="478" y="1138"/>
      <point x="524" y="1328"/>
      <point x="537" y="1382" type="curve"/>
      <point x="518" y="1387" type="line"/>
      <point x="565" y="1433" type="line"/>
    </contour>
    <contour>
      <point x="785" y="1339" type="line"/>
      <point x="562" y="441" type="line"/>
      <point x="580" y="436" type="line"/>
      <point x="532" y="391" type="line"/>
      <point x="517" y="455" type="line"/>
      <point x="533" y="450" type="line"/>
      <point x="756" y="1346" type="line"/>
    </contour>
    <contour>
      <point x="737" y="1351" type="curve" smooth="yes"/>
      <point x="497" y="383" type="line"/>
      <point x="505" y="384"/>
      <point x="513" y="384"/>
      <point x="521" y="384" type="curve" smooth="yes"/>
      <point x="560" y="384"/>
      <point x="596.059" y="374.104"/>
      <point x="627" y="356" type="curve" smooth="yes"/>
      <point x="690.062" y="319.102"/>
      <point x="733" y="250.006"/>
      <point x="733" y="172" type="curve" smooth="yes"/>
      <point x="733" y="54.9908"/>
      <point x="638.01" y="-40"/>
      <point x="521" y="-40" type="curve" smooth="yes"/>
      <point x="448.994" y="-40"/>
      <point x="385" y="-4"/>
      <point x="347" y="51" type="curve"/>
      <point x="309" y="92"/>
      <point x="288.291" y="167.168"/>
      <point x="309" y="251" type="curve"/>
      <point x="309" y="251"/>
      <point x="412" y="668"/>
      <point x="434" y="757" type="curve"/>
      <point x="388" y="738"/>
      <point x="337.001" y="728"/>
      <point x="280" y="728" type="curve" smooth="yes"/>
      <point x="67.0018" y="728"/>
      <point x="7.87951" y="903.982"/>
      <point x="10" y="1080" type="curve"/>
      <point x="10" y="1080"/>
      <point x="12.193" y="1262"/>
      <point x="13" y="1329" type="curve" smooth="yes"/>
      <point x="14.1925" y="1428.01"/>
      <point x="164.186" y="1427"/>
      <point x="163" y="1327" type="curve" smooth="yes"/>
      <point x="160" y="1074" type="line" smooth="yes"/>
      <point x="158.589" y="954.988"/>
      <point x="195" y="878"/>
      <point x="280" y="878" type="curve" smooth="yes"/>
      <point x="399" y="878"/>
      <point x="459" y="918"/>
      <point x="503" y="1033" type="curve"/>
      <point x="529" y="1137"/>
      <point x="589" y="1384"/>
      <point x="589" y="1384" type="curve"/>
      <point x="599.793" y="1428.05"/>
      <point x="639.081" y="1447.45"/>
      <point x="679" y="1440" type="curve" smooth="yes"/>
      <point x="714.086" y="1433.45"/>
      <point x="749.141" y="1399.97"/>
    </contour>
    <contour>
      <point x="783" y="172" type="curve" smooth="yes"/>
      <point x="783" y="27"/>
      <point x="666" y="-90"/>
      <point x="521" y="-90" type="curve" smooth="yes"/>
      <point x="434" y="-90"/>
      <point x="355" y="-47"/>
      <point x="307" y="20" type="curve"/>
      <point x="220" y="119"/>
      <point x="256" y="246"/>
      <point x="284" y="358" type="curve"/>
      <point x="313" y="350" type="line"/>
      <point x="288" y="249"/>
      <point x="251" y="129"/>
      <point x="331" y="38" type="curve"/>
      <point x="373" y="-21"/>
      <point x="443" y="-60"/>
      <point x="521" y="-60" type="curve" smooth="yes"/>
      <point x="649" y="-60"/>
      <point x="753" y="44"/>
      <point x="753" y="172" type="curve" smooth="yes"/>
      <point x="753" y="248"/>
      <point x="716" y="316"/>
      <point x="659" y="358" type="curve"/>
      <point x="651" y="344" type="line"/>
      <point x="618" y="401" type="line"/>
      <point x="684" y="401" type="line"/>
      <point x="674" y="384" type="line"/>
      <point x="740" y="337"/>
      <point x="783" y="259"/>
    </contour>
    <contour>
      <point x="254" y="333" type="curve" smooth="yes"/>
      <point x="254" y="314"/>
      <point x="240" y="295"/>
      <point x="208" y="295" type="curve" smooth="yes"/>
      <point x="175" y="295"/>
      <point x="167" y="315"/>
      <point x="167" y="331" type="curve"/>
      <point x="189" y="331" type="line"/>
      <point x="189" y="319"/>
      <point x="197" y="311"/>
      <point x="209" y="311" type="curve" smooth="yes"/>
      <point x="221" y="311"/>
      <point x="232" y="319"/>
      <point x="232" y="333" type="curve" smooth="yes"/>
      <point x="232" y="338"/>
      <point x="228" y="355"/>
      <point x="210" y="355" type="curve" smooth="yes"/>
      <point x="199" y="355" type="line"/>
      <point x="199" y="369" type="line"/>
      <point x="227" y="369"/>
      <point x="229" y="381"/>
      <point x="229" y="391" type="curve" smooth="yes"/>
      <point x="229" y="400"/>
      <point x="225" y="410"/>
      <point x="212" y="410" type="curve" smooth="yes"/>
      <point x="198" y="410"/>
      <point x="192" y="404"/>
      <point x="191" y="392" type="curve"/>
      <point x="169" y="392" type="line"/>
      <point x="170" y="414"/>
      <point x="188" y="425"/>
      <point x="211" y="425" type="curve" smooth="yes"/>
      <point x="233" y="425"/>
      <point x="251" y="413"/>
      <point x="251" y="391" type="curve" smooth="yes"/>
      <point x="251" y="372"/>
      <point x="239" y="367"/>
      <point x="228" y="363" type="curve"/>
      <point x="239" y="360"/>
      <point x="254" y="351"/>
    </contour>
    <contour>
      <point x="698" y="1360" type="line" smooth="yes"/>
      <point x="709.397" y="1405.9"/>
      <point x="640.235" y="1417.94"/>
      <point x="629" y="1373" type="curve" smooth="yes"/>
      <point x="541" y="1021" type="line"/>
      <point x="492" y="891"/>
      <point x="419.008" y="838"/>
      <point x="280" y="838" type="curve" smooth="yes"/>
      <point x="155.993" y="838"/>
      <point x="118.039" y="955.997"/>
      <point x="120" y="1075" type="curve" smooth="yes"/>
      <point x="121.038" y="1137.99"/>
      <point x="127" y="1319"/>
      <point x="127" y="1319" type="curve"/>
      <point x="127.774" y="1345.99"/>
      <point x="110" y="1363"/>
      <point x="89" y="1363" type="curve" smooth="yes"/>
      <point x="70" y="1363"/>
      <point x="51.0963" y="1349.02"/>
      <point x="51" y="1325" type="curve"/>
      <point x="51" y="1325"/>
      <point x="50.84" y="1139"/>
      <point x="50" y="1076" type="curve" smooth="yes"/>
      <point x="47.84" y="913.995"/>
      <point x="112" y="768"/>
      <point x="280" y="768" type="curve" smooth="yes"/>
      <point x="370" y="768"/>
      <point x="420" y="792"/>
      <point x="495" y="834" type="curve"/>
      <point x="446" y="637"/>
      <point x="349" y="243"/>
      <point x="349" y="243" type="curve"/>
      <point x="337.368" y="195.913"/>
      <point x="342" y="114"/>
      <point x="378" y="76" type="curve"/>
      <point x="411" y="29"/>
      <point x="463" y="0"/>
      <point x="521" y="0" type="curve" smooth="yes"/>
      <point x="616" y="0"/>
      <point x="693" y="77"/>
      <point x="693" y="172" type="curve" smooth="yes"/>
      <point x="693" y="267"/>
      <point x="616" y="344"/>
      <point x="521" y="344" type="curve" smooth="yes"/>
      <point x="492" y="344"/>
      <point x="469" y="336"/>
      <point x="442" y="329" type="curve"/>
    </contour>
    <contour>
      <point x="112" y="1323" type="curve" smooth="yes"/>
      <point x="112" y="1309"/>
      <point x="101" y="1298"/>
      <point x="87" y="1298" type="curve" smooth="yes"/>
      <point x="73" y="1298"/>
      <point x="62" y="1309"/>
      <point x="62" y="1323" type="curve" smooth="yes"/>
      <point x="62" y="1337"/>
      <point x="73" y="1348"/>
      <point x="87" y="1348" type="curve" smooth="yes"/>
      <point x="101" y="1348"/>
      <point x="112" y="1337"/>
    </contour>
    <contour>
      <point x="623" y="172" type="curve" smooth="yes"/>
      <point x="623" y="116"/>
      <point x="577" y="71"/>
      <point x="521" y="71" type="curve" smooth="yes"/>
      <point x="465" y="71"/>
      <point x="419" y="116"/>
      <point x="419" y="172" type="curve" smooth="yes"/>
      <point x="419" y="229"/>
      <point x="465" y="274"/>
      <point x="521" y="274" type="curve" smooth="yes"/>
      <point x="577" y="274"/>
      <point x="623" y="229"/>
    </contour>
    <contour>
      <point x="583" y="172" type="curve" smooth="yes"/>
      <point x="583" y="207"/>
      <point x="555" y="234"/>
      <point x="521" y="234" type="curve" smooth="yes"/>
      <point x="487" y="234"/>
      <point x="459" y="207"/>
      <point x="459" y="172" type="curve" smooth="yes"/>
      <point x="459" y="139"/>
      <point x="487" y="111"/>
      <point x="521" y="111" type="curve" smooth="yes"/>
      <point x="555" y="111"/>
      <point x="583" y="139"/>
    </contour>
  </outline>
</glyph>
<glyph name="uni1205" format="2">
  <advance width="1028"/>
  <unicode hex="1205"/>
  <outline>
    <contour>
      <point x="301" y="873" type="line"/>
      <point x="280" y="873" type="line"/>
      <point x="280" y="974" type="line"/>
      <point x="273" y="968"/>
      <point x="259" y="961"/>
      <point x="251" y="959" type="curve"/>
      <point x="251" y="978" type="line"/>
      <point x="260" y="982"/>
      <point x="276" y="995"/>
      <point x="280" y="999" type="curve"/>
      <point x="301" y="999" type="line"/>
    </contour>
    <contour>
      <point x="802" y="1048" type="line"/>
      <point x="787" y="1043" type="line"/>
      <point x="831" y="882"/>
      <point x="761.093" y="601.964"/>
      <point x="705" y="470" type="curve" smooth="yes"/>
      <point x="605.094" y="234.964"/>
      <point x="480" y="130"/>
      <point x="439" y="130" type="curve" smooth="yes"/>
      <point x="355" y="130"/>
      <point x="293.948" y="210.004"/>
      <point x="310" y="292" type="curve" smooth="yes"/>
      <point x="330.949" y="399.011"/>
      <point x="376" y="623"/>
      <point x="376" y="623" type="curve"/>
      <point x="389.729" y="691.855"/>
      <point x="345" y="741"/>
      <point x="273" y="741" type="curve" smooth="yes"/>
      <point x="195" y="741" type="line"/>
      <point x="223" y="926" type="line"/>
      <point x="252" y="922" type="line"/>
      <point x="230" y="771" type="line"/>
      <point x="273" y="771" type="line" smooth="yes"/>
      <point x="362" y="771"/>
      <point x="422.947" y="707.007"/>
      <point x="405" y="617" type="curve"/>
      <point x="405" y="617"/>
      <point x="359.546" y="393.089"/>
      <point x="339" y="286" type="curve" smooth="yes"/>
      <point x="326.546" y="221.086"/>
      <point x="375" y="160"/>
      <point x="439" y="160" type="curve" smooth="yes"/>
      <point x="458" y="160"/>
      <point x="576.937" y="244.028"/>
      <point x="677" y="482" type="curve" smooth="yes"/>
      <point x="732.939" y="615.035"/>
      <point x="798" y="884"/>
      <point x="758" y="1032" type="curve"/>
      <point x="740" y="1025" type="line"/>
      <point x="751" y="1090" type="line"/>
    </contour>
    <contour>
      <point x="916" y="1173" type="curve" smooth="yes"/>
      <point x="1028.47" y="967.734"/>
      <point x="931.813" y="571.102"/>
      <point x="861" y="404" type="curve" smooth="yes"/>
      <point x="767.804" y="184.08"/>
      <point x="605.004" y="-40"/>
      <point x="439" y="-40" type="curve" smooth="yes"/>
      <point x="244.004" y="-40"/>
      <point x="107.085" y="142.96"/>
      <point x="143" y="324" type="curve" smooth="yes"/>
      <point x="192" y="571" type="line"/>
      <point x="85" y="571" type="line" smooth="yes"/>
      <point x="44" y="571"/>
      <point x="4.10275" y="604.986"/>
      <point x="10" y="646" type="curve"/>
      <point x="10" y="646"/>
      <point x="38.7052" y="850.034"/>
      <point x="54" y="952" type="curve" smooth="yes"/>
      <point x="68.7072" y="1050.05"/>
      <point x="217.759" y="1028.03"/>
      <point x="203" y="929" type="curve" smooth="yes"/>
      <point x="172" y="721" type="line"/>
      <point x="273" y="721" type="line" smooth="yes"/>
      <point x="333" y="721"/>
      <point x="366.967" y="682.003"/>
      <point x="356" y="627" type="curve"/>
      <point x="356" y="627"/>
      <point x="310.771" y="403.054"/>
      <point x="290" y="296" type="curve" smooth="yes"/>
      <point x="271.771" y="202.047"/>
      <point x="341" y="110"/>
      <point x="439" y="110" type="curve" smooth="yes"/>
      <point x="495" y="110"/>
      <point x="624.017" y="228.99"/>
      <point x="723" y="462" type="curve" smooth="yes"/>
      <point x="785.026" y="608.012"/>
      <point x="870.144" y="946.076"/>
      <point x="785" y="1101" type="curve" smooth="yes"/>
      <point x="737.141" y="1188.08"/>
      <point x="868.484" y="1259.72"/>
    </contour>
    <contour>
      <point x="881" y="1154" type="curve" smooth="yes"/>
      <point x="858.554" y="1194.76"/>
      <point x="797.252" y="1161.14"/>
      <point x="820" y="1120" type="curve" smooth="yes"/>
      <point x="912.261" y="953.127"/>
      <point x="827.029" y="605.991"/>
      <point x="760" y="447" type="curve" smooth="yes"/>
      <point x="663.027" y="216.984"/>
      <point x="524" y="70"/>
      <point x="439" y="70" type="curve" smooth="yes"/>
      <point x="314" y="70"/>
      <point x="228.024" y="187"/>
      <point x="251" y="304" type="curve" smooth="yes"/>
      <point x="316" y="635" type="line" smooth="yes"/>
      <point x="322.084" y="665.981"/>
      <point x="302" y="681"/>
      <point x="273" y="681" type="curve" smooth="yes"/>
      <point x="125" y="681" type="line"/>
      <point x="135" y="744"/>
      <point x="165" y="931"/>
      <point x="165" y="931" type="curve"/>
      <point x="168.844" y="955.024"/>
      <point x="153.031" y="972.201"/>
      <point x="134" y="975" type="curve" smooth="yes"/>
      <point x="119.029" y="977.201"/>
      <point x="99.7358" y="966.04"/>
      <point x="96" y="942" type="curve" smooth="yes"/>
      <point x="50" y="646" type="line" smooth="yes"/>
      <point x="47.0465" y="626.994"/>
      <point x="66" y="611"/>
      <point x="85" y="611" type="curve" smooth="yes"/>
      <point x="240" y="611" type="line"/>
      <point x="182" y="316" type="line" smooth="yes"/>
      <point x="150.937" y="158.004"/>
      <point x="270" y="0"/>
      <point x="439" y="0" type="curve" smooth="yes"/>
      <point x="576" y="0"/>
      <point x="729.914" y="196.044"/>
      <point x="824" y="419" type="curve" smooth="yes"/>
      <point x="894.916" y="587.05"/>
      <point x="983.562" y="967.747"/>
    </contour>
    <contour>
      <point x="154" y="937" type="curve" smooth="yes"/>
      <point x="154" y="923"/>
      <point x="143" y="912"/>
      <point x="129" y="912" type="curve" smooth="yes"/>
      <point x="115" y="912"/>
      <point x="104" y="923"/>
      <point x="104" y="937" type="curve" smooth="yes"/>
      <point x="104" y="951"/>
      <point x="115" y="962"/>
      <point x="129" y="962" type="curve" smooth="yes"/>
      <point x="143" y="962"/>
      <point x="154" y="951"/>
    </contour>
  </outline>
</glyph>
<glyph name="uni1206" format="2">
  <advance width="1184"/>
  <unicode hex="1206"/>
  <outline>
    <contour>
      <point x="1174" y="1118" type="curve" smooth="yes"/>
      <point x="1174" y="983"/>
      <point x="1072" y="871"/>
      <point x="940" y="857" type="curve"/>
      <point x="940" y="838" type="line"/>
      <point x="883" y="871" type="line"/>
      <point x="940" y="904" type="line"/>
      <point x="940" y="888" type="line"/>
      <point x="1055" y="902"/>
      <point x="1144" y="998.993"/>
      <point x="1144" y="1118" type="curve" smooth="yes"/>
      <point x="1144" y="1246.01"/>
      <point x="1040" y="1350"/>
      <point x="912" y="1350" type="curve" smooth="yes"/>
      <point x="788" y="1350"/>
      <point x="670" y="1250"/>
      <point x="670" y="1118" type="curve"/>
      <point x="640" y="1118" type="line"/>
      <point x="640" y="1269"/>
      <point x="773.992" y="1380"/>
      <point x="912" y="1380" type="curve" smooth="yes"/>
      <point x="1057.01" y="1380"/>
      <point x="1174" y="1263"/>
    </contour>
    <contour>
      <point x="608" y="1131" type="curve" smooth="yes"/>
      <point x="608" y="1102"/>
      <point x="581" y="1082"/>
      <point x="541" y="1056" type="curve"/>
      <point x="605" y="1056" type="line"/>
      <point x="605" y="1036" type="line"/>
      <point x="520" y="1036" type="line"/>
      <point x="520" y="1054" type="line"/>
      <point x="571" y="1095"/>
      <point x="586" y="1114"/>
      <point x="586" y="1131" type="curve" smooth="yes"/>
      <point x="586" y="1139"/>
      <point x="582" y="1151"/>
      <point x="567" y="1151" type="curve" smooth="yes"/>
      <point x="551" y="1151"/>
      <point x="545" y="1138"/>
      <point x="544" y="1127" type="curve"/>
      <point x="522" y="1127" type="line"/>
      <point x="524" y="1153"/>
      <point x="539" y="1166"/>
      <point x="567" y="1166" type="curve" smooth="yes"/>
      <point x="593" y="1166"/>
      <point x="608" y="1152"/>
    </contour>
    <contour>
      <point x="426" y="1017" type="line"/>
      <point x="405" y="1017" type="line"/>
      <point x="405" y="1118" type="line"/>
      <point x="398" y="1112"/>
      <point x="384" y="1105"/>
      <point x="376" y="1103" type="curve"/>
      <point x="376" y="1122" type="line"/>
      <point x="385" y="1126"/>
      <point x="401" y="1139"/>
      <point x="405" y="1143" type="curve"/>
      <point x="426" y="1143" type="line"/>
    </contour>
    <contour>
      <point x="1124" y="1118" type="curve" smooth="yes"/>
      <point x="1124" y="1001"/>
      <point x="1029" y="906"/>
      <point x="912" y="906" type="curve" smooth="yes"/>
      <point x="886" y="906"/>
      <point x="862" y="912"/>
      <point x="840" y="921" type="curve"/>
      <point x="839" y="733"/>
      <point x="782.342" y="520.857"/>
      <point x="734" y="406" type="curve" smooth="yes"/>
      <point x="641.343" y="185.857"/>
      <point x="477.011" y="-38"/>
      <point x="311" y="-38" type="curve" smooth="yes"/>
      <point x="94.0038" y="-38"/>
      <point x="-22.125" y="125.829"/>
      <point x="15" y="324" type="curve"/>
      <point x="15" y="324"/>
      <point x="148.878" y="1037.02"/>
      <point x="160" y="1098" type="curve" smooth="yes"/>
      <point x="177.878" y="1196.02"/>
      <point x="326.103" y="1167.98"/>
      <point x="308" y="1071" type="curve" smooth="yes"/>
      <point x="256.097" y="792.949"/>
      <point x="163" y="301"/>
      <point x="163" y="301" type="curve"/>
      <point x="141.548" y="187.084"/>
      <point x="204" y="112"/>
      <point x="311" y="112" type="curve" smooth="yes"/>
      <point x="367" y="112"/>
      <point x="497.055" y="230.98"/>
      <point x="595" y="464" type="curve" smooth="yes"/>
      <point x="650.055" y="594.98"/>
      <point x="690" y="788"/>
      <point x="690" y="949" type="curve" smooth="yes"/>
      <point x="690" y="1118" type="line" smooth="yes"/>
      <point x="690" y="1238"/>
      <point x="797.992" y="1330"/>
      <point x="912" y="1330" type="curve" smooth="yes"/>
      <point x="1029.01" y="1330"/>
      <point x="1124" y="1235"/>
    </contour>
    <contour>
      <point x="686" y="934" type="line"/>
      <point x="668" y="934" type="line"/>
      <point x="670" y="777"/>
      <point x="621.026" y="576.985"/>
      <point x="577" y="472" type="curve" smooth="yes"/>
      <point x="478.033" y="236"/>
      <point x="352" y="132"/>
      <point x="311" y="132" type="curve" smooth="yes"/>
      <point x="217" y="132"/>
      <point x="163.926" y="195.009"/>
      <point x="183" y="297" type="curve"/>
      <point x="183" y="297"/>
      <point x="275" y="790"/>
      <point x="327" y="1067" type="curve"/>
      <point x="357" y="1061" type="line"/>
      <point x="305" y="784"/>
      <point x="212" y="292"/>
      <point x="212" y="292" type="curve"/>
      <point x="195.972" y="206.993"/>
      <point x="237" y="162"/>
      <point x="311" y="162" type="curve" smooth="yes"/>
      <point x="330" y="162"/>
      <point x="448.393" y="246.264"/>
      <point x="549" y="484" type="curve" smooth="yes"/>
      <point x="594.389" y="591.256"/>
      <point x="640" y="786"/>
      <point x="638" y="935" type="curve"/>
      <point x="620" y="934" type="line"/>
      <point x="653" y="991" type="line"/>
    </contour>
    <contour>
      <point x="1084" y="1118" type="curve" smooth="yes"/>
      <point x="1084" y="1213"/>
      <point x="1007" y="1290"/>
      <point x="912" y="1290" type="curve" smooth="yes"/>
      <point x="817" y="1290"/>
      <point x="730" y="1213"/>
      <point x="730" y="1118" type="curve" smooth="yes"/>
      <point x="730" y="949" type="line" smooth="yes"/>
      <point x="730" y="783"/>
      <point x="689.433" y="584.245"/>
      <point x="632" y="449" type="curve" smooth="yes"/>
      <point x="534.44" y="219.261"/>
      <point x="396.006" y="72"/>
      <point x="311" y="72" type="curve" smooth="yes"/>
      <point x="172.99" y="72"/>
      <point x="98.2502" y="169.131"/>
      <point x="124" y="307" type="curve"/>
      <point x="124" y="307"/>
      <point x="220.686" y="827.063"/>
      <point x="268" y="1078" type="curve" smooth="yes"/>
      <point x="276.685" y="1124.06"/>
      <point x="207.585" y="1137.08"/>
      <point x="199" y="1091" type="curve" smooth="yes"/>
      <point x="55" y="318" type="line" smooth="yes"/>
      <point x="22.7438" y="144.846"/>
      <point x="126.991" y="2"/>
      <point x="311" y="2" type="curve" smooth="yes"/>
      <point x="448.007" y="2"/>
      <point x="602.417" y="197.85"/>
      <point x="697" y="421" type="curve" smooth="yes"/>
      <point x="769.413" y="591.842"/>
      <point x="804" y="805"/>
      <point x="798" y="988" type="curve"/>
      <point x="830" y="970" type="line" smooth="yes"/>
      <point x="854.971" y="955.954"/>
      <point x="883" y="946"/>
      <point x="912" y="946" type="curve" smooth="yes"/>
      <point x="1007" y="946"/>
      <point x="1084" y="1023"/>
    </contour>
    <contour>
      <point x="1014" y="1118" type="curve" smooth="yes"/>
      <point x="1014" y="1062"/>
      <point x="968" y="1016"/>
      <point x="912" y="1016" type="curve" smooth="yes"/>
      <point x="856" y="1016"/>
      <point x="810" y="1062"/>
      <point x="810" y="1118" type="curve" smooth="yes"/>
      <point x="810" y="1174"/>
      <point x="856" y="1220"/>
      <point x="912" y="1220" type="curve" smooth="yes"/>
      <point x="968" y="1220"/>
      <point x="1014" y="1174"/>
    </contour>
    <contour>
      <point x="252" y="1080" type="curve" smooth="yes"/>
      <point x="252" y="1066"/>
      <point x="241" y="1055"/>
      <point x="227" y="1055" type="curve" smooth="yes"/>
      <point x="213" y="1055"/>
      <point x="202" y="1066"/>
      <point x="202" y="1080" type="curve" smooth="yes"/>
      <point x="202" y="1094"/>
      <point x="213" y="1105"/>
      <point x="227" y="1105" type="curve" smooth="yes"/>
      <point x="241" y="1105"/>
      <point x="252" y="1094"/>
    </contour>
    <contour>
      <point x="974" y="1118" type="curve" smooth="yes"/>
      <point x="974" y="1152"/>
      <point x="946" y="1180"/>
      <point x="912" y="1180" type="curve" smooth="yes"/>
      <point x="878" y="1180"/>
      <point x="850" y="1152"/>
      <point x="850" y="1118" type="curve" smooth="yes"/>
      <point x="850" y="1084"/>
      <point x="878" y="1056"/>
      <point x="912" y="1056" type="curve" smooth="yes"/>
      <point x="946" y="1056"/>
      <point x="974" y="1084"/>
    </contour>
  </outline>
</glyph>
<glyph name="uni1207" format="2">
  <advance width="1502"/>
  <unicode hex="1207"/>
  <outline>
    <contour>
      <point x="1488.31" y="1107.92" type="curve" smooth="yes"/>
      <point x="1488.31" y="972.921"/>
      <point x="1386.31" y="860.921"/>
      <point x="1254.31" y="846.921" type="curve"/>
      <point x="1254.31" y="827.921" type="line"/>
      <point x="1197.31" y="860.921" type="line"/>
      <point x="1254.31" y="893.921" type="line"/>
      <point x="1254.31" y="877.921" type="line"/>
      <point x="1369.31" y="891.921"/>
      <point x="1458.31" y="988.918"/>
      <point x="1458.31" y="1107.92" type="curve" smooth="yes"/>
      <point x="1458.31" y="1235.93"/>
      <point x="1354.31" y="1339.92"/>
      <point x="1226.31" y="1339.92" type="curve" smooth="yes"/>
      <point x="1102.31" y="1339.92"/>
      <point x="984.313" y="1239.92"/>
      <point x="984.313" y="1107.92" type="curve"/>
      <point x="954.313" y="1107.92" type="line"/>
      <point x="954.313" y="1258.92"/>
      <point x="1088.31" y="1369.92"/>
      <point x="1226.31" y="1369.92" type="curve" smooth="yes"/>
      <point x="1371.32" y="1369.92"/>
      <point x="1488.31" y="1252.92"/>
    </contour>
    <contour>
      <point x="922.313" y="1120.92" type="curve" smooth="yes"/>
      <point x="922.313" y="1091.92"/>
      <point x="895.313" y="1071.92"/>
      <point x="855.313" y="1045.92" type="curve"/>
      <point x="919.313" y="1045.92" type="line"/>
      <point x="919.313" y="1025.92" type="line"/>
      <point x="834.313" y="1025.92" type="line"/>
      <point x="834.313" y="1043.92" type="line"/>
      <point x="885.313" y="1084.92"/>
      <point x="900.313" y="1103.92"/>
      <point x="900.313" y="1120.92" type="curve" smooth="yes"/>
      <point x="900.313" y="1128.92"/>
      <point x="896.313" y="1140.92"/>
      <point x="881.313" y="1140.92" type="curve" smooth="yes"/>
      <point x="865.313" y="1140.92"/>
      <point x="859.313" y="1127.92"/>
      <point x="858.313" y="1116.92" type="curve"/>
      <point x="836.313" y="1116.92" type="line"/>
      <point x="838.313" y="1142.92"/>
      <point x="853.313" y="1155.92"/>
      <point x="881.313" y="1155.92" type="curve" smooth="yes"/>
      <point x="907.313" y="1155.92"/>
      <point x="922.313" y="1141.92"/>
    </contour>
    <contour>
      <point x="740.313" y="1006.92" type="line"/>
      <point x="719.313" y="1006.92" type="line"/>
      <point x="719.313" y="1107.92" type="line"/>
      <point x="712.313" y="1101.92"/>
      <point x="698.313" y="1094.92"/>
      <point x="690.313" y="1092.92" type="curve"/>
      <point x="690.313" y="1111.92" type="line"/>
      <point x="699.313" y="1115.92"/>
      <point x="715.313" y="1128.92"/>
      <point x="719.313" y="1132.92" type="curve"/>
      <point x="740.313" y="1132.92" type="line"/>
    </contour>
    <contour>
      <point x="1441.59" y="1103.87" type="curve" smooth="yes"/>
      <point x="1441.59" y="989.433"/>
      <point x="1346.16" y="897.433"/>
      <point x="1229.62" y="897.433" type="curve" smooth="yes"/>
      <point x="1204.11" y="897.433"/>
      <point x="1179.8" y="903.216"/>
      <point x="1157.73" y="911.974" type="curve"/>
      <point x="1156.65" y="730.12"/>
      <point x="1099.86" y="524.383"/>
      <point x="1051.24" y="412.672" type="curve" smooth="yes"/>
      <point x="958.365" y="199.285"/>
      <point x="794.737" y="-18.0226"/>
      <point x="628.531" y="-18.0226" type="curve" smooth="yes"/>
      <point x="433.741" y="-18.0226"/>
      <point x="298.62" y="159.208"/>
      <point x="332.8" y="335.872" type="curve" smooth="yes"/>
      <point x="386.253" y="612.147" type="line"/>
      <point x="88.6786" y="538.624" type="line" smooth="yes"/>
      <point x="15.6093" y="520.57"/>
      <point x="-41.1247" y="649.379"/>
      <point x="80.6913" y="681.779" type="curve" smooth="yes"/>
      <point x="417.178" y="771.277" type="line"/>
      <point x="436.055" y="868.802"/>
      <point x="476.738" y="1084.68"/>
      <point x="476.738" y="1084.68" type="curve"/>
      <point x="485.27" y="1129.58"/>
      <point x="522.753" y="1150.88"/>
      <point x="565.043" y="1143.19" type="curve" smooth="yes"/>
      <point x="598.655" y="1137.08"/>
      <point x="634.673" y="1106.03"/>
      <point x="625.255" y="1057.38" type="curve" smooth="yes"/>
      <point x="574.491" y="795.159"/>
      <point x="480.424" y="315.818"/>
      <point x="480.424" y="315.818" type="curve"/>
      <point x="458.542" y="203.781"/>
      <point x="520.011" y="128.819"/>
      <point x="628.531" y="128.819" type="curve" smooth="yes"/>
      <point x="684.952" y="128.819"/>
      <point x="814.586" y="243.9"/>
      <point x="912.999" y="470.016" type="curve" smooth="yes"/>
      <point x="968.016" y="596.425"/>
      <point x="1007.01" y="784.472"/>
      <point x="1007.21" y="940.032" type="curve" smooth="yes"/>
      <point x="1007.41" y="1103.87" type="line" smooth="yes"/>
      <point x="1007.56" y="1221.11"/>
      <point x="1116.12" y="1310.11"/>
      <point x="1229.62" y="1310.11" type="curve" smooth="yes"/>
      <point x="1346.14" y="1310.11"/>
      <point x="1441.59" y="1218.34"/>
    </contour>
    <contour>
      <point x="1000.31" y="923.92" type="line"/>
      <point x="982.313" y="923.92" type="line"/>
      <point x="984.313" y="766.92"/>
      <point x="935.339" y="566.909"/>
      <point x="891.313" y="461.92" type="curve" smooth="yes"/>
      <point x="792.35" y="225.927"/>
      <point x="666.313" y="121.92"/>
      <point x="625.313" y="121.92" type="curve" smooth="yes"/>
      <point x="531.313" y="121.92"/>
      <point x="478.239" y="184.93"/>
      <point x="497.313" y="286.92" type="curve"/>
      <point x="497.313" y="286.92"/>
      <point x="589.313" y="779.92"/>
      <point x="641.313" y="1056.92" type="curve"/>
      <point x="671.313" y="1050.92" type="line"/>
      <point x="619.313" y="773.92"/>
      <point x="526.313" y="281.92"/>
      <point x="526.313" y="281.92" type="curve"/>
      <point x="510.27" y="196.838"/>
      <point x="551.313" y="151.92"/>
      <point x="625.313" y="151.92" type="curve" smooth="yes"/>
      <point x="644.313" y="151.92"/>
      <point x="762.72" y="236.216"/>
      <point x="863.313" y="473.92" type="curve" smooth="yes"/>
      <point x="908.685" y="581.139"/>
      <point x="954.313" y="775.92"/>
      <point x="952.313" y="924.92" type="curve"/>
      <point x="934.313" y="923.92" type="line"/>
      <point x="967.313" y="980.92" type="line"/>
    </contour>
    <contour>
      <point x="390.759" y="787.865" type="line"/>
      <point x="90.1775" y="707.985" type="line"/>
      <point x="94.6175" y="691.609" type="line"/>
      <point x="30.9248" y="708.608" type="line"/>
      <point x="77.4145" y="755.097" type="line"/>
      <point x="82.3133" y="737.034" type="line"/>
      <point x="383.181" y="816.947" type="line"/>
    </contour>
    <contour>
      <point x="362.935" y="882.745" type="line"/>
      <point x="349.935" y="882.745" type="line"/>
      <point x="349.935" y="855.745" type="line"/>
      <point x="328.935" y="855.745" type="line"/>
      <point x="328.935" y="882.745" type="line"/>
      <point x="268.935" y="882.745" type="line"/>
      <point x="268.935" y="907.745" type="line"/>
      <point x="320.935" y="982.745" type="line"/>
      <point x="349.935" y="982.745" type="line"/>
      <point x="349.935" y="901.745" type="line"/>
      <point x="362.935" y="901.745" type="line"/>
    </contour>
    <contour>
      <point x="1401.45" y="1103.87" type="curve" smooth="yes"/>
      <point x="1401.45" y="1195.11"/>
      <point x="1325.19" y="1269.96"/>
      <point x="1229.62" y="1269.96" type="curve" smooth="yes"/>
      <point x="1133.96" y="1269.96"/>
      <point x="1047.67" y="1195.03"/>
      <point x="1047.55" y="1103.87" type="curve" smooth="yes"/>
      <point x="1047.35" y="940.032" type="line" smooth="yes"/>
      <point x="1047.15" y="779.344"/>
      <point x="1007.2" y="585.782"/>
      <point x="949.863" y="454.041" type="curve" smooth="yes"/>
      <point x="852.753" y="230.921"/>
      <point x="713.795" y="88.6785"/>
      <point x="628.531" y="88.6785" type="curve" smooth="yes"/>
      <point x="489.557" y="88.6785"/>
      <point x="415.941" y="184.285"/>
      <point x="441.924" y="318.923" type="curve"/>
      <point x="441.924" y="318.923" name=".hr01"/>
      <point x="539.314" y="824.351"/>
      <point x="585.933" y="1065.16" type="curve" smooth="yes"/>
      <point x="594.372" y="1108.76"/>
      <point x="525.602" y="1120.8"/>
      <point x="517.12" y="1077.04" type="curve" smooth="yes"/>
      <point x="451.584" y="738.918" type="line"/>
      <point x="326.538" y="705.71"/>
      <point x="199.498" y="679.62"/>
      <point x="76.5953" y="639.181" type="curve" smooth="yes"/>
      <point x="30.3491" y="623.964"/>
      <point x="53.2156" y="571.119"/>
      <point x="79.2576" y="577.536" type="curve" smooth="yes"/>
      <point x="437.453" y="665.805" type="line"/>
      <point x="372.122" y="328.089" type="line" smooth="yes"/>
      <point x="342.568" y="175.318"/>
      <point x="459.523" y="22.1185"/>
      <point x="628.531" y="22.1185" type="curve" smooth="yes"/>
      <point x="765.875" y="22.1185"/>
      <point x="920.159" y="212.174"/>
      <point x="1014.37" y="428.646" type="curve" smooth="yes"/>
      <point x="1086.31" y="593.928"/>
      <point x="1122" y="800.575"/>
      <point x="1116.16" y="978.739" type="curve"/>
      <point x="1152.52" y="958.316"/>
      <point x="1186.02" y="937.574"/>
      <point x="1229.62" y="937.574" type="curve" smooth="yes"/>
      <point x="1325.16" y="937.574"/>
      <point x="1401.45" y="1012.6"/>
    </contour>
    <contour>
      <point x="328.935" y="901.745" type="line"/>
      <point x="328.935" y="966.745" type="line"/>
      <point x="283.935" y="901.745" type="line"/>
    </contour>
    <contour>
      <point x="1331.61" y="1103.87" type="curve" smooth="yes"/>
      <point x="1331.61" y="1048.72"/>
      <point x="1285.11" y="1004.13"/>
      <point x="1229.62" y="1004.13" type="curve" smooth="yes"/>
      <point x="1174.2" y="1004.13"/>
      <point x="1127.42" y="1048.66"/>
      <point x="1127.42" y="1103.87" type="curve" smooth="yes"/>
      <point x="1127.42" y="1159.15"/>
      <point x="1174.26" y="1203.4"/>
      <point x="1229.62" y="1203.4" type="curve" smooth="yes"/>
      <point x="1285.04" y="1203.4"/>
      <point x="1331.61" y="1159.08"/>
    </contour>
    <contour>
      <point x="577.101" y="1060.09" type="curve" smooth="yes"/>
      <point x="577.101" y="1046.28"/>
      <point x="565.908" y="1035.09"/>
      <point x="552.101" y="1035.09" type="curve" smooth="yes"/>
      <point x="538.294" y="1035.09"/>
      <point x="527.101" y="1046.28"/>
      <point x="527.101" y="1060.09" type="curve" smooth="yes"/>
      <point x="527.101" y="1073.9"/>
      <point x="538.294" y="1085.09"/>
      <point x="552.101" y="1085.09" type="curve" smooth="yes"/>
      <point x="565.908" y="1085.09"/>
      <point x="577.101" y="1073.9"/>
    </contour>
    <contour>
      <point x="1291.47" y="1103.87" type="curve" smooth="yes"/>
      <point x="1291.47" y="1135.86"/>
      <point x="1264.11" y="1163.26"/>
      <point x="1229.62" y="1163.26" type="curve" smooth="yes"/>
      <point x="1195.07" y="1163.26"/>
      <point x="1167.56" y="1135.79"/>
      <point x="1167.56" y="1103.87" type="curve" smooth="yes"/>
      <point x="1167.56" y="1071.88"/>
      <point x="1195.13" y="1044.28"/>
      <point x="1229.62" y="1044.28" type="curve" smooth="yes"/>
      <point x="1264.04" y="1044.28"/>
      <point x="1291.47" y="1071.82"/>
    </contour>
  </outline>
</glyph>
<glyph name="uni1208" format="2">
  <advance width="822"/>
  <unicode hex="1208"/>
  <outline>
    <contour>
      <point x="615" y="1368" type="line"/>
      <point x="594" y="1368" type="line"/>
      <point x="594" y="1469" type="line"/>
      <point x="587" y="1463"/>
      <point x="573" y="1456"/>
      <point x="565" y="1454" type="curve"/>
      <point x="565" y="1473" type="line"/>
      <point x="574" y="1477"/>
      <point x="590" y="1490"/>
      <point x="594" y="1494" type="curve"/>
      <point x="615" y="1494" type="line"/>
    </contour>
    <contour>
      <point x="297" y="1339" type="curve" smooth="yes"/>
      <point x="297" y="1310"/>
      <point x="270" y="1290"/>
      <point x="230" y="1264" type="curve"/>
      <point x="294" y="1264" type="line"/>
      <point x="294" y="1244" type="line"/>
      <point x="209" y="1244" type="line"/>
      <point x="209" y="1262" type="line"/>
      <point x="260" y="1303"/>
      <point x="275" y="1322"/>
      <point x="275" y="1339" type="curve" smooth="yes"/>
      <point x="275" y="1347"/>
      <point x="271" y="1359"/>
      <point x="256" y="1359" type="curve" smooth="yes"/>
      <point x="240" y="1359"/>
      <point x="234" y="1346"/>
      <point x="233" y="1335" type="curve"/>
      <point x="211" y="1335" type="line"/>
      <point x="213" y="1361"/>
      <point x="228" y="1374"/>
      <point x="256" y="1374" type="curve" smooth="yes"/>
      <point x="282" y="1374"/>
      <point x="297" y="1360"/>
    </contour>
    <contour>
      <point x="829" y="57" type="line"/>
      <point x="796" y="0" type="line"/>
      <point x="763" y="57" type="line"/>
      <point x="782" y="57" type="line"/>
      <point x="782" y="835" type="line" smooth="yes"/>
      <point x="782" y="968.003"/>
      <point x="658" y="1196"/>
      <point x="490" y="1406" type="curve"/>
      <point x="513" y="1424" type="line"/>
      <point x="682" y="1215"/>
      <point x="812" y="980.003"/>
      <point x="812" y="835" type="curve" smooth="yes"/>
      <point x="812" y="57" type="line"/>
    </contour>
    <contour>
      <point x="762" y="35" type="line" smooth="yes"/>
      <point x="762" y="-6"/>
      <point x="728" y="-40"/>
      <point x="687" y="-40" type="curve" smooth="yes"/>
      <point x="644" y="-40"/>
      <point x="612" y="-5"/>
      <point x="612" y="35" type="curve" smooth="yes"/>
      <point x="612" y="800" type="line" smooth="yes"/>
      <point x="612" y="923.001"/>
      <point x="535" y="1047"/>
      <point x="497" y="1101" type="curve"/>
      <point x="212" y="936"/>
      <point x="178.121" y="765.045"/>
      <point x="166" y="467" type="curve" smooth="yes"/>
      <point x="161.119" y="346.973"/>
      <point x="160.806" y="206"/>
      <point x="160" y="35" type="curve" smooth="yes"/>
      <point x="159.807" y="-6"/>
      <point x="126" y="-40"/>
      <point x="85" y="-40" type="curve" smooth="yes"/>
      <point x="44" y="-40"/>
      <point x="9.6975" y="-6.00225"/>
      <point x="10" y="35" type="curve" smooth="yes"/>
      <point x="11.6973" y="265.013"/>
      <point x="-2.8287" y="567.958"/>
      <point x="55" y="790" type="curve" smooth="yes"/>
      <point x="103.173" y="974.965"/>
      <point x="206" y="1109"/>
      <point x="413" y="1221" type="curve"/>
      <point x="381" y="1271"/>
      <point x="297.227" y="1347.72"/>
      <point x="369" y="1405" type="curve" smooth="yes"/>
      <point x="401.227" y="1430.72"/>
      <point x="447.705" y="1425.77"/>
      <point x="474" y="1393" type="curve" smooth="yes"/>
      <point x="642.717" y="1182.75"/>
      <point x="762" y="960"/>
      <point x="762" y="835" type="curve" smooth="yes"/>
    </contour>
    <contour>
      <point x="369" y="1219" type="line"/>
      <point x="42" y="1028"/>
      <point x="0.542" y="758.054"/>
      <point x="-9" y="416" type="curve" smooth="yes"/>
      <point x="-12.459" y="291.998"/>
      <point x="-9" y="167"/>
      <point x="-10" y="57" type="curve"/>
      <point x="9" y="57" type="line"/>
      <point x="-24" y="0" type="line"/>
      <point x="-57" y="57" type="line"/>
      <point x="-40" y="57" type="line"/>
      <point x="-39" y="302"/>
      <point x="-55.7083" y="563.924"/>
      <point x="7" y="803" type="curve" smooth="yes"/>
      <point x="56.2912" y="990.924"/>
      <point x="159" y="1131"/>
      <point x="354" y="1245" type="curve"/>
    </contour>
    <contour>
      <point x="722" y="35" type="curve" smooth="yes"/>
      <point x="722" y="835" type="line" smooth="yes"/>
      <point x="722" y="916"/>
      <point x="594.99" y="1196"/>
      <point x="465" y="1353" type="curve" smooth="yes"/>
      <point x="440.994" y="1381.99"/>
      <point x="412.132" y="1388.84"/>
      <point x="394" y="1374" type="curve" smooth="yes"/>
      <point x="379.134" y="1361.84"/>
      <point x="376.069" y="1340.06"/>
      <point x="388" y="1325" type="curve" smooth="yes"/>
      <point x="418.072" y="1287.05"/>
      <point x="444" y="1247"/>
      <point x="469" y="1205" type="curve"/>
      <point x="119" y="1024"/>
      <point x="68.3952" y="814.984"/>
      <point x="55" y="460" type="curve" smooth="yes"/>
      <point x="50.3958" y="337.984"/>
      <point x="50.8948" y="197"/>
      <point x="50" y="35" type="curve" smooth="yes"/>
      <point x="49.8953" y="16"/>
      <point x="66" y="0"/>
      <point x="85" y="0" type="curve" smooth="yes"/>
      <point x="104" y="0"/>
      <point x="119.834" y="15.9987"/>
      <point x="120" y="35" type="curve" smooth="yes"/>
      <point x="121.834" y="245.014"/>
      <point x="108.371" y="565.897"/>
      <point x="164" y="768" type="curve" smooth="yes"/>
      <point x="217.37" y="961.896"/>
      <point x="338" y="1057"/>
      <point x="508" y="1153" type="curve"/>
      <point x="582" y="1055"/>
      <point x="652" y="928.001"/>
      <point x="652" y="800" type="curve" smooth="yes"/>
      <point x="652" y="35" type="line" smooth="yes"/>
      <point x="652" y="16"/>
      <point x="667" y="0"/>
      <point x="687" y="0" type="curve" smooth="yes"/>
      <point x="706" y="0"/>
      <point x="722" y="16"/>
    </contour>
    <contour>
      <point x="447" y="1340" type="curve" smooth="yes"/>
      <point x="447" y="1326"/>
      <point x="436" y="1315"/>
      <point x="422" y="1315" type="curve" smooth="yes"/>
      <point x="408" y="1315"/>
      <point x="397" y="1326"/>
      <point x="397" y="1340" type="curve" smooth="yes"/>
      <point x="397" y="1354"/>
      <point x="408" y="1365"/>
      <point x="422" y="1365" type="curve" smooth="yes"/>
      <point x="436" y="1365"/>
      <point x="447" y="1354"/>
    </contour>
  </outline>
</glyph>
<glyph name="uni120A" format="2">
  <advance width="1254"/>
  <unicode hex="120A"/>
  <outline>
    <contour>
      <point x="615" y="1368" type="line"/>
      <point x="594" y="1368" type="line"/>
      <point x="594" y="1469" type="line"/>
      <point x="587" y="1463"/>
      <point x="573" y="1456"/>
      <point x="565" y="1454" type="curve"/>
      <point x="565" y="1473" type="line"/>
      <point x="574" y="1477"/>
      <point x="590" y="1490"/>
      <point x="594" y="1494" type="curve"/>
      <point x="615" y="1494" type="line"/>
    </contour>
    <contour>
      <point x="312" y="1274" type="curve" smooth="yes"/>
      <point x="312" y="1255"/>
      <point x="298" y="1236"/>
      <point x="266" y="1236" type="curve" smooth="yes"/>
      <point x="233" y="1236"/>
      <point x="225" y="1256"/>
      <point x="225" y="1272" type="curve"/>
      <point x="247" y="1272" type="line"/>
      <point x="247" y="1260"/>
      <point x="255" y="1252"/>
      <point x="267" y="1252" type="curve" smooth="yes"/>
      <point x="279" y="1252"/>
      <point x="290" y="1260"/>
      <point x="290" y="1274" type="curve" smooth="yes"/>
      <point x="290" y="1279"/>
      <point x="286" y="1296"/>
      <point x="268" y="1296" type="curve" smooth="yes"/>
      <point x="257" y="1296" type="line"/>
      <point x="257" y="1310" type="line"/>
      <point x="285" y="1310"/>
      <point x="287" y="1322"/>
      <point x="287" y="1332" type="curve" smooth="yes"/>
      <point x="287" y="1341"/>
      <point x="283" y="1351"/>
      <point x="270" y="1351" type="curve" smooth="yes"/>
      <point x="256" y="1351"/>
      <point x="250" y="1345"/>
      <point x="249" y="1333" type="curve"/>
      <point x="227" y="1333" type="line"/>
      <point x="228" y="1355"/>
      <point x="246" y="1366"/>
      <point x="269" y="1366" type="curve" smooth="yes"/>
      <point x="291" y="1366"/>
      <point x="309" y="1354"/>
      <point x="309" y="1332" type="curve" smooth="yes"/>
      <point x="309" y="1313"/>
      <point x="297" y="1308"/>
      <point x="286" y="1304" type="curve"/>
      <point x="297" y="1301"/>
      <point x="312" y="1292"/>
    </contour>
    <contour>
      <point x="829" y="216" type="line"/>
      <point x="796" y="159" type="line"/>
      <point x="763" y="216" type="line"/>
      <point x="782" y="216" type="line"/>
      <point x="782" y="835" type="line" smooth="yes"/>
      <point x="782" y="968.005"/>
      <point x="658" y="1196"/>
      <point x="490" y="1406" type="curve"/>
      <point x="513" y="1424" type="line"/>
      <point x="682" y="1215"/>
      <point x="812" y="980.005"/>
      <point x="812" y="835" type="curve" smooth="yes"/>
      <point x="812" y="216" type="line"/>
    </contour>
    <contour>
      <point x="1194" y="35" type="curve" smooth="yes"/>
      <point x="1194" y="-5"/>
      <point x="1162" y="-40"/>
      <point x="1119" y="-40" type="curve" smooth="yes"/>
      <point x="685" y="-40" type="line" smooth="yes"/>
      <point x="641.999" y="-40"/>
      <point x="611" y="-4"/>
      <point x="611" y="35" type="curve" smooth="yes"/>
      <point x="611" y="800" type="line" smooth="yes"/>
      <point x="611" y="923.001"/>
      <point x="535" y="1047"/>
      <point x="497" y="1101" type="curve"/>
      <point x="212" y="936"/>
      <point x="178.121" y="765.045"/>
      <point x="166" y="467" type="curve" smooth="yes"/>
      <point x="161.119" y="346.973"/>
      <point x="160.806" y="206"/>
      <point x="160" y="35" type="curve" smooth="yes"/>
      <point x="159.807" y="-6"/>
      <point x="126" y="-40"/>
      <point x="85" y="-40" type="curve" smooth="yes"/>
      <point x="44" y="-40"/>
      <point x="9.6975" y="-6.00225"/>
      <point x="10" y="35" type="curve" smooth="yes"/>
      <point x="11.6973" y="265.013"/>
      <point x="-2.8287" y="567.958"/>
      <point x="55" y="790" type="curve" smooth="yes"/>
      <point x="103.173" y="974.965"/>
      <point x="206" y="1109"/>
      <point x="413" y="1221" type="curve"/>
      <point x="380" y="1270"/>
      <point x="296.227" y="1347.72"/>
      <point x="368" y="1405" type="curve" smooth="yes"/>
      <point x="400.227" y="1430.72"/>
      <point x="446.705" y="1425.77"/>
      <point x="473" y="1393" type="curve" smooth="yes"/>
      <point x="641.717" y="1182.75"/>
      <point x="761" y="961.001"/>
      <point x="761" y="835" type="curve" smooth="yes"/>
      <point x="761" y="110" type="line"/>
      <point x="1119" y="110" type="line" smooth="yes"/>
      <point x="1160" y="110"/>
      <point x="1194" y="76"/>
    </contour>
    <contour>
      <point x="1132" y="-88" type="line"/>
      <point x="1075" y="-121" type="line"/>
      <point x="1075" y="-103" type="line"/>
      <point x="772" y="-103" type="line"/>
      <point x="772" y="-73" type="line"/>
      <point x="1075" y="-73" type="line"/>
      <point x="1075" y="-55" type="line"/>
    </contour>
    <contour>
      <point x="369" y="1219" type="line"/>
      <point x="42" y="1028"/>
      <point x="0.542" y="758.054"/>
      <point x="-9" y="416" type="curve" smooth="yes"/>
      <point x="-12.459" y="291.998"/>
      <point x="-9" y="167"/>
      <point x="-10" y="57" type="curve"/>
      <point x="9" y="57" type="line"/>
      <point x="-24" y="0" type="line"/>
      <point x="-57" y="57" type="line"/>
      <point x="-40" y="57" type="line"/>
      <point x="-39" y="302"/>
      <point x="-55.7083" y="563.924"/>
      <point x="7" y="803" type="curve" smooth="yes"/>
      <point x="56.2912" y="990.924"/>
      <point x="159" y="1131"/>
      <point x="354" y="1245" type="curve"/>
    </contour>
    <contour>
      <point x="732" y="-106" type="curve" smooth="yes"/>
      <point x="732" y="-135"/>
      <point x="705" y="-155"/>
      <point x="665" y="-181" type="curve"/>
      <point x="729" y="-181" type="line"/>
      <point x="729" y="-201" type="line"/>
      <point x="644" y="-201" type="line"/>
      <point x="644" y="-183" type="line"/>
      <point x="695" y="-142"/>
      <point x="710" y="-123"/>
      <point x="710" y="-106" type="curve" smooth="yes"/>
      <point x="710" y="-98"/>
      <point x="706" y="-86"/>
      <point x="691" y="-86" type="curve" smooth="yes"/>
      <point x="675" y="-86"/>
      <point x="669" y="-99"/>
      <point x="668" y="-110" type="curve"/>
      <point x="646" y="-110" type="line"/>
      <point x="648" y="-84"/>
      <point x="663" y="-71"/>
      <point x="691" y="-71" type="curve" smooth="yes"/>
      <point x="717" y="-71"/>
      <point x="732" y="-85"/>
    </contour>
    <contour>
      <point x="1154" y="35" type="curve" smooth="yes"/>
      <point x="1154" y="54"/>
      <point x="1138" y="70"/>
      <point x="1119" y="70" type="curve" smooth="yes"/>
      <point x="721" y="70" type="line"/>
      <point x="721" y="835" type="line" smooth="yes"/>
      <point x="721" y="916"/>
      <point x="593.99" y="1196"/>
      <point x="464" y="1353" type="curve" smooth="yes"/>
      <point x="439.994" y="1381.99"/>
      <point x="411.132" y="1388.84"/>
      <point x="393" y="1374" type="curve" smooth="yes"/>
      <point x="378.134" y="1361.84"/>
      <point x="375.069" y="1340.06"/>
      <point x="387" y="1325" type="curve" smooth="yes"/>
      <point x="417.072" y="1287.05"/>
      <point x="444" y="1247"/>
      <point x="469" y="1205" type="curve"/>
      <point x="119" y="1024"/>
      <point x="68.3952" y="814.984"/>
      <point x="55" y="460" type="curve" smooth="yes"/>
      <point x="50.3958" y="337.984"/>
      <point x="50.8948" y="197"/>
      <point x="50" y="35" type="curve" smooth="yes"/>
      <point x="49.8953" y="16"/>
      <point x="66" y="0"/>
      <point x="85" y="0" type="curve" smooth="yes"/>
      <point x="104" y="0"/>
      <point x="119.834" y="15.9987"/>
      <point x="120" y="35" type="curve" smooth="yes"/>
      <point x="121.834" y="245.014"/>
      <point x="108.371" y="565.897"/>
      <point x="164" y="768" type="curve" smooth="yes"/>
      <point x="217.37" y="961.896"/>
      <point x="338" y="1057"/>
      <point x="508" y="1153" type="curve"/>
      <point x="582" y="1054"/>
      <point x="651" y="928.001"/>
      <point x="651" y="800" type="curve" smooth="yes"/>
      <point x="651" y="35" type="line" smooth="yes"/>
      <point x="651" y="16"/>
      <point x="666" y="0"/>
      <point x="685" y="0" type="curve" smooth="yes"/>
      <point x="1119" y="0" type="line" smooth="yes"/>
      <point x="1139" y="0"/>
      <point x="1154" y="16"/>
    </contour>
    <contour>
      <point x="447" y="1340" type="curve" smooth="yes"/>
      <point x="447" y="1326"/>
      <point x="436" y="1315"/>
      <point x="422" y="1315" type="curve" smooth="yes"/>
      <point x="408" y="1315"/>
      <point x="397" y="1326"/>
      <point x="397" y="1340" type="curve" smooth="yes"/>
      <point x="397" y="1354"/>
      <point x="408" y="1365"/>
      <point x="422" y="1365" type="curve" smooth="yes"/>
      <point x="436" y="1365"/>
      <point x="447" y="1354"/>
    </contour>
  </outline>
</glyph>
<glyph name="uni120C" format="2">
  <advance width="1106"/>
  <unicode hex="120C"/>
  <outline>
    <contour>
      <point x="615" y="1368" type="line"/>
      <point x="594" y="1368" type="line"/>
      <point x="594" y="1469" type="line"/>
      <point x="587" y="1463"/>
      <point x="573" y="1456"/>
      <point x="565" y="1454" type="curve"/>
      <point x="565" y="1473" type="line"/>
      <point x="574" y="1477"/>
      <point x="590" y="1490"/>
      <point x="594" y="1494" type="curve"/>
      <point x="615" y="1494" type="line"/>
    </contour>
    <contour>
      <point x="829" y="526" type="line"/>
      <point x="796" y="469" type="line"/>
      <point x="763" y="526" type="line"/>
      <point x="782" y="526" type="line"/>
      <point x="782" y="835" type="line" smooth="yes"/>
      <point x="782" y="968.003"/>
      <point x="658" y="1196"/>
      <point x="490" y="1406" type="curve"/>
      <point x="513" y="1424" type="line"/>
      <point x="682" y="1215"/>
      <point x="812" y="980.004"/>
      <point x="812" y="835" type="curve" smooth="yes"/>
      <point x="812" y="526" type="line"/>
    </contour>
    <contour>
      <point x="317" y="1277" type="curve" smooth="yes"/>
      <point x="317" y="1258"/>
      <point x="303" y="1239"/>
      <point x="271" y="1239" type="curve" smooth="yes"/>
      <point x="238" y="1239"/>
      <point x="230" y="1259"/>
      <point x="230" y="1275" type="curve"/>
      <point x="252" y="1275" type="line"/>
      <point x="252" y="1263"/>
      <point x="260" y="1255"/>
      <point x="272" y="1255" type="curve" smooth="yes"/>
      <point x="284" y="1255"/>
      <point x="295" y="1263"/>
      <point x="295" y="1277" type="curve" smooth="yes"/>
      <point x="295" y="1282"/>
      <point x="291" y="1299"/>
      <point x="273" y="1299" type="curve" smooth="yes"/>
      <point x="262" y="1299" type="line"/>
      <point x="262" y="1313" type="line"/>
      <point x="290" y="1313"/>
      <point x="292" y="1325"/>
      <point x="292" y="1335" type="curve" smooth="yes"/>
      <point x="292" y="1344"/>
      <point x="288" y="1354"/>
      <point x="275" y="1354" type="curve" smooth="yes"/>
      <point x="261" y="1354"/>
      <point x="255" y="1348"/>
      <point x="254" y="1336" type="curve"/>
      <point x="232" y="1336" type="line"/>
      <point x="233" y="1358"/>
      <point x="251" y="1369"/>
      <point x="274" y="1369" type="curve" smooth="yes"/>
      <point x="296" y="1369"/>
      <point x="314" y="1357"/>
      <point x="314" y="1335" type="curve" smooth="yes"/>
      <point x="314" y="1316"/>
      <point x="302" y="1311"/>
      <point x="291" y="1307" type="curve"/>
      <point x="302" y="1304"/>
      <point x="317" y="1295"/>
    </contour>
    <contour>
      <point x="1046" y="172" type="curve" smooth="yes"/>
      <point x="1046" y="55"/>
      <point x="951.008" y="-40"/>
      <point x="834" y="-40" type="curve" smooth="yes"/>
      <point x="719.992" y="-40"/>
      <point x="612" y="52"/>
      <point x="612" y="172" type="curve" smooth="yes"/>
      <point x="612" y="800" type="line" smooth="yes"/>
      <point x="612" y="923"/>
      <point x="535" y="1047"/>
      <point x="497" y="1101" type="curve"/>
      <point x="212" y="936"/>
      <point x="178.121" y="765.045"/>
      <point x="166" y="467" type="curve" smooth="yes"/>
      <point x="161.119" y="346.973"/>
      <point x="160.806" y="206"/>
      <point x="160" y="35" type="curve" smooth="yes"/>
      <point x="159.807" y="-6"/>
      <point x="126" y="-40"/>
      <point x="85" y="-40" type="curve" smooth="yes"/>
      <point x="44" y="-40"/>
      <point x="9.6975" y="-6.00225"/>
      <point x="10" y="35" type="curve" smooth="yes"/>
      <point x="11.6973" y="265.013"/>
      <point x="-2.8287" y="567.958"/>
      <point x="55" y="790" type="curve" smooth="yes"/>
      <point x="103.173" y="974.965"/>
      <point x="206" y="1109"/>
      <point x="413" y="1221" type="curve"/>
      <point x="381" y="1271"/>
      <point x="297.227" y="1347.72"/>
      <point x="369" y="1405" type="curve" smooth="yes"/>
      <point x="401.227" y="1430.72"/>
      <point x="447.64" y="1425.71"/>
      <point x="474" y="1393" type="curve" smooth="yes"/>
      <point x="642.632" y="1183.72"/>
      <point x="762" y="960"/>
      <point x="762" y="835" type="curve" smooth="yes"/>
      <point x="762" y="371" type="line"/>
      <point x="784" y="379"/>
      <point x="809" y="384"/>
      <point x="834" y="384" type="curve" smooth="yes"/>
      <point x="951" y="384"/>
      <point x="1046" y="289"/>
    </contour>
    <contour>
      <point x="1094" y="176" type="curve" smooth="yes"/>
      <point x="1094" y="30.992"/>
      <point x="977.008" y="-86"/>
      <point x="832" y="-86" type="curve" smooth="yes"/>
      <point x="693.992" y="-86"/>
      <point x="560" y="25"/>
      <point x="560" y="176" type="curve"/>
      <point x="590" y="176" type="line"/>
      <point x="590" y="43"/>
      <point x="708" y="-56"/>
      <point x="832" y="-56" type="curve" smooth="yes"/>
      <point x="960" y="-56"/>
      <point x="1064" y="48"/>
      <point x="1064" y="176" type="curve" smooth="yes"/>
      <point x="1064" y="298"/>
      <point x="970" y="398"/>
      <point x="851" y="407" type="curve"/>
      <point x="851" y="389" type="line"/>
      <point x="794" y="422" type="line"/>
      <point x="851" y="455" type="line"/>
      <point x="851" y="437" type="line"/>
      <point x="987" y="428"/>
      <point x="1094" y="314.007"/>
    </contour>
    <contour>
      <point x="369" y="1219" type="line"/>
      <point x="42" y="1028"/>
      <point x="0.542" y="758.054"/>
      <point x="-9" y="416" type="curve" smooth="yes"/>
      <point x="-12.459" y="291.998"/>
      <point x="-9" y="167"/>
      <point x="-10" y="57" type="curve"/>
      <point x="9" y="57" type="line"/>
      <point x="-24" y="0" type="line"/>
      <point x="-57" y="57" type="line"/>
      <point x="-40" y="57" type="line"/>
      <point x="-39" y="302"/>
      <point x="-55.7083" y="563.924"/>
      <point x="7" y="803" type="curve" smooth="yes"/>
      <point x="56.2912" y="990.924"/>
      <point x="159" y="1131"/>
      <point x="354" y="1245" type="curve"/>
    </contour>
    <contour>
      <point x="544" y="109" type="curve" smooth="yes"/>
      <point x="544" y="80"/>
      <point x="517" y="60"/>
      <point x="477" y="34" type="curve"/>
      <point x="541" y="34" type="line"/>
      <point x="541" y="14" type="line"/>
      <point x="456" y="14" type="line"/>
      <point x="456" y="32" type="line"/>
      <point x="507" y="73"/>
      <point x="522" y="92"/>
      <point x="522" y="109" type="curve" smooth="yes"/>
      <point x="522" y="117"/>
      <point x="518" y="129"/>
      <point x="503" y="129" type="curve" smooth="yes"/>
      <point x="487" y="129"/>
      <point x="481" y="116"/>
      <point x="480" y="105" type="curve"/>
      <point x="458" y="105" type="line"/>
      <point x="460" y="131"/>
      <point x="475" y="144"/>
      <point x="503" y="144" type="curve" smooth="yes"/>
      <point x="529" y="144"/>
      <point x="544" y="130"/>
    </contour>
    <contour>
      <point x="1006" y="172" type="curve" smooth="yes"/>
      <point x="1006" y="267"/>
      <point x="929" y="344"/>
      <point x="834" y="344" type="curve" smooth="yes"/>
      <point x="788" y="344"/>
      <point x="761" y="328"/>
      <point x="722" y="307" type="curve"/>
      <point x="722" y="835" type="line" smooth="yes"/>
      <point x="722" y="916"/>
      <point x="594.99" y="1196"/>
      <point x="465" y="1353" type="curve" smooth="yes"/>
      <point x="440.994" y="1381.99"/>
      <point x="412.132" y="1388.84"/>
      <point x="394" y="1374" type="curve" smooth="yes"/>
      <point x="379.134" y="1361.84"/>
      <point x="376.069" y="1340.06"/>
      <point x="388" y="1325" type="curve" smooth="yes"/>
      <point x="418.072" y="1287.05"/>
      <point x="444" y="1247"/>
      <point x="469" y="1205" type="curve"/>
      <point x="119" y="1024"/>
      <point x="68.3952" y="814.984"/>
      <point x="55" y="460" type="curve" smooth="yes"/>
      <point x="50.3958" y="337.984"/>
      <point x="50.8948" y="197"/>
      <point x="50" y="35" type="curve" smooth="yes"/>
      <point x="49.8953" y="16"/>
      <point x="66" y="0"/>
      <point x="85" y="0" type="curve" smooth="yes"/>
      <point x="104" y="0"/>
      <point x="119.834" y="15.9987"/>
      <point x="120" y="35" type="curve" smooth="yes"/>
      <point x="121.834" y="245.014"/>
      <point x="108.371" y="565.897"/>
      <point x="164" y="768" type="curve" smooth="yes"/>
      <point x="217.37" y="961.896"/>
      <point x="338" y="1057"/>
      <point x="508" y="1153" type="curve"/>
      <point x="582" y="1055"/>
      <point x="652" y="928"/>
      <point x="652" y="800" type="curve" smooth="yes"/>
      <point x="652" y="172" type="line" smooth="yes"/>
      <point x="652" y="77"/>
      <point x="739" y="0"/>
      <point x="834" y="0" type="curve" smooth="yes"/>
      <point x="929" y="0"/>
      <point x="1006" y="77"/>
    </contour>
    <contour>
      <point x="447" y="1340" type="curve" smooth="yes"/>
      <point x="447" y="1326"/>
      <point x="436" y="1315"/>
      <point x="422" y="1315" type="curve" smooth="yes"/>
      <point x="408" y="1315"/>
      <point x="397" y="1326"/>
      <point x="397" y="1340" type="curve" smooth="yes"/>
      <point x="397" y="1354"/>
      <point x="408" y="1365"/>
      <point x="422" y="1365" type="curve" smooth="yes"/>
      <point x="436" y="1365"/>
      <point x="447" y="1354"/>
    </contour>
    <contour>
      <point x="936" y="172" type="curve" smooth="yes"/>
      <point x="936" y="116"/>
      <point x="890" y="70"/>
      <point x="834" y="70" type="curve" smooth="yes"/>
      <point x="778" y="70"/>
      <point x="732" y="116"/>
      <point x="732" y="172" type="curve" smooth="yes"/>
      <point x="732" y="228"/>
      <point x="778" y="274"/>
      <point x="834" y="274" type="curve" smooth="yes"/>
      <point x="890" y="274"/>
      <point x="936" y="228"/>
    </contour>
    <contour>
      <point x="896" y="172" type="curve" smooth="yes"/>
      <point x="896" y="206"/>
      <point x="868" y="234"/>
      <point x="834" y="234" type="curve" smooth="yes"/>
      <point x="800" y="234"/>
      <point x="772" y="206"/>
      <point x="772" y="172" type="curve" smooth="yes"/>
      <point x="772" y="138"/>
      <point x="800" y="110"/>
      <point x="834" y="110" type="curve" smooth="yes"/>
      <point x="868" y="110"/>
      <point x="896" y="138"/>
    </contour>
  </outline>
</glyph>
<glyph name="uni120F" format="2">
  <advance width="1243"/>
  <unicode hex="120F"/>
  <outline>
    <contour>
      <point x="1183.13" y="232.448" type="curve" smooth="yes"/>
      <point x="1183.13" y="192.245"/>
      <point x="1149.09" y="158.042"/>
      <point x="1107.97" y="158.105" type="curve" smooth="yes"/>
      <point x="307.405" y="159.334" type="line" smooth="yes"/>
      <point x="266.932" y="159.396"/>
      <point x="232.448" y="191.911"/>
      <point x="232.448" y="232.653" type="curve" smooth="yes"/>
      <point x="232.448" y="274.308"/>
      <point x="267.818" y="306.079"/>
      <point x="307.405" y="305.971" type="curve" smooth="yes"/>
      <point x="609.075" y="305.152" type="line"/>
      <point x="609.28" y="799.334" type="line" smooth="yes"/>
      <point x="609.329" y="918.184"/>
      <point x="532.565" y="1038.07"/>
      <point x="494.387" y="1090.15" type="curve"/>
      <point x="88.0917" y="862.997"/>
      <point x="180.185" y="518.301"/>
      <point x="159.295" y="392.89" type="curve" smooth="yes"/>
      <point x="151.94" y="348.733"/>
      <point x="133.739" y="322.355"/>
      <point x="85.6065" y="322.355" type="curve" smooth="yes"/>
      <point x="42.2182" y="322.355"/>
      <point x="9.24823" y="361.098"/>
      <point x="10.0352" y="399.565" type="curve" smooth="yes"/>
      <point x="18.0577" y="791.662"/>
      <point x="66.6467" y="1027.21"/>
      <point x="409.805" y="1207.09" type="curve"/>
      <point x="394.675" y="1230.14"/>
      <point x="351.342" y="1289.68"/>
      <point x="351.342" y="1289.68" type="curve"/>
      <point x="329.781" y="1320.14"/>
      <point x="329.058" y="1356.82"/>
      <point x="366.592" y="1385.88" type="curve" smooth="yes"/>
      <point x="398.794" y="1410.81"/>
      <point x="444.58" y="1406.05"/>
      <point x="471.245" y="1374" type="curve" smooth="yes"/>
      <point x="639.976" y="1171.21"/>
      <point x="759.399" y="955.067"/>
      <point x="759.399" y="833.126" type="curve" smooth="yes"/>
      <point x="759.399" y="304.947" type="line"/>
      <point x="1107.97" y="304.742" type="line" smooth="yes"/>
      <point x="1146.68" y="304.72"/>
      <point x="1183.13" y="274.829"/>
    </contour>
    <contour>
      <point x="1142.99" y="232.448" type="curve" smooth="yes"/>
      <point x="1142.99" y="249.722"/>
      <point x="1127.75" y="264.591"/>
      <point x="1107.97" y="264.601" type="curve" smooth="yes"/>
      <point x="719.258" y="264.806" type="line"/>
      <point x="719.258" y="833.126" type="line" smooth="yes"/>
      <point x="719.258" y="915.822"/>
      <point x="569.01" y="1239.5"/>
      <point x="456.12" y="1338.97" type="curve" smooth="yes"/>
      <point x="431.315" y="1360.82"/>
      <point x="408.169" y="1367.5"/>
      <point x="391.168" y="1354.34" type="curve" smooth="yes"/>
      <point x="376.348" y="1342.87"/>
      <point x="373.714" y="1322.37"/>
      <point x="385.229" y="1308.26" type="curve" smooth="yes"/>
      <point x="415.741" y="1270.88"/>
      <point x="441.633" y="1232.14"/>
      <point x="466.944" y="1191.32" type="curve"/>
      <point x="94.7693" y="1004.56"/>
      <point x="58.053" y="783.635"/>
      <point x="50.176" y="398.745" type="curve" smooth="yes"/>
      <point x="49.8145" y="381.079"/>
      <point x="66.2345" y="362.496"/>
      <point x="85.6065" y="362.496" type="curve" smooth="yes"/>
      <point x="105.183" y="362.496"/>
      <point x="120.244" y="378.18"/>
      <point x="120.627" y="395.673" type="curve" smooth="yes"/>
      <point x="128.886" y="772.227"/>
      <point x="156.678" y="952.141"/>
      <point x="505.242" y="1141.76" type="curve"/>
      <point x="578.631" y="1046.95"/>
      <point x="649.469" y="924.139"/>
      <point x="649.421" y="799.334" type="curve" smooth="yes"/>
      <point x="649.216" y="265.011" type="line"/>
      <point x="307.405" y="265.831" type="line" smooth="yes"/>
      <point x="288.286" y="265.876"/>
      <point x="272.589" y="250.549"/>
      <point x="272.589" y="232.653" type="curve" smooth="yes"/>
      <point x="272.589" y="215.188"/>
      <point x="287.795" y="199.505"/>
      <point x="307.405" y="199.475" type="curve" smooth="yes"/>
      <point x="1107.97" y="198.246" type="line" smooth="yes"/>
      <point x="1127.14" y="198.217"/>
      <point x="1142.99" y="214.554"/>
    </contour>
    <contour>
      <point x="448.081" y="1321.98" type="curve" smooth="yes"/>
      <point x="448.081" y="1308.17"/>
      <point x="436.888" y="1296.98"/>
      <point x="423.081" y="1296.98" type="curve" smooth="yes"/>
      <point x="409.274" y="1296.98"/>
      <point x="398.081" y="1308.17"/>
      <point x="398.081" y="1321.98" type="curve" smooth="yes"/>
      <point x="398.081" y="1335.79"/>
      <point x="409.274" y="1346.98"/>
      <point x="423.081" y="1346.98" type="curve" smooth="yes"/>
      <point x="436.888" y="1346.98"/>
      <point x="448.081" y="1335.79"/>
    </contour>
    <contour>
      <point x="247.882" y="56.1945" type="curve" smooth="yes"/>
      <point x="247.882" y="37.1945"/>
      <point x="233.882" y="18.1945"/>
      <point x="201.882" y="18.1945" type="curve" smooth="yes"/>
      <point x="168.882" y="18.1945"/>
      <point x="160.882" y="38.1945"/>
      <point x="160.882" y="54.1945" type="curve"/>
      <point x="182.882" y="54.1945" type="line"/>
      <point x="182.882" y="42.1945"/>
      <point x="190.882" y="34.1945"/>
      <point x="202.882" y="34.1945" type="curve" smooth="yes"/>
      <point x="214.882" y="34.1945"/>
      <point x="225.882" y="42.1945"/>
      <point x="225.882" y="56.1945" type="curve" smooth="yes"/>
      <point x="225.882" y="61.1945"/>
      <point x="221.882" y="78.1945"/>
      <point x="203.882" y="78.1945" type="curve" smooth="yes"/>
      <point x="192.882" y="78.1945" type="line"/>
      <point x="192.882" y="92.1945" type="line"/>
      <point x="220.882" y="92.1945"/>
      <point x="222.882" y="104.194"/>
      <point x="222.882" y="114.194" type="curve" smooth="yes"/>
      <point x="222.882" y="123.194"/>
      <point x="218.882" y="133.194"/>
      <point x="205.882" y="133.194" type="curve" smooth="yes"/>
      <point x="191.882" y="133.194"/>
      <point x="185.882" y="127.194"/>
      <point x="184.882" y="115.194" type="curve"/>
      <point x="162.882" y="115.194" type="line"/>
      <point x="163.882" y="137.194"/>
      <point x="181.882" y="148.194"/>
      <point x="204.882" y="148.194" type="curve" smooth="yes"/>
      <point x="226.882" y="148.194"/>
      <point x="244.882" y="136.194"/>
      <point x="244.882" y="114.194" type="curve" smooth="yes"/>
      <point x="244.882" y="95.1945"/>
      <point x="232.882" y="90.1945"/>
      <point x="221.882" y="86.1945" type="curve"/>
      <point x="232.882" y="83.1945"/>
      <point x="247.882" y="74.1945"/>
    </contour>
    <contour>
      <point x="1118.46" y="86.515" type="line"/>
      <point x="1061.46" y="53.515" type="line"/>
      <point x="1061.45" y="71.7533" type="line"/>
      <point x="299.06" y="71.761" type="line"/>
      <point x="299.06" y="101.761" type="line"/>
      <point x="1061.45" y="101.752" type="line"/>
      <point x="1061.46" y="119.515" type="line"/>
    </contour>
    <contour>
      <point x="615" y="1368" type="line"/>
      <point x="594" y="1368" type="line"/>
      <point x="594" y="1469" type="line"/>
      <point x="587" y="1463"/>
      <point x="573" y="1456"/>
      <point x="565" y="1454" type="curve"/>
      <point x="565" y="1473" type="line"/>
      <point x="574" y="1477"/>
      <point x="590" y="1490"/>
      <point x="594" y="1494" type="curve"/>
      <point x="615" y="1494" type="line"/>
    </contour>
    <contour>
      <point x="297" y="1339" type="curve" smooth="yes"/>
      <point x="297" y="1310"/>
      <point x="270" y="1290"/>
      <point x="230" y="1264" type="curve"/>
      <point x="294" y="1264" type="line"/>
      <point x="294" y="1244" type="line"/>
      <point x="209" y="1244" type="line"/>
      <point x="209" y="1262" type="line"/>
      <point x="260" y="1303"/>
      <point x="275" y="1322"/>
      <point x="275" y="1339" type="curve" smooth="yes"/>
      <point x="275" y="1347"/>
      <point x="271" y="1359"/>
      <point x="256" y="1359" type="curve" smooth="yes"/>
      <point x="240" y="1359"/>
      <point x="234" y="1346"/>
      <point x="233" y="1335" type="curve"/>
      <point x="211" y="1335" type="line"/>
      <point x="213" y="1361"/>
      <point x="228" y="1374"/>
      <point x="256" y="1374" type="curve" smooth="yes"/>
      <point x="282" y="1374"/>
      <point x="297" y="1360"/>
    </contour>
    <contour>
      <point x="829" y="410.026" type="line"/>
      <point x="796" y="353.026" type="line"/>
      <point x="763" y="410.026" type="line"/>
      <point x="782" y="410.026" type="line"/>
      <point x="782" y="835" type="line" smooth="yes"/>
      <point x="782" y="968.004"/>
      <point x="658" y="1196"/>
      <point x="490" y="1406" type="curve"/>
      <point x="513" y="1424" type="line"/>
      <point x="682" y="1215"/>
      <point x="812" y="980.005"/>
      <point x="812" y="835" type="curve" smooth="yes"/>
      <point x="812" y="410.026" type="line"/>
    </contour>
    <contour>
      <point x="369" y="1219" type="line"/>
      <point x="42" y="1028"/>
      <point x="1" y="758"/>
      <point x="-9" y="416" type="curve"/>
      <point x="10" y="416" type="line"/>
      <point x="-23" y="359" type="line"/>
      <point x="-56" y="416" type="line"/>
      <point x="-39" y="416" type="line"/>
      <point x="-35" y="547"/>
      <point x="-25.609" y="678.925"/>
      <point x="7" y="803" type="curve" smooth="yes"/>
      <point x="56.3693" y="990.846"/>
      <point x="159" y="1131"/>
      <point x="354" y="1245" type="curve"/>
    </contour>
  </outline>
</glyph>
<glyph name="uni1211" format="2">
  <advance width="1551"/>
  <unicode hex="1211"/>
  <outline>
    <contour>
      <point x="1442" y="627" type="line"/>
      <point x="1385" y="594" type="line"/>
      <point x="1385" y="612" type="line"/>
      <point x="1082" y="612" type="line"/>
      <point x="1082" y="642" type="line"/>
      <point x="1385" y="642" type="line"/>
      <point x="1385" y="660" type="line"/>
    </contour>
    <contour>
      <point x="1198" y="696" type="line"/>
      <point x="1185" y="696" type="line"/>
      <point x="1185" y="669" type="line"/>
      <point x="1164" y="669" type="line"/>
      <point x="1164" y="696" type="line"/>
      <point x="1104" y="696" type="line"/>
      <point x="1104" y="721" type="line"/>
      <point x="1156" y="796" type="line"/>
      <point x="1185" y="796" type="line"/>
      <point x="1185" y="715" type="line"/>
      <point x="1198" y="715" type="line"/>
    </contour>
    <contour>
      <point x="445" y="1244" type="line"/>
      <point x="424" y="1244" type="line"/>
      <point x="424" y="1345" type="line"/>
      <point x="417" y="1339"/>
      <point x="403" y="1332"/>
      <point x="395" y="1330" type="curve"/>
      <point x="395" y="1349" type="line"/>
      <point x="404" y="1353"/>
      <point x="420" y="1366"/>
      <point x="424" y="1370" type="curve"/>
      <point x="445" y="1370" type="line"/>
    </contour>
    <contour>
      <point x="1491" y="504" type="curve" smooth="yes"/>
      <point x="1491" y="462"/>
      <point x="1457" y="428.114"/>
      <point x="1416" y="428" type="curve" smooth="yes"/>
      <point x="1058" y="427" type="line"/>
      <point x="1058" y="35" type="line" smooth="yes"/>
      <point x="1058" y="-6"/>
      <point x="1024" y="-40"/>
      <point x="983" y="-40" type="curve" smooth="yes"/>
      <point x="940" y="-40"/>
      <point x="908" y="-5.00175"/>
      <point x="908" y="35" type="curve" smooth="yes"/>
      <point x="908" y="582" type="line" smooth="yes"/>
      <point x="908" y="712.005"/>
      <point x="871.007" y="737.053"/>
      <point x="697" y="734" type="curve" smooth="yes"/>
      <point x="640" y="733" type="line"/>
      <point x="579" y="31" type="line" smooth="yes"/>
      <point x="570.394" y="-68.04"/>
      <point x="419.454" y="-52.9478"/>
      <point x="428" y="44" type="curve" smooth="yes"/>
      <point x="489" y="736" type="line"/>
      <point x="271" y="718"/>
      <point x="154.127" y="551.018"/>
      <point x="160" y="35" type="curve" smooth="yes"/>
      <point x="161.127" y="-63.9893"/>
      <point x="11.0935" y="-65.9918"/>
      <point x="10" y="34" type="curve" smooth="yes"/>
      <point x="4.09375" y="574.032"/>
      <point x="150" y="868"/>
      <point x="502" y="887" type="curve"/>
      <point x="545" y="1373" type="line" smooth="yes"/>
      <point x="553.754" y="1471.94"/>
      <point x="703.544" y="1457.04"/>
      <point x="695" y="1360" type="curve" smooth="yes"/>
      <point x="653" y="883" type="line"/>
      <point x="845" y="892"/>
      <point x="1058" y="879.992"/>
      <point x="1058" y="613" type="curve" smooth="yes"/>
      <point x="1058" y="578" type="line"/>
      <point x="1416" y="578" type="line" smooth="yes"/>
      <point x="1456" y="578"/>
      <point x="1491" y="547"/>
    </contour>
    <contour>
      <point x="395" y="1041" type="curve" smooth="yes"/>
      <point x="395" y="1012"/>
      <point x="368" y="992"/>
      <point x="328" y="966" type="curve"/>
      <point x="392" y="966" type="line"/>
      <point x="392" y="946" type="line"/>
      <point x="307" y="946" type="line"/>
      <point x="307" y="964" type="line"/>
      <point x="358" y="1005"/>
      <point x="373" y="1024"/>
      <point x="373" y="1041" type="curve" smooth="yes"/>
      <point x="373" y="1049"/>
      <point x="369" y="1061"/>
      <point x="354" y="1061" type="curve" smooth="yes"/>
      <point x="338" y="1061"/>
      <point x="332" y="1048"/>
      <point x="331" y="1037" type="curve"/>
      <point x="309" y="1037" type="line"/>
      <point x="311" y="1063"/>
      <point x="326" y="1076"/>
      <point x="354" y="1076" type="curve" smooth="yes"/>
      <point x="380" y="1076"/>
      <point x="395" y="1062"/>
    </contour>
    <contour>
      <point x="748" y="547" type="curve" smooth="yes"/>
      <point x="748" y="528"/>
      <point x="734" y="509"/>
      <point x="702" y="509" type="curve" smooth="yes"/>
      <point x="669" y="509"/>
      <point x="661" y="529"/>
      <point x="661" y="545" type="curve"/>
      <point x="683" y="545" type="line"/>
      <point x="683" y="533"/>
      <point x="691" y="525"/>
      <point x="703" y="525" type="curve" smooth="yes"/>
      <point x="715" y="525"/>
      <point x="726" y="533"/>
      <point x="726" y="547" type="curve" smooth="yes"/>
      <point x="726" y="552"/>
      <point x="722" y="569"/>
      <point x="704" y="569" type="curve" smooth="yes"/>
      <point x="693" y="569" type="line"/>
      <point x="693" y="583" type="line"/>
      <point x="721" y="583"/>
      <point x="723" y="595"/>
      <point x="723" y="605" type="curve" smooth="yes"/>
      <point x="723" y="614"/>
      <point x="719" y="624"/>
      <point x="706" y="624" type="curve" smooth="yes"/>
      <point x="692" y="624"/>
      <point x="686" y="618"/>
      <point x="685" y="606" type="curve"/>
      <point x="663" y="606" type="line"/>
      <point x="664" y="628"/>
      <point x="682" y="639"/>
      <point x="705" y="639" type="curve" smooth="yes"/>
      <point x="727" y="639"/>
      <point x="745" y="627"/>
      <point x="745" y="605" type="curve" smooth="yes"/>
      <point x="745" y="586"/>
      <point x="733" y="581"/>
      <point x="722" y="577" type="curve"/>
      <point x="733" y="574"/>
      <point x="748" y="565"/>
    </contour>
    <contour>
      <point x="905" y="57" type="line"/>
      <point x="872" y="0" type="line"/>
      <point x="839" y="57" type="line"/>
      <point x="858" y="57" type="line"/>
      <point x="858" y="582" type="line" smooth="yes"/>
      <point x="858" y="635"/>
      <point x="855.042" y="656.053"/>
      <point x="839" y="668" type="curve" smooth="yes"/>
      <point x="808.038" y="691.056"/>
      <point x="712" y="684"/>
      <point x="673" y="683" type="curve"/>
      <point x="672" y="713" type="line"/>
      <point x="719" y="715"/>
      <point x="815.659" y="721.545"/>
      <point x="856" y="692" type="curve" smooth="yes"/>
      <point x="886.667" y="669.54"/>
      <point x="888" y="631"/>
      <point x="888" y="582" type="curve" smooth="yes"/>
      <point x="888" y="57" type="line"/>
    </contour>
    <contour>
      <point x="519" y="1360" type="line"/>
      <point x="409" y="58" type="line"/>
      <point x="425" y="57" type="line"/>
      <point x="388" y="3" type="line"/>
      <point x="360" y="63" type="line"/>
      <point x="380" y="61" type="line"/>
      <point x="489" y="1363" type="line"/>
    </contour>
    <contour>
      <point x="423" y="897" type="line"/>
      <point x="116" y="841"/>
      <point x="-11" y="546"/>
      <point x="-10" y="60" type="curve"/>
      <point x="8" y="60" type="line"/>
      <point x="-25" y="3" type="line"/>
      <point x="-58" y="60" type="line"/>
      <point x="-40" y="60" type="line"/>
      <point x="-41" y="547"/>
      <point x="86" y="866"/>
      <point x="417" y="927" type="curve"/>
    </contour>
    <contour>
      <point x="1164" y="715" type="line"/>
      <point x="1164" y="780" type="line"/>
      <point x="1119" y="715" type="line"/>
    </contour>
    <contour>
      <point x="1451" y="504" type="curve" smooth="yes"/>
      <point x="1451" y="523"/>
      <point x="1435" y="538"/>
      <point x="1416" y="538" type="curve" smooth="yes"/>
      <point x="1018" y="538" type="line"/>
      <point x="1018" y="613" type="line" smooth="yes"/>
      <point x="1018" y="873.992"/>
      <point x="785" y="849"/>
      <point x="610" y="841" type="curve"/>
      <point x="655" y="1363" type="line" smooth="yes"/>
      <point x="658.88" y="1408.01"/>
      <point x="587.974" y="1416.1"/>
      <point x="584" y="1370" type="curve" smooth="yes"/>
      <point x="539" y="848" type="line"/>
      <point x="78" y="835"/>
      <point x="45.6025" y="370.01"/>
      <point x="50" y="34" type="curve" smooth="yes"/>
      <point x="50.602" y="-12.009"/>
      <point x="120.543" y="-12.0037"/>
      <point x="120" y="35" type="curve" smooth="yes"/>
      <point x="116.544" y="333.992"/>
      <point x="118" y="763"/>
      <point x="533" y="778" type="curve"/>
      <point x="468" y="41" type="line" smooth="yes"/>
      <point x="464.031" y="-4.0025"/>
      <point x="535.011" y="-12.0012"/>
      <point x="539" y="34" type="curve" smooth="yes"/>
      <point x="603" y="772" type="line"/>
      <point x="768" y="776"/>
      <point x="948" y="818.01"/>
      <point x="948" y="582" type="curve" smooth="yes"/>
      <point x="948" y="35" type="line" smooth="yes"/>
      <point x="948" y="16"/>
      <point x="963" y="0"/>
      <point x="983" y="0" type="curve" smooth="yes"/>
      <point x="1002" y="0"/>
      <point x="1018" y="16"/>
      <point x="1018" y="35" type="curve" smooth="yes"/>
      <point x="1018" y="467" type="line"/>
      <point x="1416" y="468" type="line" smooth="yes"/>
      <point x="1435" y="468.047"/>
      <point x="1451" y="484"/>
    </contour>
    <contour>
      <point x="641" y="1362" type="curve" smooth="yes"/>
      <point x="641" y="1348"/>
      <point x="630" y="1337"/>
      <point x="616" y="1337" type="curve" smooth="yes"/>
      <point x="602" y="1337"/>
      <point x="591" y="1348"/>
      <point x="591" y="1362" type="curve" smooth="yes"/>
      <point x="591" y="1376"/>
      <point x="602" y="1387"/>
      <point x="616" y="1387" type="curve" smooth="yes"/>
      <point x="630" y="1387"/>
      <point x="641" y="1376"/>
    </contour>
  </outline>
</glyph>
<glyph name="uni1215" format="2">
  <advance width="1118"/>
  <unicode hex="1215"/>
  <outline>
    <contour>
      <point x="774" y="1463" type="line"/>
      <point x="761" y="1463" type="line"/>
      <point x="761" y="1436" type="line"/>
      <point x="740" y="1436" type="line"/>
      <point x="740" y="1463" type="line"/>
      <point x="680" y="1463" type="line"/>
      <point x="680" y="1488" type="line"/>
      <point x="732" y="1563" type="line"/>
      <point x="761" y="1563" type="line"/>
      <point x="761" y="1482" type="line"/>
      <point x="774" y="1482" type="line"/>
    </contour>
    <contour>
      <point x="648" y="1490" type="line"/>
      <point x="258" y="1490" type="line"/>
      <point x="258" y="1472" type="line"/>
      <point x="201" y="1505" type="line"/>
      <point x="258" y="1538" type="line"/>
      <point x="258" y="1520" type="line"/>
      <point x="648" y="1520" type="line"/>
    </contour>
    <contour>
      <point x="448" y="1151" type="line"/>
      <point x="427" y="1151" type="line"/>
      <point x="427" y="1252" type="line"/>
      <point x="420" y="1246"/>
      <point x="406" y="1239"/>
      <point x="398" y="1237" type="curve"/>
      <point x="398" y="1256" type="line"/>
      <point x="407" y="1260"/>
      <point x="423" y="1273"/>
      <point x="427" y="1277" type="curve"/>
      <point x="448" y="1277" type="line"/>
    </contour>
    <contour>
      <point x="395" y="1041" type="curve" smooth="yes"/>
      <point x="395" y="1012"/>
      <point x="368" y="992"/>
      <point x="328" y="966" type="curve"/>
      <point x="392" y="966" type="line"/>
      <point x="392" y="946" type="line"/>
      <point x="307" y="946" type="line"/>
      <point x="307" y="964" type="line"/>
      <point x="358" y="1005"/>
      <point x="373" y="1024"/>
      <point x="373" y="1041" type="curve" smooth="yes"/>
      <point x="373" y="1049"/>
      <point x="369" y="1061"/>
      <point x="354" y="1061" type="curve" smooth="yes"/>
      <point x="338" y="1061"/>
      <point x="332" y="1048"/>
      <point x="331" y="1037" type="curve"/>
      <point x="309" y="1037" type="line"/>
      <point x="311" y="1063"/>
      <point x="326" y="1076"/>
      <point x="354" y="1076" type="curve" smooth="yes"/>
      <point x="380" y="1076"/>
      <point x="395" y="1062"/>
    </contour>
    <contour>
      <point x="748" y="547" type="curve" smooth="yes"/>
      <point x="748" y="528"/>
      <point x="734" y="509"/>
      <point x="702" y="509" type="curve" smooth="yes"/>
      <point x="669" y="509"/>
      <point x="661" y="529"/>
      <point x="661" y="545" type="curve"/>
      <point x="683" y="545" type="line"/>
      <point x="683" y="533"/>
      <point x="691" y="525"/>
      <point x="703" y="525" type="curve" smooth="yes"/>
      <point x="715" y="525"/>
      <point x="726" y="533"/>
      <point x="726" y="547" type="curve" smooth="yes"/>
      <point x="726" y="552"/>
      <point x="722" y="569"/>
      <point x="704" y="569" type="curve" smooth="yes"/>
      <point x="693" y="569" type="line"/>
      <point x="693" y="583" type="line"/>
      <point x="721" y="583"/>
      <point x="723" y="595"/>
      <point x="723" y="605" type="curve" smooth="yes"/>
      <point x="723" y="614"/>
      <point x="719" y="624"/>
      <point x="706" y="624" type="curve" smooth="yes"/>
      <point x="692" y="624"/>
      <point x="686" y="618"/>
      <point x="685" y="606" type="curve"/>
      <point x="663" y="606" type="line"/>
      <point x="664" y="628"/>
      <point x="682" y="639"/>
      <point x="705" y="639" type="curve" smooth="yes"/>
      <point x="727" y="639"/>
      <point x="745" y="627"/>
      <point x="745" y="605" type="curve" smooth="yes"/>
      <point x="745" y="586"/>
      <point x="733" y="581"/>
      <point x="722" y="577" type="curve"/>
      <point x="733" y="574"/>
      <point x="748" y="565"/>
    </contour>
    <contour>
      <point x="1058" y="35" type="line" smooth="yes"/>
      <point x="1058" y="-6"/>
      <point x="1024" y="-40"/>
      <point x="983" y="-40" type="curve" smooth="yes"/>
      <point x="940" y="-40"/>
      <point x="908" y="-5.00175"/>
      <point x="908" y="35" type="curve" smooth="yes"/>
      <point x="908" y="582" type="line" smooth="yes"/>
      <point x="908" y="712.005"/>
      <point x="871.007" y="737.053"/>
      <point x="697" y="734" type="curve" smooth="yes"/>
      <point x="640" y="733" type="line"/>
      <point x="579" y="31" type="line" smooth="yes"/>
      <point x="570.394" y="-68.04"/>
      <point x="419.454" y="-52.9478"/>
      <point x="428" y="44" type="curve" smooth="yes"/>
      <point x="489" y="736" type="line"/>
      <point x="271" y="718"/>
      <point x="154.127" y="551.018"/>
      <point x="160" y="35" type="curve" smooth="yes"/>
      <point x="161.127" y="-63.9893"/>
      <point x="11.0935" y="-65.9918"/>
      <point x="10" y="34" type="curve" smooth="yes"/>
      <point x="4.09375" y="574.032"/>
      <point x="150" y="868"/>
      <point x="502" y="887" type="curve"/>
      <point x="538" y="1295" type="line"/>
      <point x="224" y="1294" type="line" smooth="yes"/>
      <point x="182" y="1293.87"/>
      <point x="149" y="1328"/>
      <point x="149" y="1369" type="curve" smooth="yes"/>
      <point x="149" y="1412"/>
      <point x="178" y="1446.6"/>
      <point x="226" y="1446" type="curve"/>
      <point x="226" y="1446"/>
      <point x="500" y="1441.74"/>
      <point x="623" y="1441" type="curve" smooth="yes"/>
      <point x="666" y="1440.74"/>
      <point x="700.503" y="1409.95"/>
      <point x="696" y="1360" type="curve"/>
      <point x="696" y="1360"/>
      <point x="668" y="1048"/>
      <point x="653" y="883" type="curve"/>
      <point x="845" y="892"/>
      <point x="1058" y="880"/>
      <point x="1058" y="613" type="curve" smooth="yes"/>
    </contour>
    <contour>
      <point x="905" y="57" type="line"/>
      <point x="872" y="0" type="line"/>
      <point x="839" y="57" type="line"/>
      <point x="858" y="57" type="line"/>
      <point x="858" y="582" type="line" smooth="yes"/>
      <point x="858" y="635"/>
      <point x="855.042" y="656.053"/>
      <point x="839" y="668" type="curve" smooth="yes"/>
      <point x="808.038" y="691.056"/>
      <point x="712" y="684"/>
      <point x="673" y="683" type="curve"/>
      <point x="672" y="713" type="line"/>
      <point x="719" y="715"/>
      <point x="815.659" y="721.545"/>
      <point x="856" y="692" type="curve" smooth="yes"/>
      <point x="886.667" y="669.54"/>
      <point x="888" y="631"/>
      <point x="888" y="582" type="curve" smooth="yes"/>
      <point x="888" y="57" type="line"/>
    </contour>
    <contour>
      <point x="513" y="1264" type="line"/>
      <point x="409" y="58" type="line"/>
      <point x="425" y="57" type="line"/>
      <point x="388" y="3" type="line"/>
      <point x="360" y="63" type="line"/>
      <point x="380" y="61" type="line"/>
      <point x="483" y="1267" type="line"/>
    </contour>
    <contour>
      <point x="423" y="897" type="line"/>
      <point x="116" y="841"/>
      <point x="-11" y="546"/>
      <point x="-10" y="60" type="curve"/>
      <point x="8" y="60" type="line"/>
      <point x="-25" y="3" type="line"/>
      <point x="-58" y="60" type="line"/>
      <point x="-40" y="60" type="line"/>
      <point x="-41" y="547"/>
      <point x="86" y="866"/>
      <point x="417" y="927" type="curve"/>
    </contour>
    <contour>
      <point x="740" y="1482" type="line"/>
      <point x="740" y="1547" type="line"/>
      <point x="695" y="1482" type="line"/>
    </contour>
    <contour>
      <point x="1018" y="35" type="curve" smooth="yes"/>
      <point x="1018" y="613" type="line" smooth="yes"/>
      <point x="1018" y="873.999"/>
      <point x="785" y="849"/>
      <point x="610" y="841" type="curve"/>
      <point x="655" y="1363" type="line" smooth="yes"/>
      <point x="656.726" y="1383.03"/>
      <point x="640.002" y="1400.87"/>
      <point x="623" y="1401" type="curve" smooth="yes"/>
      <point x="224" y="1404" type="line" smooth="yes"/>
      <point x="204.998" y="1404.14"/>
      <point x="189" y="1389"/>
      <point x="189" y="1369" type="curve" smooth="yes"/>
      <point x="189" y="1350"/>
      <point x="205" y="1333.95"/>
      <point x="224" y="1334" type="curve" smooth="yes"/>
      <point x="581" y="1335" type="line"/>
      <point x="539" y="848" type="line"/>
      <point x="78" y="835"/>
      <point x="45.6025" y="370.01"/>
      <point x="50" y="34" type="curve" smooth="yes"/>
      <point x="50.602" y="-12.009"/>
      <point x="120.543" y="-12.0037"/>
      <point x="120" y="35" type="curve" smooth="yes"/>
      <point x="116.544" y="333.992"/>
      <point x="118" y="763"/>
      <point x="533" y="778" type="curve"/>
      <point x="468" y="41" type="line" smooth="yes"/>
      <point x="464.031" y="-4.0025"/>
      <point x="535.011" y="-12.0012"/>
      <point x="539" y="34" type="curve" smooth="yes"/>
      <point x="603" y="772" type="line"/>
      <point x="768" y="776"/>
      <point x="948" y="818.01"/>
      <point x="948" y="582" type="curve" smooth="yes"/>
      <point x="948" y="35" type="line" smooth="yes"/>
      <point x="948" y="16"/>
      <point x="963" y="0"/>
      <point x="983" y="0" type="curve" smooth="yes"/>
      <point x="1002" y="0"/>
      <point x="1018" y="16"/>
    </contour>
    <contour>
      <point x="641" y="1362" type="curve" smooth="yes"/>
      <point x="641" y="1348"/>
      <point x="630" y="1337"/>
      <point x="616" y="1337" type="curve" smooth="yes"/>
      <point x="602" y="1337"/>
      <point x="591" y="1348"/>
      <point x="591" y="1362" type="curve" smooth="yes"/>
      <point x="591" y="1376"/>
      <point x="602" y="1387"/>
      <point x="616" y="1387" type="curve" smooth="yes"/>
      <point x="630" y="1387"/>
      <point x="641" y="1376"/>
    </contour>
  </outline>
</glyph>
<glyph name="uni1216" format="2">
  <advance width="1133"/>
  <unicode hex="1216"/>
  <outline>
    <contour>
      <point x="445" y="1244" type="line"/>
      <point x="424" y="1244" type="line"/>
      <point x="424" y="1345" type="line"/>
      <point x="417" y="1339"/>
      <point x="403" y="1332"/>
      <point x="395" y="1330" type="curve"/>
      <point x="395" y="1349" type="line"/>
      <point x="404" y="1353"/>
      <point x="420" y="1366"/>
      <point x="424" y="1370" type="curve"/>
      <point x="445" y="1370" type="line"/>
    </contour>
    <contour>
      <point x="395" y="1041" type="curve" smooth="yes"/>
      <point x="395" y="1012"/>
      <point x="368" y="992"/>
      <point x="328" y="966" type="curve"/>
      <point x="392" y="966" type="line"/>
      <point x="392" y="946" type="line"/>
      <point x="307" y="946" type="line"/>
      <point x="307" y="964" type="line"/>
      <point x="358" y="1005"/>
      <point x="373" y="1024"/>
      <point x="373" y="1041" type="curve" smooth="yes"/>
      <point x="373" y="1049"/>
      <point x="369" y="1061"/>
      <point x="354" y="1061" type="curve" smooth="yes"/>
      <point x="338" y="1061"/>
      <point x="332" y="1048"/>
      <point x="331" y="1037" type="curve"/>
      <point x="309" y="1037" type="line"/>
      <point x="311" y="1063"/>
      <point x="326" y="1076"/>
      <point x="354" y="1076" type="curve" smooth="yes"/>
      <point x="380" y="1076"/>
      <point x="395" y="1062"/>
    </contour>
    <contour>
      <point x="905" y="394" type="line"/>
      <point x="872" y="337" type="line"/>
      <point x="839" y="394" type="line"/>
      <point x="858" y="394" type="line"/>
      <point x="858" y="582" type="line" smooth="yes"/>
      <point x="858" y="635"/>
      <point x="855.042" y="656.054"/>
      <point x="839" y="668" type="curve" smooth="yes"/>
      <point x="808.038" y="691.056"/>
      <point x="712" y="684"/>
      <point x="673" y="683" type="curve"/>
      <point x="672" y="713" type="line"/>
      <point x="719" y="715"/>
      <point x="815.659" y="721.545"/>
      <point x="856" y="692" type="curve" smooth="yes"/>
      <point x="886.667" y="669.54"/>
      <point x="888" y="631"/>
      <point x="888" y="582" type="curve" smooth="yes"/>
      <point x="888" y="394" type="line"/>
    </contour>
    <contour>
      <point x="519" y="1360" type="line"/>
      <point x="439" y="392" type="line"/>
      <point x="455" y="391" type="line"/>
      <point x="417" y="337" type="line"/>
      <point x="389" y="397" type="line"/>
      <point x="409" y="395" type="line"/>
      <point x="489" y="1363" type="line"/>
    </contour>
    <contour>
      <point x="748" y="547" type="curve" smooth="yes"/>
      <point x="748" y="528"/>
      <point x="734" y="509"/>
      <point x="702" y="509" type="curve" smooth="yes"/>
      <point x="669" y="509"/>
      <point x="661" y="529"/>
      <point x="661" y="545" type="curve"/>
      <point x="683" y="545" type="line"/>
      <point x="683" y="533"/>
      <point x="691" y="525"/>
      <point x="703" y="525" type="curve" smooth="yes"/>
      <point x="715" y="525"/>
      <point x="726" y="533"/>
      <point x="726" y="547" type="curve" smooth="yes"/>
      <point x="726" y="552"/>
      <point x="722" y="569"/>
      <point x="704" y="569" type="curve" smooth="yes"/>
      <point x="693" y="569" type="line"/>
      <point x="693" y="583" type="line"/>
      <point x="721" y="583"/>
      <point x="723" y="595"/>
      <point x="723" y="605" type="curve" smooth="yes"/>
      <point x="723" y="614"/>
      <point x="719" y="624"/>
      <point x="706" y="624" type="curve" smooth="yes"/>
      <point x="692" y="624"/>
      <point x="686" y="618"/>
      <point x="685" y="606" type="curve"/>
      <point x="663" y="606" type="line"/>
      <point x="664" y="628"/>
      <point x="682" y="639"/>
      <point x="705" y="639" type="curve" smooth="yes"/>
      <point x="727" y="639"/>
      <point x="745" y="627"/>
      <point x="745" y="605" type="curve" smooth="yes"/>
      <point x="745" y="586"/>
      <point x="733" y="581"/>
      <point x="722" y="577" type="curve"/>
      <point x="733" y="574"/>
      <point x="748" y="565"/>
    </contour>
    <contour>
      <point x="1073" y="385" type="line" smooth="yes"/>
      <point x="1073" y="344"/>
      <point x="1040" y="310"/>
      <point x="998" y="310" type="curve" smooth="yes"/>
      <point x="956" y="310"/>
      <point x="923" y="344.999"/>
      <point x="923" y="385" type="curve" smooth="yes"/>
      <point x="923" y="582" type="line" smooth="yes"/>
      <point x="923" y="712.005"/>
      <point x="886.014" y="736.417"/>
      <point x="712" y="734" type="curve" smooth="yes"/>
      <point x="640" y="733" type="line"/>
      <point x="630" y="622"/>
      <point x="610" y="379"/>
      <point x="610" y="379" type="curve"/>
      <point x="606.101" y="332.994"/>
      <point x="569.995" y="307.952"/>
      <point x="528" y="312" type="curve" smooth="yes"/>
      <point x="486.994" y="315.952"/>
      <point x="455.312" y="343.976"/>
      <point x="459" y="387" type="curve"/>
      <point x="459" y="387"/>
      <point x="479" y="627"/>
      <point x="489" y="737" type="curve"/>
      <point x="271" y="718"/>
      <point x="154.127" y="552.018"/>
      <point x="160" y="36" type="curve" smooth="yes"/>
      <point x="161.127" y="-62.9893"/>
      <point x="11.0825" y="-64.9905"/>
      <point x="10" y="34" type="curve" smooth="yes"/>
      <point x="4.083" y="575.017"/>
      <point x="150" y="868"/>
      <point x="502" y="887" type="curve"/>
      <point x="545" y="1374" type="line" smooth="yes"/>
      <point x="553.736" y="1472.94"/>
      <point x="703.527" y="1458.05"/>
      <point x="695" y="1361" type="curve" smooth="yes"/>
      <point x="653" y="883" type="line"/>
      <point x="847" y="889"/>
      <point x="1073" y="889"/>
      <point x="1073" y="613" type="curve" smooth="yes"/>
    </contour>
    <contour>
      <point x="423" y="897" type="line"/>
      <point x="116" y="841"/>
      <point x="-11" y="546"/>
      <point x="-10" y="60" type="curve"/>
      <point x="8" y="60" type="line"/>
      <point x="-25" y="3" type="line"/>
      <point x="-58" y="60" type="line"/>
      <point x="-40" y="60" type="line"/>
      <point x="-41" y="547"/>
      <point x="86" y="866"/>
      <point x="417" y="927" type="curve"/>
    </contour>
    <contour>
      <point x="1033" y="385" type="curve" smooth="yes"/>
      <point x="1033" y="613" type="line" smooth="yes"/>
      <point x="1033" y="879"/>
      <point x="786" y="847"/>
      <point x="610" y="842" type="curve"/>
      <point x="655" y="1364" type="line" smooth="yes"/>
      <point x="658.88" y="1409.01"/>
      <point x="588.06" y="1417.09"/>
      <point x="584" y="1370" type="curve" smooth="yes"/>
      <point x="539" y="848" type="line"/>
      <point x="78" y="836"/>
      <point x="45.614" y="370.995"/>
      <point x="50" y="35" type="curve" smooth="yes"/>
      <point x="50.6135" y="-12.005"/>
      <point x="120.543" y="-11.0037"/>
      <point x="120" y="36" type="curve" smooth="yes"/>
      <point x="116.544" y="334.992"/>
      <point x="118" y="763"/>
      <point x="533" y="779" type="curve"/>
      <point x="499" y="390" type="line" smooth="yes"/>
      <point x="495.066" y="344.993"/>
      <point x="564.883" y="337.014"/>
      <point x="569" y="384" type="curve" smooth="yes"/>
      <point x="603" y="772" type="line"/>
      <point x="711" y="774" type="line" smooth="yes"/>
      <point x="894.988" y="777.407"/>
      <point x="963" y="746.007"/>
      <point x="963" y="582" type="curve" smooth="yes"/>
      <point x="963" y="385" type="line" smooth="yes"/>
      <point x="963" y="366"/>
      <point x="978" y="350"/>
      <point x="998" y="350" type="curve" smooth="yes"/>
      <point x="1017" y="350"/>
      <point x="1033" y="366"/>
    </contour>
    <contour>
      <point x="641" y="1362" type="curve" smooth="yes"/>
      <point x="641" y="1348"/>
      <point x="630" y="1337"/>
      <point x="616" y="1337" type="curve" smooth="yes"/>
      <point x="602" y="1337"/>
      <point x="591" y="1348"/>
      <point x="591" y="1362" type="curve" smooth="yes"/>
      <point x="591" y="1376"/>
      <point x="602" y="1387"/>
      <point x="616" y="1387" type="curve" smooth="yes"/>
      <point x="630" y="1387"/>
      <point x="641" y="1376"/>
    </contour>
  </outline>
</glyph>
